<svg xmlns="http://www.w3.org/2000/svg" id="export" class="canvas" preserveAspectRatio="xMidYMid meet" style="" width="129" height="938"><rect id="background" fill="#fff" pointer-events="all" width="129" height="938"/><g id="origin" transform="translate(5.824951171875, 5.824951171875) scale(1)"><g id="clusters" class="clusters"/><g id="edge-paths" class="edge-paths"><defs><marker id="arrowhead" viewBox="0 0 10 10" refX="9" refY="5" markerUnits="strokeWidth" markerWidth="8" markerHeight="6" orient="auto" style="fill: rgb(0, 0, 0);"><path d="M 0 0 L 10 5 L 0 10 L 4 5 z" style="stroke-width: 1;"/></marker><marker id="arrowhead-select" viewBox="0 0 10 10" refX="9" refY="5" markerUnits="strokeWidth" markerWidth="8" markerHeight="6" orient="auto" style="fill: rgb(238, 0, 0);"><path d="M 0 0 L 10 5 L 0 10 L 4 5 z" style="stroke-width: 1;"/></marker><marker id="arrowhead-hover" viewBox="0 0 10 10" refX="9" refY="5" markerUnits="strokeWidth" markerWidth="8" markerHeight="6" orient="auto" style="fill: rgb(238, 0, 0);"><path d="M 0 0 L 10 5 L 0 10 L 4 5 z" style="stroke-width: 1;"/></marker></defs><path class="edge-path-hit-test" d="M46.2421875,23L46.2421875,24.666666666666668C46.2421875,26.333333333333332,46.2421875,29.666666666666668,46.2421875,35C46.2421875,40.333333333333336,46.2421875,47.666666666666664,46.2421875,55C46.2421875,62.333333333333336,46.2421875,69.66666666666667,46.2421875,75C46.2421875,80.33333333333333,46.2421875,83.66666666666667,46.2421875,85.33333333333333L46.2421875,87" style="pointer-events: stroke; stroke-width: 0.5em; fill: none; stroke-opacity: 0;"/><path id="edge-input.1" class="edge-path" d="M46.2421875,23L46.2421875,24.666666666666668C46.2421875,26.333333333333332,46.2421875,29.666666666666668,46.2421875,35C46.2421875,40.333333333333336,46.2421875,47.666666666666664,46.2421875,55C46.2421875,62.333333333333336,46.2421875,69.66666666666667,46.2421875,75C46.2421875,80.33333333333333,46.2421875,83.66666666666667,46.2421875,85.33333333333333L46.2421875,87" style="stroke: rgb(0, 0, 0); stroke-width: 1px; fill: none; marker-end: url(&quot;#arrowhead&quot;);"/><path class="edge-path-hit-test" d="M46.2421875,144L46.2421875,145.66666666666666C46.2421875,147.33333333333334,46.2421875,150.66666666666666,46.2421875,154C46.2421875,157.33333333333334,46.2421875,160.66666666666666,46.2421875,162.33333333333334L46.2421875,164" style="pointer-events: stroke; stroke-width: 0.5em; fill: none; stroke-opacity: 0;"/><path id="edge-/features/features.0/Conv_output_0" class="edge-path" d="M46.2421875,144L46.2421875,145.66666666666666C46.2421875,147.33333333333334,46.2421875,150.66666666666666,46.2421875,154C46.2421875,157.33333333333334,46.2421875,160.66666666666666,46.2421875,162.33333333333334L46.2421875,164" style="stroke: rgb(0, 0, 0); stroke-width: 1px; fill: none; marker-end: url(&quot;#arrowhead&quot;);"/><path class="edge-path-hit-test" d="M46.2421875,187L46.2421875,188.66666666666666C46.2421875,190.33333333333334,46.2421875,193.66666666666666,46.2421875,197C46.2421875,200.33333333333334,46.2421875,203.66666666666666,46.2421875,205.33333333333334L46.2421875,207" style="pointer-events: stroke; stroke-width: 0.5em; fill: none; stroke-opacity: 0;"/><path id="edge-/features/features.2/Relu_output_0" class="edge-path" d="M46.2421875,187L46.2421875,188.66666666666666C46.2421875,190.33333333333334,46.2421875,193.66666666666666,46.2421875,197C46.2421875,200.33333333333334,46.2421875,203.66666666666666,46.2421875,205.33333333333334L46.2421875,207" style="stroke: rgb(0, 0, 0); stroke-width: 1px; fill: none; marker-end: url(&quot;#arrowhead&quot;);"/><path class="edge-path-hit-test" d="M46.2421875,230L46.2421875,231.66666666666666C46.2421875,233.33333333333334,46.2421875,236.66666666666666,46.2421875,240C46.2421875,243.33333333333334,46.2421875,246.66666666666666,46.2421875,248.33333333333334L46.2421875,250" style="pointer-events: stroke; stroke-width: 0.5em; fill: none; stroke-opacity: 0;"/><path id="edge-/features/features.3/MaxPool_output_0" class="edge-path" d="M46.2421875,230L46.2421875,231.66666666666666C46.2421875,233.33333333333334,46.2421875,236.66666666666666,46.2421875,240C46.2421875,243.33333333333334,46.2421875,246.66666666666666,46.2421875,248.33333333333334L46.2421875,250" style="stroke: rgb(0, 0, 0); stroke-width: 1px; fill: none; marker-end: url(&quot;#arrowhead&quot;);"/><path class="edge-path-hit-test" d="M46.2421875,307L46.2421875,308.6666666666667C46.2421875,310.3333333333333,46.2421875,313.6666666666667,46.2421875,317C46.2421875,320.3333333333333,46.2421875,323.6666666666667,46.2421875,325.3333333333333L46.2421875,327" style="pointer-events: stroke; stroke-width: 0.5em; fill: none; stroke-opacity: 0;"/><path id="edge-/features/features.4/Conv_output_0" class="edge-path" d="M46.2421875,307L46.2421875,308.6666666666667C46.2421875,310.3333333333333,46.2421875,313.6666666666667,46.2421875,317C46.2421875,320.3333333333333,46.2421875,323.6666666666667,46.2421875,325.3333333333333L46.2421875,327" style="stroke: rgb(0, 0, 0); stroke-width: 1px; fill: none; marker-end: url(&quot;#arrowhead&quot;);"/><path class="edge-path-hit-test" d="M46.2421875,350L46.2421875,351.6666666666667C46.2421875,353.3333333333333,46.2421875,356.6666666666667,46.2421875,360C46.2421875,363.3333333333333,46.2421875,366.6666666666667,46.2421875,368.3333333333333L46.2421875,370" style="pointer-events: stroke; stroke-width: 0.5em; fill: none; stroke-opacity: 0;"/><path id="edge-/features/features.6/Relu_output_0" class="edge-path" d="M46.2421875,350L46.2421875,351.6666666666667C46.2421875,353.3333333333333,46.2421875,356.6666666666667,46.2421875,360C46.2421875,363.3333333333333,46.2421875,366.6666666666667,46.2421875,368.3333333333333L46.2421875,370" style="stroke: rgb(0, 0, 0); stroke-width: 1px; fill: none; marker-end: url(&quot;#arrowhead&quot;);"/><path class="edge-path-hit-test" d="M46.2421875,393L46.2421875,394.6666666666667C46.2421875,396.3333333333333,46.2421875,399.6666666666667,46.2421875,403C46.2421875,406.3333333333333,46.2421875,409.6666666666667,46.2421875,411.3333333333333L46.2421875,413" style="pointer-events: stroke; stroke-width: 0.5em; fill: none; stroke-opacity: 0;"/><path id="edge-/features/features.7/MaxPool_output_0" class="edge-path" d="M46.2421875,393L46.2421875,394.6666666666667C46.2421875,396.3333333333333,46.2421875,399.6666666666667,46.2421875,403C46.2421875,406.3333333333333,46.2421875,409.6666666666667,46.2421875,411.3333333333333L46.2421875,413" style="stroke: rgb(0, 0, 0); stroke-width: 1px; fill: none; marker-end: url(&quot;#arrowhead&quot;);"/><path class="edge-path-hit-test" d="M46.2421875,470L46.2421875,471.6666666666667C46.2421875,473.3333333333333,46.2421875,476.6666666666667,46.2421875,480C46.2421875,483.3333333333333,46.2421875,486.6666666666667,46.2421875,488.3333333333333L46.2421875,490" style="pointer-events: stroke; stroke-width: 0.5em; fill: none; stroke-opacity: 0;"/><path id="edge-/features/features.8/Conv_output_0" class="edge-path" d="M46.2421875,470L46.2421875,471.6666666666667C46.2421875,473.3333333333333,46.2421875,476.6666666666667,46.2421875,480C46.2421875,483.3333333333333,46.2421875,486.6666666666667,46.2421875,488.3333333333333L46.2421875,490" style="stroke: rgb(0, 0, 0); stroke-width: 1px; fill: none; marker-end: url(&quot;#arrowhead&quot;);"/><path class="edge-path-hit-test" d="M46.2421875,513L46.2421875,514.6666666666666C46.2421875,516.3333333333334,46.2421875,519.6666666666666,46.2421875,523C46.2421875,526.3333333333334,46.2421875,529.6666666666666,46.2421875,531.3333333333334L46.2421875,533" style="pointer-events: stroke; stroke-width: 0.5em; fill: none; stroke-opacity: 0;"/><path id="edge-/features/features.10/Relu_output_0" class="edge-path" d="M46.2421875,513L46.2421875,514.6666666666666C46.2421875,516.3333333333334,46.2421875,519.6666666666666,46.2421875,523C46.2421875,526.3333333333334,46.2421875,529.6666666666666,46.2421875,531.3333333333334L46.2421875,533" style="stroke: rgb(0, 0, 0); stroke-width: 1px; fill: none; marker-end: url(&quot;#arrowhead&quot;);"/><path class="edge-path-hit-test" d="M46.2421875,556L46.2421875,557.6666666666666C46.2421875,559.3333333333334,46.2421875,562.6666666666666,46.2421875,566C46.2421875,569.3333333333334,46.2421875,572.6666666666666,46.2421875,574.3333333333334L46.2421875,576" style="pointer-events: stroke; stroke-width: 0.5em; fill: none; stroke-opacity: 0;"/><path id="edge-/features/features.11/MaxPool_output_0" class="edge-path" d="M46.2421875,556L46.2421875,557.6666666666666C46.2421875,559.3333333333334,46.2421875,562.6666666666666,46.2421875,566C46.2421875,569.3333333333334,46.2421875,572.6666666666666,46.2421875,574.3333333333334L46.2421875,576" style="stroke: rgb(0, 0, 0); stroke-width: 1px; fill: none; marker-end: url(&quot;#arrowhead&quot;);"/><path class="edge-path-hit-test" d="M46.2421875,619L46.2421875,620.6666666666666C46.2421875,622.3333333333334,46.2421875,625.6666666666666,46.2421875,629C46.2421875,632.3333333333334,46.2421875,635.6666666666666,46.2421875,637.3333333333334L46.2421875,639" style="pointer-events: stroke; stroke-width: 0.5em; fill: none; stroke-opacity: 0;"/><path id="edge-/Reshape_output_0" class="edge-path" d="M46.2421875,619L46.2421875,620.6666666666666C46.2421875,622.3333333333334,46.2421875,625.6666666666666,46.2421875,629C46.2421875,632.3333333333334,46.2421875,635.6666666666666,46.2421875,637.3333333333334L46.2421875,639" style="stroke: rgb(0, 0, 0); stroke-width: 1px; fill: none; marker-end: url(&quot;#arrowhead&quot;);"/><path class="edge-path-hit-test" d="M46.2421875,696L46.2421875,697.6666666666666C46.2421875,699.3333333333334,46.2421875,702.6666666666666,46.2421875,706C46.2421875,709.3333333333334,46.2421875,712.6666666666666,46.2421875,714.3333333333334L46.2421875,716" style="pointer-events: stroke; stroke-width: 0.5em; fill: none; stroke-opacity: 0;"/><path id="edge-/classifier/classifier.0/Gemm_output_0" class="edge-path" d="M46.2421875,696L46.2421875,697.6666666666666C46.2421875,699.3333333333334,46.2421875,702.6666666666666,46.2421875,706C46.2421875,709.3333333333334,46.2421875,712.6666666666666,46.2421875,714.3333333333334L46.2421875,716" style="stroke: rgb(0, 0, 0); stroke-width: 1px; fill: none; marker-end: url(&quot;#arrowhead&quot;);"/><path class="edge-path-hit-test" d="M46.2421875,739L46.2421875,740.6666666666666C46.2421875,742.3333333333334,46.2421875,745.6666666666666,46.2421875,749C46.2421875,752.3333333333334,46.2421875,755.6666666666666,46.2421875,757.3333333333334L46.2421875,759" style="pointer-events: stroke; stroke-width: 0.5em; fill: none; stroke-opacity: 0;"/><path id="edge-/classifier/classifier.1/Relu_output_0" class="edge-path" d="M46.2421875,739L46.2421875,740.6666666666666C46.2421875,742.3333333333334,46.2421875,745.6666666666666,46.2421875,749C46.2421875,752.3333333333334,46.2421875,755.6666666666666,46.2421875,757.3333333333334L46.2421875,759" style="stroke: rgb(0, 0, 0); stroke-width: 1px; fill: none; marker-end: url(&quot;#arrowhead&quot;);"/><path class="edge-path-hit-test" d="M46.2421875,816L46.2421875,817.6666666666666C46.2421875,819.3333333333334,46.2421875,822.6666666666666,46.2421875,826C46.2421875,829.3333333333334,46.2421875,832.6666666666666,46.2421875,834.3333333333334L46.2421875,836" style="pointer-events: stroke; stroke-width: 0.5em; fill: none; stroke-opacity: 0;"/><path id="edge-/classifier/classifier.3/Gemm_output_0" class="edge-path" d="M46.2421875,816L46.2421875,817.6666666666666C46.2421875,819.3333333333334,46.2421875,822.6666666666666,46.2421875,826C46.2421875,829.3333333333334,46.2421875,832.6666666666666,46.2421875,834.3333333333334L46.2421875,836" style="stroke: rgb(0, 0, 0); stroke-width: 1px; fill: none; marker-end: url(&quot;#arrowhead&quot;);"/><path class="edge-path-hit-test" d="M46.2421875,859L46.2421875,862.6666666666666C46.2421875,866.3333333333334,46.2421875,873.6666666666666,46.2421875,881C46.2421875,888.3333333333334,46.2421875,895.6666666666666,46.2421875,899.3333333333334L46.2421875,903" style="pointer-events: stroke; stroke-width: 0.5em; fill: none; stroke-opacity: 0;"/><path id="edge-49" class="edge-path" d="M46.2421875,859L46.2421875,862.6666666666666C46.2421875,866.3333333333334,46.2421875,873.6666666666666,46.2421875,881C46.2421875,888.3333333333334,46.2421875,895.6666666666666,46.2421875,899.3333333333334L46.2421875,903" style="stroke: rgb(0, 0, 0); stroke-width: 1px; fill: none; marker-end: url(&quot;#arrowhead&quot;);"/></g><g id="edge-labels" class="edge-labels"><text class="edge-label" id="edge-label-edge-input.1" style="opacity: 1; font-family: -apple-system, BlinkMacSystemFont, &quot;Segoe WPC&quot;, &quot;Segoe UI&quot;, Ubuntu, &quot;Droid Sans&quot;, sans-serif, &quot;PingFang SC&quot;; font-size: 10px;" transform="translate(51.2421875,48)"><tspan xml:space="preserve" dy="1em" x="1">1×3×124×124</tspan></text><text class="edge-label" id="edge-label-edge-49" style="opacity: 1; font-family: -apple-system, BlinkMacSystemFont, &quot;Segoe WPC&quot;, &quot;Segoe UI&quot;, Ubuntu, &quot;Droid Sans&quot;, sans-serif, &quot;PingFang SC&quot;; font-size: 10px;" transform="translate(51.2421875,874)"><tspan xml:space="preserve" dy="1em" x="1">1×2</tspan></text></g><g id="nodes" class="nodes"><g id="input-name-input.1" class="node graph-input" transform="translate(22.4296875,0)" style="opacity: 1;"><g class="node-item graph-item-input" transform="translate(0,0)"><path d="M5,0h37.625a5,5 0 0 1 5,5v13a5,5 0 0 1 -5,5h-37.625a5,5 0 0 1 -5,-5v-13a5,5 0 0 1 5,-5z" style="stroke: rgb(0, 0, 0); fill: rgb(238, 238, 238); stroke-width: 0;"/><text x="6" y="16" style="font-family: -apple-system, BlinkMacSystemFont, &quot;Segoe WPC&quot;, &quot;Segoe UI&quot;, Ubuntu, &quot;Droid Sans&quot;, sans-serif, &quot;PingFang SC&quot;; font-size: 11px; text-rendering: geometricprecision;">input.1</text><title>float32[1,3,124,124]</title></g><path class="node border" d="M5,0h37.625a5,5 0 0 1 5,5v13a5,5 0 0 1 -5,5h-37.625a5,5 0 0 1 -5,-5v-13a5,5 0 0 1 5,-5z" style="stroke: rgb(51, 51, 51); fill: none; stroke-width: 1px;"/></g><g id="node-name-/features/features.0/Conv" class="node graph-node" transform="translate(4.8515625,87)" style="opacity: 1;"><g class="node-item node-item-type node-item-type-layer" transform="translate(0,0)"><path d="M5,0h72.78125a5,5 0 0 1 5,5v18a0,0 0 0 1 0,0h-82.78125a0,0 0 0 1 0,0v-18a5,5 0 0 1 5,-5z" style="stroke: rgb(0, 0, 0); fill: rgb(51, 85, 136); stroke-width: 0;"/><text x="6" y="16" style="font-family: -apple-system, BlinkMacSystemFont, &quot;Segoe WPC&quot;, &quot;Segoe UI&quot;, Ubuntu, &quot;Droid Sans&quot;, sans-serif, &quot;PingFang SC&quot;; font-size: 11px; text-rendering: geometricprecision; fill: rgb(255, 255, 255);">Conv</text><title>/features/features.0/Conv</title></g><g class="node-attribute" transform="translate(0,23)"><path d="M0,0h82.78125a0,0 0 0 1 0,0v29a5,5 0 0 1 -5,5h-72.78125a5,5 0 0 1 -5,-5v-29a0,0 0 0 1 0,0z" style="stroke: rgb(0, 0, 0); fill: rgb(255, 255, 255); stroke-width: 0;"/><text id="initializer-onnx::Conv_51" xml:space="preserve" x="6" y="14" style="font-family: -apple-system, BlinkMacSystemFont, &quot;Segoe WPC&quot;, &quot;Segoe UI&quot;, Ubuntu, &quot;Droid Sans&quot;, sans-serif, &quot;PingFang SC&quot;; font-size: 9px; font-weight: normal; text-rendering: geometricprecision;"><title>float32[32,3,3,3]</title><tspan style="font-weight: bold;">W</tspan><tspan>〈32×3×3×3〉</tspan></text><text id="initializer-onnx::Conv_52" xml:space="preserve" x="6" y="28" style="font-family: -apple-system, BlinkMacSystemFont, &quot;Segoe WPC&quot;, &quot;Segoe UI&quot;, Ubuntu, &quot;Droid Sans&quot;, sans-serif, &quot;PingFang SC&quot;; font-size: 9px; font-weight: normal; text-rendering: geometricprecision;"><title>float32[32]</title><tspan style="font-weight: bold;">B</tspan><tspan>〈32〉</tspan></text><line class="node" x1="0" x2="82.78125" y1="0" y2="0" style="stroke: rgb(51, 51, 51); fill: none; stroke-width: 1px;"/></g><path class="node border" d="M5,0h72.78125a5,5 0 0 1 5,5v47a5,5 0 0 1 -5,5h-72.78125a5,5 0 0 1 -5,-5v-47a5,5 0 0 1 5,-5z" style="stroke: rgb(51, 51, 51); fill: none; stroke-width: 1px;"/></g><g id="node-name-/features/features.2/Relu" class="node graph-node" transform="translate(28.7890625,164)" style="opacity: 1;"><g class="node-item node-item-type node-item-type-activation" transform="translate(0,0)"><path d="M5,0h24.90625a5,5 0 0 1 5,5v13a5,5 0 0 1 -5,5h-24.90625a5,5 0 0 1 -5,-5v-13a5,5 0 0 1 5,-5z" style="stroke: rgb(0, 0, 0); fill: rgb(112, 41, 33); stroke-width: 0;"/><text x="6" y="16" style="font-family: -apple-system, BlinkMacSystemFont, &quot;Segoe WPC&quot;, &quot;Segoe UI&quot;, Ubuntu, &quot;Droid Sans&quot;, sans-serif, &quot;PingFang SC&quot;; font-size: 11px; text-rendering: geometricprecision; fill: rgb(255, 255, 255);">Relu</text><title>/features/features.2/Relu</title></g><path class="node border" d="M5,0h24.90625a5,5 0 0 1 5,5v13a5,5 0 0 1 -5,5h-24.90625a5,5 0 0 1 -5,-5v-13a5,5 0 0 1 5,-5z" style="stroke: rgb(51, 51, 51); fill: none; stroke-width: 1px;"/></g><g id="node-name-/features/features.3/MaxPool" class="node graph-node" transform="translate(18.3203125,207)" style="opacity: 1;"><g class="node-item node-item-type node-item-type-pool" transform="translate(0,0)"><path d="M5,0h45.84375a5,5 0 0 1 5,5v13a5,5 0 0 1 -5,5h-45.84375a5,5 0 0 1 -5,-5v-13a5,5 0 0 1 5,-5z" style="stroke: rgb(0, 0, 0); fill: rgb(51, 85, 51); stroke-width: 0;"/><text x="6" y="16" style="font-family: -apple-system, BlinkMacSystemFont, &quot;Segoe WPC&quot;, &quot;Segoe UI&quot;, Ubuntu, &quot;Droid Sans&quot;, sans-serif, &quot;PingFang SC&quot;; font-size: 11px; text-rendering: geometricprecision; fill: rgb(255, 255, 255);">MaxPool</text><title>/features/features.3/MaxPool</title></g><path class="node border" d="M5,0h45.84375a5,5 0 0 1 5,5v13a5,5 0 0 1 -5,5h-45.84375a5,5 0 0 1 -5,-5v-13a5,5 0 0 1 5,-5z" style="stroke: rgb(51, 51, 51); fill: none; stroke-width: 1px;"/></g><g id="node-name-/features/features.4/Conv" class="node graph-node" transform="translate(2.421875,250)" style="opacity: 1;"><g class="node-item node-item-type node-item-type-layer" transform="translate(0,0)"><path d="M5,0h77.640625a5,5 0 0 1 5,5v18a0,0 0 0 1 0,0h-87.640625a0,0 0 0 1 0,0v-18a5,5 0 0 1 5,-5z" style="stroke: rgb(0, 0, 0); fill: rgb(51, 85, 136); stroke-width: 0;"/><text x="6" y="16" style="font-family: -apple-system, BlinkMacSystemFont, &quot;Segoe WPC&quot;, &quot;Segoe UI&quot;, Ubuntu, &quot;Droid Sans&quot;, sans-serif, &quot;PingFang SC&quot;; font-size: 11px; text-rendering: geometricprecision; fill: rgb(255, 255, 255);">Conv</text><title>/features/features.4/Conv</title></g><g class="node-attribute" transform="translate(0,23)"><path d="M0,0h87.640625a0,0 0 0 1 0,0v29a5,5 0 0 1 -5,5h-77.640625a5,5 0 0 1 -5,-5v-29a0,0 0 0 1 0,0z" style="stroke: rgb(0, 0, 0); fill: rgb(255, 255, 255); stroke-width: 0;"/><text id="initializer-onnx::Conv_54" xml:space="preserve" x="6" y="14" style="font-family: -apple-system, BlinkMacSystemFont, &quot;Segoe WPC&quot;, &quot;Segoe UI&quot;, Ubuntu, &quot;Droid Sans&quot;, sans-serif, &quot;PingFang SC&quot;; font-size: 9px; font-weight: normal; text-rendering: geometricprecision;"><title>float32[64,32,3,3]</title><tspan style="font-weight: bold;">W</tspan><tspan>〈64×32×3×3〉</tspan></text><text id="initializer-onnx::Conv_55" xml:space="preserve" x="6" y="28" style="font-family: -apple-system, BlinkMacSystemFont, &quot;Segoe WPC&quot;, &quot;Segoe UI&quot;, Ubuntu, &quot;Droid Sans&quot;, sans-serif, &quot;PingFang SC&quot;; font-size: 9px; font-weight: normal; text-rendering: geometricprecision;"><title>float32[64]</title><tspan style="font-weight: bold;">B</tspan><tspan>〈64〉</tspan></text><line class="node" x1="0" x2="87.640625" y1="0" y2="0" style="stroke: rgb(51, 51, 51); fill: none; stroke-width: 1px;"/></g><path class="node border" d="M5,0h77.640625a5,5 0 0 1 5,5v47a5,5 0 0 1 -5,5h-77.640625a5,5 0 0 1 -5,-5v-47a5,5 0 0 1 5,-5z" style="stroke: rgb(51, 51, 51); fill: none; stroke-width: 1px;"/></g><g id="node-name-/features/features.6/Relu" class="node graph-node" transform="translate(28.7890625,327)" style="opacity: 1;"><g class="node-item node-item-type node-item-type-activation" transform="translate(0,0)"><path d="M5,0h24.90625a5,5 0 0 1 5,5v13a5,5 0 0 1 -5,5h-24.90625a5,5 0 0 1 -5,-5v-13a5,5 0 0 1 5,-5z" style="stroke: rgb(0, 0, 0); fill: rgb(112, 41, 33); stroke-width: 0;"/><text x="6" y="16" style="font-family: -apple-system, BlinkMacSystemFont, &quot;Segoe WPC&quot;, &quot;Segoe UI&quot;, Ubuntu, &quot;Droid Sans&quot;, sans-serif, &quot;PingFang SC&quot;; font-size: 11px; text-rendering: geometricprecision; fill: rgb(255, 255, 255);">Relu</text><title>/features/features.6/Relu</title></g><path class="node border" d="M5,0h24.90625a5,5 0 0 1 5,5v13a5,5 0 0 1 -5,5h-24.90625a5,5 0 0 1 -5,-5v-13a5,5 0 0 1 5,-5z" style="stroke: rgb(51, 51, 51); fill: none; stroke-width: 1px;"/></g><g id="node-name-/features/features.7/MaxPool" class="node graph-node" transform="translate(18.3203125,370)" style="opacity: 1;"><g class="node-item node-item-type node-item-type-pool" transform="translate(0,0)"><path d="M5,0h45.84375a5,5 0 0 1 5,5v13a5,5 0 0 1 -5,5h-45.84375a5,5 0 0 1 -5,-5v-13a5,5 0 0 1 5,-5z" style="stroke: rgb(0, 0, 0); fill: rgb(51, 85, 51); stroke-width: 0;"/><text x="6" y="16" style="font-family: -apple-system, BlinkMacSystemFont, &quot;Segoe WPC&quot;, &quot;Segoe UI&quot;, Ubuntu, &quot;Droid Sans&quot;, sans-serif, &quot;PingFang SC&quot;; font-size: 11px; text-rendering: geometricprecision; fill: rgb(255, 255, 255);">MaxPool</text><title>/features/features.7/MaxPool</title></g><path class="node border" d="M5,0h45.84375a5,5 0 0 1 5,5v13a5,5 0 0 1 -5,5h-45.84375a5,5 0 0 1 -5,-5v-13a5,5 0 0 1 5,-5z" style="stroke: rgb(51, 51, 51); fill: none; stroke-width: 1px;"/></g><g id="node-name-/features/features.8/Conv" class="node graph-node" transform="translate(0,413)" style="opacity: 1;"><g class="node-item node-item-type node-item-type-layer" transform="translate(0,0)"><path d="M5,0h82.484375a5,5 0 0 1 5,5v18a0,0 0 0 1 0,0h-92.484375a0,0 0 0 1 0,0v-18a5,5 0 0 1 5,-5z" style="stroke: rgb(0, 0, 0); fill: rgb(51, 85, 136); stroke-width: 0;"/><text x="6" y="16" style="font-family: -apple-system, BlinkMacSystemFont, &quot;Segoe WPC&quot;, &quot;Segoe UI&quot;, Ubuntu, &quot;Droid Sans&quot;, sans-serif, &quot;PingFang SC&quot;; font-size: 11px; text-rendering: geometricprecision; fill: rgb(255, 255, 255);">Conv</text><title>/features/features.8/Conv</title></g><g class="node-attribute" transform="translate(0,23)"><path d="M0,0h92.484375a0,0 0 0 1 0,0v29a5,5 0 0 1 -5,5h-82.484375a5,5 0 0 1 -5,-5v-29a0,0 0 0 1 0,0z" style="stroke: rgb(0, 0, 0); fill: rgb(255, 255, 255); stroke-width: 0;"/><text id="initializer-onnx::Conv_57" xml:space="preserve" x="6" y="14" style="font-family: -apple-system, BlinkMacSystemFont, &quot;Segoe WPC&quot;, &quot;Segoe UI&quot;, Ubuntu, &quot;Droid Sans&quot;, sans-serif, &quot;PingFang SC&quot;; font-size: 9px; font-weight: normal; text-rendering: geometricprecision;"><title>float32[128,64,3,3]</title><tspan style="font-weight: bold;">W</tspan><tspan>〈128×64×3×3〉</tspan></text><text id="initializer-onnx::Conv_58" xml:space="preserve" x="6" y="28" style="font-family: -apple-system, BlinkMacSystemFont, &quot;Segoe WPC&quot;, &quot;Segoe UI&quot;, Ubuntu, &quot;Droid Sans&quot;, sans-serif, &quot;PingFang SC&quot;; font-size: 9px; font-weight: normal; text-rendering: geometricprecision;"><title>float32[128]</title><tspan style="font-weight: bold;">B</tspan><tspan>〈128〉</tspan></text><line class="node" x1="0" x2="92.484375" y1="0" y2="0" style="stroke: rgb(51, 51, 51); fill: none; stroke-width: 1px;"/></g><path class="node border" d="M5,0h82.484375a5,5 0 0 1 5,5v47a5,5 0 0 1 -5,5h-82.484375a5,5 0 0 1 -5,-5v-47a5,5 0 0 1 5,-5z" style="stroke: rgb(51, 51, 51); fill: none; stroke-width: 1px;"/></g><g id="node-name-/features/features.10/Relu" class="node graph-node" transform="translate(28.7890625,490)" style="opacity: 1;"><g class="node-item node-item-type node-item-type-activation" transform="translate(0,0)"><path d="M5,0h24.90625a5,5 0 0 1 5,5v13a5,5 0 0 1 -5,5h-24.90625a5,5 0 0 1 -5,-5v-13a5,5 0 0 1 5,-5z" style="stroke: rgb(0, 0, 0); fill: rgb(112, 41, 33); stroke-width: 0;"/><text x="6" y="16" style="font-family: -apple-system, BlinkMacSystemFont, &quot;Segoe WPC&quot;, &quot;Segoe UI&quot;, Ubuntu, &quot;Droid Sans&quot;, sans-serif, &quot;PingFang SC&quot;; font-size: 11px; text-rendering: geometricprecision; fill: rgb(255, 255, 255);">Relu</text><title>/features/features.10/Relu</title></g><path class="node border" d="M5,0h24.90625a5,5 0 0 1 5,5v13a5,5 0 0 1 -5,5h-24.90625a5,5 0 0 1 -5,-5v-13a5,5 0 0 1 5,-5z" style="stroke: rgb(51, 51, 51); fill: none; stroke-width: 1px;"/></g><g id="node-name-/features/features.11/MaxPool" class="node graph-node" transform="translate(18.3203125,533)" style="opacity: 1;"><g class="node-item node-item-type node-item-type-pool" transform="translate(0,0)"><path d="M5,0h45.84375a5,5 0 0 1 5,5v13a5,5 0 0 1 -5,5h-45.84375a5,5 0 0 1 -5,-5v-13a5,5 0 0 1 5,-5z" style="stroke: rgb(0, 0, 0); fill: rgb(51, 85, 51); stroke-width: 0;"/><text x="6" y="16" style="font-family: -apple-system, BlinkMacSystemFont, &quot;Segoe WPC&quot;, &quot;Segoe UI&quot;, Ubuntu, &quot;Droid Sans&quot;, sans-serif, &quot;PingFang SC&quot;; font-size: 11px; text-rendering: geometricprecision; fill: rgb(255, 255, 255);">MaxPool</text><title>/features/features.11/MaxPool</title></g><path class="node border" d="M5,0h45.84375a5,5 0 0 1 5,5v13a5,5 0 0 1 -5,5h-45.84375a5,5 0 0 1 -5,-5v-13a5,5 0 0 1 5,-5z" style="stroke: rgb(51, 51, 51); fill: none; stroke-width: 1px;"/></g><g id="node-name-/Reshape" class="node graph-node" transform="translate(8.7421875,576)" style="opacity: 1;"><g class="node-item node-item-type node-item-type-shape" transform="translate(0,0)"><path d="M5,0h65a5,5 0 0 1 5,5v18a0,0 0 0 1 0,0h-75a0,0 0 0 1 0,0v-18a5,5 0 0 1 5,-5z" style="stroke: rgb(0, 0, 0); fill: rgb(108, 79, 71); stroke-width: 0;"/><text x="6" y="16" style="font-family: -apple-system, BlinkMacSystemFont, &quot;Segoe WPC&quot;, &quot;Segoe UI&quot;, Ubuntu, &quot;Droid Sans&quot;, sans-serif, &quot;PingFang SC&quot;; font-size: 11px; text-rendering: geometricprecision; fill: rgb(255, 255, 255);">Reshape</text><title>/Reshape</title></g><g class="node-attribute" transform="translate(0,23)"><path d="M0,0h75a0,0 0 0 1 0,0v15a5,5 0 0 1 -5,5h-65a5,5 0 0 1 -5,-5v-15a0,0 0 0 1 0,0z" style="stroke: rgb(0, 0, 0); fill: rgb(255, 255, 255); stroke-width: 0;"/><text id="initializer-/Constant_output_0" xml:space="preserve" x="6" y="14" style="font-family: -apple-system, BlinkMacSystemFont, &quot;Segoe WPC&quot;, &quot;Segoe UI&quot;, Ubuntu, &quot;Droid Sans&quot;, sans-serif, &quot;PingFang SC&quot;; font-size: 9px; font-weight: normal; text-rendering: geometricprecision;"><title>int64[2]</title><tspan style="font-weight: bold;">shape</tspan><tspan>〈2〉</tspan></text><line class="node" x1="0" x2="75" y1="0" y2="0" style="stroke: rgb(51, 51, 51); fill: none; stroke-width: 1px;"/></g><path class="node border" d="M5,0h65a5,5 0 0 1 5,5v33a5,5 0 0 1 -5,5h-65a5,5 0 0 1 -5,-5v-33a5,5 0 0 1 5,-5z" style="stroke: rgb(51, 51, 51); fill: none; stroke-width: 1px;"/></g><g id="node-name-/classifier/classifier.0/Gemm" class="node graph-node" transform="translate(3.4375,639)" style="opacity: 1;"><g class="node-item node-item-type node-item-type-layer" transform="translate(0,0)"><path d="M5,0h75.609375a5,5 0 0 1 5,5v18a0,0 0 0 1 0,0h-85.609375a0,0 0 0 1 0,0v-18a5,5 0 0 1 5,-5z" style="stroke: rgb(0, 0, 0); fill: rgb(51, 85, 136); stroke-width: 0;"/><text x="6" y="16" style="font-family: -apple-system, BlinkMacSystemFont, &quot;Segoe WPC&quot;, &quot;Segoe UI&quot;, Ubuntu, &quot;Droid Sans&quot;, sans-serif, &quot;PingFang SC&quot;; font-size: 11px; text-rendering: geometricprecision; fill: rgb(255, 255, 255);">Gemm</text><title>/classifier/classifier.0/Gemm</title></g><g class="node-attribute" transform="translate(0,23)"><path d="M0,0h85.609375a0,0 0 0 1 0,0v29a5,5 0 0 1 -5,5h-75.609375a5,5 0 0 1 -5,-5v-29a0,0 0 0 1 0,0z" style="stroke: rgb(0, 0, 0); fill: rgb(255, 255, 255); stroke-width: 0;"/><text id="initializer-classifier.0.weight" xml:space="preserve" x="6" y="14" style="font-family: -apple-system, BlinkMacSystemFont, &quot;Segoe WPC&quot;, &quot;Segoe UI&quot;, Ubuntu, &quot;Droid Sans&quot;, sans-serif, &quot;PingFang SC&quot;; font-size: 9px; font-weight: normal; text-rendering: geometricprecision;"><title>float32[2048,28800]</title><tspan style="font-weight: bold;">B</tspan><tspan>〈2048×28800〉</tspan></text><text id="initializer-classifier.0.bias" xml:space="preserve" x="6" y="28" style="font-family: -apple-system, BlinkMacSystemFont, &quot;Segoe WPC&quot;, &quot;Segoe UI&quot;, Ubuntu, &quot;Droid Sans&quot;, sans-serif, &quot;PingFang SC&quot;; font-size: 9px; font-weight: normal; text-rendering: geometricprecision;"><title>float32[2048]</title><tspan style="font-weight: bold;">C</tspan><tspan>〈2048〉</tspan></text><line class="node" x1="0" x2="85.609375" y1="0" y2="0" style="stroke: rgb(51, 51, 51); fill: none; stroke-width: 1px;"/></g><path class="node border" d="M5,0h75.609375a5,5 0 0 1 5,5v47a5,5 0 0 1 -5,5h-75.609375a5,5 0 0 1 -5,-5v-47a5,5 0 0 1 5,-5z" style="stroke: rgb(51, 51, 51); fill: none; stroke-width: 1px;"/></g><g id="node-name-/classifier/classifier.1/Relu" class="node graph-node" transform="translate(28.7890625,716)" style="opacity: 1;"><g class="node-item node-item-type node-item-type-activation" transform="translate(0,0)"><path d="M5,0h24.90625a5,5 0 0 1 5,5v13a5,5 0 0 1 -5,5h-24.90625a5,5 0 0 1 -5,-5v-13a5,5 0 0 1 5,-5z" style="stroke: rgb(0, 0, 0); fill: rgb(112, 41, 33); stroke-width: 0;"/><text x="6" y="16" style="font-family: -apple-system, BlinkMacSystemFont, &quot;Segoe WPC&quot;, &quot;Segoe UI&quot;, Ubuntu, &quot;Droid Sans&quot;, sans-serif, &quot;PingFang SC&quot;; font-size: 11px; text-rendering: geometricprecision; fill: rgb(255, 255, 255);">Relu</text><title>/classifier/classifier.1/Relu</title></g><path class="node border" d="M5,0h24.90625a5,5 0 0 1 5,5v13a5,5 0 0 1 -5,5h-24.90625a5,5 0 0 1 -5,-5v-13a5,5 0 0 1 5,-5z" style="stroke: rgb(51, 51, 51); fill: none; stroke-width: 1px;"/></g><g id="node-name-/classifier/classifier.3/Gemm" class="node graph-node" transform="translate(8.7421875,759)" style="opacity: 1;"><g class="node-item node-item-type node-item-type-layer" transform="translate(0,0)"><path d="M5,0h65a5,5 0 0 1 5,5v18a0,0 0 0 1 0,0h-75a0,0 0 0 1 0,0v-18a5,5 0 0 1 5,-5z" style="stroke: rgb(0, 0, 0); fill: rgb(51, 85, 136); stroke-width: 0;"/><text x="6" y="16" style="font-family: -apple-system, BlinkMacSystemFont, &quot;Segoe WPC&quot;, &quot;Segoe UI&quot;, Ubuntu, &quot;Droid Sans&quot;, sans-serif, &quot;PingFang SC&quot;; font-size: 11px; text-rendering: geometricprecision; fill: rgb(255, 255, 255);">Gemm</text><title>/classifier/classifier.3/Gemm</title></g><g class="node-attribute" transform="translate(0,23)"><path d="M0,0h75a0,0 0 0 1 0,0v29a5,5 0 0 1 -5,5h-65a5,5 0 0 1 -5,-5v-29a0,0 0 0 1 0,0z" style="stroke: rgb(0, 0, 0); fill: rgb(255, 255, 255); stroke-width: 0;"/><text id="initializer-classifier.3.weight" xml:space="preserve" x="6" y="14" style="font-family: -apple-system, BlinkMacSystemFont, &quot;Segoe WPC&quot;, &quot;Segoe UI&quot;, Ubuntu, &quot;Droid Sans&quot;, sans-serif, &quot;PingFang SC&quot;; font-size: 9px; font-weight: normal; text-rendering: geometricprecision;"><title>float32[2,2048]</title><tspan style="font-weight: bold;">B</tspan><tspan>〈2×2048〉</tspan></text><text id="initializer-classifier.3.bias" xml:space="preserve" x="6" y="28" style="font-family: -apple-system, BlinkMacSystemFont, &quot;Segoe WPC&quot;, &quot;Segoe UI&quot;, Ubuntu, &quot;Droid Sans&quot;, sans-serif, &quot;PingFang SC&quot;; font-size: 9px; font-weight: normal; text-rendering: geometricprecision;"><title>float32[2]</title><tspan style="font-weight: bold;">C</tspan><tspan>〈2〉</tspan></text><line class="node" x1="0" x2="75" y1="0" y2="0" style="stroke: rgb(51, 51, 51); fill: none; stroke-width: 1px;"/></g><path class="node border" d="M5,0h65a5,5 0 0 1 5,5v47a5,5 0 0 1 -5,5h-65a5,5 0 0 1 -5,-5v-47a5,5 0 0 1 5,-5z" style="stroke: rgb(51, 51, 51); fill: none; stroke-width: 1px;"/></g><g id="node-name-/classifier/classifier.4/Softmax" class="node graph-node" transform="translate(18.976806640625,836)" style="opacity: 1;"><g class="node-item node-item-type node-item-type-activation" transform="translate(0,0)"><path d="M5,0h44.53076171875a5,5 0 0 1 5,5v13a5,5 0 0 1 -5,5h-44.53076171875a5,5 0 0 1 -5,-5v-13a5,5 0 0 1 5,-5z" style="stroke: rgb(0, 0, 0); fill: rgb(112, 41, 33); stroke-width: 0;"/><text x="6" y="16" style="font-family: -apple-system, BlinkMacSystemFont, &quot;Segoe WPC&quot;, &quot;Segoe UI&quot;, Ubuntu, &quot;Droid Sans&quot;, sans-serif, &quot;PingFang SC&quot;; font-size: 11px; text-rendering: geometricprecision; fill: rgb(255, 255, 255);">Softmax</text><title>/classifier/classifier.4/Softmax</title></g><path class="node border" d="M5,0h44.53076171875a5,5 0 0 1 5,5v13a5,5 0 0 1 -5,5h-44.53076171875a5,5 0 0 1 -5,-5v-13a5,5 0 0 1 5,-5z" style="stroke: rgb(51, 51, 51); fill: none; stroke-width: 1px;"/></g><g class="node" transform="translate(32.77734375,903)" style="opacity: 1;"><g class="node-item graph-item-output" transform="translate(0,0)"><path d="M5,0h16.9296875a5,5 0 0 1 5,5v13a5,5 0 0 1 -5,5h-16.9296875a5,5 0 0 1 -5,-5v-13a5,5 0 0 1 5,-5z" style="stroke: rgb(0, 0, 0); fill: rgb(238, 238, 238); stroke-width: 0;"/><text x="6" y="16" style="font-family: -apple-system, BlinkMacSystemFont, &quot;Segoe WPC&quot;, &quot;Segoe UI&quot;, Ubuntu, &quot;Droid Sans&quot;, sans-serif, &quot;PingFang SC&quot;; font-size: 11px; text-rendering: geometricprecision;">49</text><title>float32[1,2]</title></g><path class="node border" d="M5,0h16.9296875a5,5 0 0 1 5,5v13a5,5 0 0 1 -5,5h-16.9296875a5,5 0 0 1 -5,-5v-13a5,5 0 0 1 5,-5z" style="stroke: rgb(51, 51, 51); fill: none; stroke-width: 1px;"/></g></g></g></svg>