<?xml version="1.0" encoding="UTF-8" standalone="no"?>
<svg
   xmlns:dc="http://purl.org/dc/elements/1.1/"
   xmlns:cc="http://creativecommons.org/ns#"
   xmlns:rdf="http://www.w3.org/1999/02/22-rdf-syntax-ns#"
   xmlns:svg="http://www.w3.org/2000/svg"
   xmlns="http://www.w3.org/2000/svg"
   viewBox="0 0 900.00009 405.00001"
   height="4.5in"
   width="10in"
   version="1.1"
   id="svg8068">
  <metadata
     id="metadata8074">
    <rdf:RDF>
      <cc:Work
         rdf:about="">
        <dc:format>image/svg+xml</dc:format>
        <dc:type
           rdf:resource="http://purl.org/dc/dcmitype/StillImage" />
        <dc:title></dc:title>
      </cc:Work>
    </rdf:RDF>
  </metadata>
  <defs
     id="defs8072">
    <marker
       style="overflow:visible"
       id="marker8593"
       refX="0"
       refY="0"
       orient="auto">
      <path
         transform="matrix(-0.8,0,0,-0.8,-10,0)"
         style="fill:#000000;fill-opacity:1;fill-rule:evenodd;stroke:#000000;stroke-width:1pt;stroke-opacity:1"
         d="M 0,0 5,-5 -12.5,0 5,5 0,0 Z"
         id="path8595" />
    </marker>
    <marker
       style="overflow:visible"
       id="Arrow1Lend"
       refX="0"
       refY="0"
       orient="auto">
      <path
         transform="matrix(-0.8,0,0,-0.8,-10,0)"
         style="fill:#000000;fill-opacity:1;fill-rule:evenodd;stroke:#000000;stroke-width:1pt;stroke-opacity:1"
         d="M 0,0 5,-5 -12.5,0 5,5 0,0 Z"
         id="path8121" />
    </marker>
    <marker
       style="overflow:visible"
       id="DotM"
       refX="0"
       refY="0"
       orient="auto">
      <path
         transform="matrix(0.4,0,0,0.4,2.96,0.4)"
         style="fill:#800000;fill-opacity:1;fill-rule:evenodd;stroke:#800000;stroke-width:1pt;stroke-opacity:1"
         d="m -2.5,-1 c 0,2.76 -2.24,5 -5,5 -2.76,0 -5,-2.24 -5,-5 0,-2.76 2.24,-5 5,-5 2.76,0 5,2.24 5,5 z"
         id="path8182" />
    </marker>
    <marker
       style="overflow:visible"
       id="DotM-5"
       refX="0"
       refY="0"
       orient="auto">
      <path
         transform="matrix(0.4,0,0,0.4,2.96,0.4)"
         style="fill:#800000;fill-opacity:1;fill-rule:evenodd;stroke:#800000;stroke-width:1pt;stroke-opacity:1"
         d="m -2.5,-1 c 0,2.76 -2.24,5 -5,5 -2.76,0 -5,-2.24 -5,-5 0,-2.76 2.24,-5 5,-5 2.76,0 5,2.24 5,5 z"
         id="path8182-0" />
    </marker>
    <marker
       style="overflow:visible"
       id="Arrow1Lend-1"
       refX="0"
       refY="0"
       orient="auto">
      <path
         transform="matrix(-0.8,0,0,-0.8,-10,0)"
         style="fill:#000000;fill-opacity:1;fill-rule:evenodd;stroke:#000000;stroke-width:1pt;stroke-opacity:1"
         d="M 0,0 5,-5 -12.5,0 5,5 0,0 Z"
         id="path8121-0" />
    </marker>
    <marker
       style="overflow:visible"
       id="marker8593-4"
       refX="0"
       refY="0"
       orient="auto">
      <path
         transform="matrix(-0.8,0,0,-0.8,-10,0)"
         style="fill:#000000;fill-opacity:1;fill-rule:evenodd;stroke:#000000;stroke-width:1pt;stroke-opacity:1"
         d="M 0,0 5,-5 -12.5,0 5,5 0,0 Z"
         id="path8595-1" />
    </marker>
  </defs>
  <path
     id="path8097-6-7"
     d="m 205.95404,389.21717 0,-371.614322"
     style="fill:none;fill-rule:evenodd;stroke:#000000;stroke-width:1;stroke-linecap:butt;stroke-linejoin:miter;stroke-miterlimit:4;stroke-dasharray:none;stroke-opacity:1;marker-end:url(#Arrow1Lend-1)" />
  <path
     id="path8097-0-5-8"
     d="m 18.635033,203.41001 371.614327,0"
     style="fill:none;fill-rule:evenodd;stroke:#000000;stroke-width:1;stroke-linecap:butt;stroke-linejoin:miter;stroke-miterlimit:4;stroke-dasharray:none;stroke-opacity:1;marker-end:url(#marker8593-4)" />
  <path
     style="font-style:normal;font-variant:normal;font-weight:normal;font-stretch:normal;letter-spacing:normal;word-spacing:normal;text-anchor:start;fill:#000000;fill-opacity:1;fill-rule:evenodd;stroke:#000000;stroke-width:0;stroke-linecap:butt;stroke-linejoin:miter;stroke-miterlimit:10.43299961;stroke-dasharray:none;stroke-dashoffset:0;stroke-opacity:1"
     id="path8477-3"
     d="m 387.57404,183.17188 0.0117,-0.0585 0.0117,-0.0643 0.0175,-0.0702 0.0175,-0.0643 0.0175,-0.0701 0.0175,-0.0702 0.0351,-0.14614 0.0351,-0.14614 0.0351,-0.14615 0.0351,-0.14029 0.0351,-0.14615 0.0175,-0.0643 0.0175,-0.0702 0.0175,-0.0643 0.0117,-0.0643 0.0175,-0.0585 0.0117,-0.0585 0.0117,-0.0585 0.0117,-0.0526 0.0117,-0.0468 0.0117,-0.0468 0.006,-0.0409 0.006,-0.0351 0.006,-0.0351 0.006,-0.0292 0,-0.0234 0.006,-0.0175 c 0,-0.53196 -0.41505,-0.78917 -0.85348,-0.78917 -0.3449,0 -0.86516,0.22799 -1.06976,0.81256 -0.0877,0.2046 -1.46143,5.76387 -1.66019,6.52381 -0.21044,0.87686 -0.26305,1.39713 -0.26305,1.92909 0,0.31567 0,0.37413 0.0234,0.52027 -0.66641,1.54327 -1.54327,2.44351 -2.67149,2.44351 -2.33244,0 -2.33244,-2.15123 -2.33244,-2.64811 0,-0.92947 0.14614,-2.06938 1.51988,-5.65281 0.31567,-0.86516 0.49104,-1.28021 0.49104,-1.86478 0,-1.30359 -0.95869,-2.37921 -2.39089,-2.37921 -2.77087,0 -3.84648,4.21476 -3.84648,4.48367 0,0.29228 0.29228,0.29228 0.35658,0.29228 0.29229,0 0.31567,-0.0643 0.46182,-0.53196 0.78917,-2.70072 1.91739,-3.6068 2.94039,-3.6068 0.25721,0 0.73071,0.0292 0.73071,0.95869 0,0.73072 -0.32736,1.54327 -0.52611,2.03431 -1.28021,3.43728 -1.62511,4.7818 -1.62511,5.88664 0,2.64811 1.94662,3.67111 4.12708,3.67111 0.50273,0 1.86478,0 3.03392,-2.04016 0.7541,1.86478 2.76502,2.04016 3.64188,2.04016 2.1863,0 3.46066,-1.83556 4.22061,-3.58343 0.98792,-2.27398 1.91739,-6.17307 1.91739,-7.5702 0,-1.60757 -0.78332,-2.03431 -1.28021,-2.03431 -0.73071,0 -1.44974,0.7541 -1.44974,1.39713 0,0.37413 0.17537,0.54365 0.42674,0.78333 0.32151,0.32151 1.05223,1.07561 1.05223,2.47273 0,0.98793 -0.84178,3.84648 -1.59588,5.32545 -0.75994,1.54327 -1.78294,2.56627 -3.2093,2.56627 -1.3679,0 -2.15707,-0.87686 -2.15707,-2.52535 0,-0.82425 0.2046,-1.73033 0.32152,-2.12784 z" />
  <path
     style="font-style:normal;font-variant:normal;font-weight:normal;font-stretch:normal;letter-spacing:normal;word-spacing:normal;text-anchor:start;fill:#000000;fill-opacity:1;fill-rule:evenodd;stroke:#000000;stroke-width:0;stroke-linecap:butt;stroke-linejoin:miter;stroke-miterlimit:10.43299961;stroke-dasharray:none;stroke-dashoffset:0;stroke-opacity:1"
     id="path8479-4"
     d="m 401.77328,184.4404 0,-0.0234 0,-0.0234 0,-0.0292 0,-0.0234 0,-0.0175 0,-0.0234 0,-0.0234 0,-0.0175 0,-0.0234 -0.006,-0.0175 0,-0.0175 0,-0.0175 0,-0.0175 -0.006,-0.0175 0,-0.0175 0,-0.0117 -0.006,-0.0175 0,-0.0117 -0.006,-0.0175 0,-0.0117 -0.006,-0.0234 -0.0117,-0.0234 -0.0117,-0.0175 -0.0117,-0.0175 -0.0117,-0.0175 -0.0117,-0.0175 -0.0175,-0.0117 -0.0175,-0.0117 -0.0175,-0.0117 -0.0234,-0.006 -0.0234,-0.006 -0.0292,-0.0117 -0.0117,0 -0.0117,0 -0.0175,-0.006 -0.0175,0 -0.0117,-0.006 -0.0175,0 -0.0175,0 -0.0175,0 -0.0175,0 -0.0234,-0.006 -0.0175,0 -0.0234,0 -0.0175,0 -0.0234,0 -0.0234,0 -0.0234,0 -0.0234,0 -0.0292,0 -0.0234,0 -0.0234,0 c -1.30944,1.28606 -3.15668,1.30359 -3.99262,1.30359 l 0,0.73072 c 0.49104,0 1.83555,0 2.94624,-0.56704 l 0,10.38784 c 0,0.6781 0,0.94116 -2.03431,0.94116 l -0.76579,0 0,0.73071 c 0.36244,-0.0175 2.8644,-0.0818 3.62435,-0.0818 0.63133,0 3.1976,0.0643 3.64188,0.0818 l 0,-0.73071 -0.77164,0 c -2.04015,0 -2.04015,-0.26306 -2.04015,-0.94116 z" />
  <path
     style="font-style:normal;font-variant:normal;font-weight:normal;font-stretch:normal;letter-spacing:normal;word-spacing:normal;text-anchor:start;fill:#000000;fill-opacity:1;fill-rule:evenodd;stroke:#000000;stroke-width:0;stroke-linecap:butt;stroke-linejoin:miter;stroke-miterlimit:10.43299961;stroke-dasharray:none;stroke-dashoffset:0;stroke-opacity:1"
     d="m 176.21644,29.210933 0.0117,-0.05846 0.0117,-0.0643 0.0175,-0.07015 0.0175,-0.0643 0.0175,-0.07015 0.0175,-0.07015 0.0351,-0.146143 0.0351,-0.146143 0.0351,-0.146143 0.0351,-0.140297 0.0351,-0.146143 0.0175,-0.0643 0.0175,-0.07015 0.0175,-0.0643 0.0117,-0.0643 0.0175,-0.05846 0.0117,-0.05846 0.0117,-0.05846 0.0117,-0.05261 0.0117,-0.04676 0.0117,-0.04677 0.006,-0.04092 0.006,-0.03507 0.006,-0.03508 0.006,-0.02923 0,-0.02338 0.006,-0.01754 c 0,-0.53196 -0.41505,-0.789172 -0.85348,-0.789172 -0.3449,0 -0.86516,0.227983 -1.06976,0.812555 -0.0877,0.2046 -1.46143,5.763874 -1.66019,6.523817 -0.21044,0.876857 -0.26305,1.397126 -0.26305,1.929086 0,0.315668 0,0.374125 0.0234,0.520268 -0.66641,1.543269 -1.54327,2.443509 -2.67149,2.443509 -2.33244,0 -2.33244,-2.151223 -2.33244,-2.648109 0,-0.929468 0.14614,-2.069383 1.51988,-5.652806 0.31567,-0.865165 0.49104,-1.280211 0.49104,-1.864783 0,-1.303594 -0.95869,-2.379205 -2.39089,-2.379205 -2.77087,0 -3.84648,4.21476 -3.84648,4.483663 0,0.292285 0.29228,0.292285 0.35658,0.292285 0.29229,0 0.31567,-0.0643 0.46182,-0.53196 0.78917,-2.70072 1.91739,-3.606805 2.94039,-3.606805 0.25721,0 0.73071,0.02923 0.73071,0.958697 0,0.730714 -0.32736,1.543268 -0.52611,2.034308 -1.28021,3.43728 -1.62511,4.781795 -1.62511,5.886635 0,2.648108 1.94662,3.671108 4.12708,3.671108 0.50273,0 1.86478,0 3.03392,-2.040154 0.7541,1.864783 2.76502,2.040154 3.64188,2.040154 2.1863,0 3.46066,-1.835554 4.22061,-3.583423 0.98792,-2.273982 1.91739,-6.173074 1.91739,-7.5702 0,-1.607571 -0.78332,-2.034308 -1.28021,-2.034308 -0.73071,0 -1.44974,0.754097 -1.44974,1.397125 0,0.374126 0.17537,0.543652 0.42674,0.783326 0.32151,0.321514 1.05223,1.075612 1.05223,2.472737 0,0.987926 -0.84178,3.84648 -1.59588,5.325446 -0.75994,1.543269 -1.78294,2.566269 -3.2093,2.566269 -1.3679,0 -2.15707,-0.876857 -2.15707,-2.525349 0,-0.824246 0.2046,-1.730331 0.32152,-2.12784 z"
     id="path8551-0" />
  <path
     style="font-style:normal;font-variant:normal;font-weight:normal;font-stretch:normal;letter-spacing:normal;word-spacing:normal;text-anchor:start;fill:#000000;fill-opacity:1;fill-rule:evenodd;stroke:#000000;stroke-width:0;stroke-linecap:butt;stroke-linejoin:miter;stroke-miterlimit:10.43299961;stroke-dasharray:none;stroke-dashoffset:0;stroke-opacity:1"
     d="m 193.87634,39.721528 -0.68979,0 c -0.0585,0.45012 -0.26891,1.654337 -0.53196,1.858937 -0.15784,0.116914 -1.72449,0.116914 -2.01093,0.116914 l -3.75295,0 c 2.13953,-1.888165 2.85271,-2.4552 4.07446,-3.413897 1.5082,-1.210063 2.91117,-2.466891 2.91117,-4.407668 0,-2.461046 -2.15122,-3.969241 -4.76426,-3.969241 -2.5195,0 -4.23814,1.771252 -4.23814,3.641881 0,1.040537 0.87686,1.14576 1.0873,1.14576 0.4852,0 1.07561,-0.350743 1.07561,-1.081458 0,-0.362434 -0.14614,-1.075611 -1.20421,-1.075611 0.63133,-1.443892 2.01677,-1.894012 2.97547,-1.894012 2.04015,0 3.09822,1.584189 3.09822,3.232681 0,1.777097 -1.26267,3.180068 -1.91739,3.910782 l -4.90455,4.851943 c -0.21045,0.181218 -0.21045,0.227983 -0.21045,0.795018 l 8.39445,0 z"
     id="path8553-3" />
  <rect
     transform="matrix(0.70710678,0.70710678,-0.70710678,0.70710678,0,0)"
     y="-40.859493"
     x="250.40349"
     height="78.121201"
     width="78.121201"
     id="rect8080"
     style="opacity:1;fill:none;fill-opacity:1;stroke:#002255;stroke-width:2;stroke-linecap:square;stroke-linejoin:round;stroke-miterlimit:4;stroke-dasharray:none;stroke-dashoffset:0.2;stroke-opacity:1" />
  <rect
     transform="matrix(0.70710678,0.70710678,-0.70710678,0.70710678,0,0)"
     y="-65.730118"
     x="225.53288"
     height="127.86244"
     width="127.86244"
     id="rect8080-7"
     style="opacity:1;fill:none;fill-opacity:1;stroke:#333333;stroke-width:2;stroke-linecap:square;stroke-linejoin:round;stroke-miterlimit:4;stroke-dasharray:12.00000002, 12.00000002;stroke-dashoffset:0;stroke-opacity:1" />
  <path
     id="path8384"
     d="m 173.62736,90.091796 31.88165,21.927984 186.77541,128.46289"
     style="fill:none;fill-rule:evenodd;stroke:#800000;stroke-width:2;stroke-linecap:butt;stroke-linejoin:miter;stroke-miterlimit:4;stroke-dasharray:none;stroke-opacity:1;marker-mid:url(#DotM)" />
  <circle
     r="51.424698"
     cy="203.41"
     cx="682.73395"
     id="path8438"
     style="opacity:1;fill:none;fill-opacity:1;stroke:#002255;stroke-width:2;stroke-linecap:square;stroke-linejoin:round;stroke-miterlimit:4;stroke-dasharray:none;stroke-dashoffset:0;stroke-opacity:1" />
  <circle
     style="opacity:1;fill:none;fill-opacity:1;stroke:#333333;stroke-width:1.97679317;stroke-linecap:square;stroke-linejoin:round;stroke-miterlimit:4;stroke-dasharray:7.90717248, 7.90717248;stroke-dashoffset:0;stroke-opacity:1"
     id="circle8440"
     cx="682.73395"
     cy="203.41"
     r="76.30162" />
  <path
     id="path8384-5"
     d="m 650.78581,90.214348 75.73181,52.087842 142.92525,98.30304"
     style="fill:none;fill-rule:evenodd;stroke:#800000;stroke-width:2;stroke-linecap:butt;stroke-linejoin:miter;stroke-miterlimit:4;stroke-dasharray:none;stroke-opacity:1;marker-mid:url(#DotM-5)" />
  <path
     id="path8097-6"
     d="m 682.73399,389.21717 0,-371.614325"
     style="fill:none;fill-rule:evenodd;stroke:#000000;stroke-width:1;stroke-linecap:butt;stroke-linejoin:miter;stroke-miterlimit:4;stroke-dasharray:none;stroke-opacity:1;marker-end:url(#Arrow1Lend)" />
  <path
     id="path8097-0-5"
     d="m 495.41498,203.41001 371.61433,0"
     style="fill:none;fill-rule:evenodd;stroke:#000000;stroke-width:1;stroke-linecap:butt;stroke-linejoin:miter;stroke-miterlimit:4;stroke-dasharray:none;stroke-opacity:1;marker-end:url(#marker8593)" />
  <path
     style="font-style:normal;font-variant:normal;font-weight:normal;font-stretch:normal;letter-spacing:normal;word-spacing:normal;text-anchor:start;fill:#000000;fill-opacity:1;fill-rule:evenodd;stroke:#000000;stroke-width:0;stroke-linecap:butt;stroke-linejoin:miter;stroke-miterlimit:10.43299961;stroke-dasharray:none;stroke-dashoffset:0;stroke-opacity:1"
     id="path8477"
     d="m 864.35399,183.17188 0.0117,-0.0585 0.0117,-0.0643 0.0175,-0.0701 0.0175,-0.0643 0.0175,-0.0702 0.0175,-0.0701 0.0351,-0.14614 0.0351,-0.14614 0.0351,-0.14615 0.0351,-0.14029 0.0351,-0.14615 0.0175,-0.0643 0.0175,-0.0701 0.0175,-0.0643 0.0117,-0.0643 0.0175,-0.0585 0.0117,-0.0585 0.0117,-0.0585 0.0117,-0.0526 0.0117,-0.0468 0.0117,-0.0468 0.006,-0.0409 0.006,-0.0351 0.006,-0.0351 0.006,-0.0292 0,-0.0234 0.006,-0.0175 c 0,-0.53196 -0.41505,-0.78917 -0.85348,-0.78917 -0.3449,0 -0.86516,0.22799 -1.06976,0.81256 -0.0877,0.2046 -1.46143,5.76387 -1.66019,6.52381 -0.21044,0.87686 -0.26305,1.39713 -0.26305,1.92909 0,0.31567 0,0.37413 0.0234,0.52027 -0.66641,1.54327 -1.54327,2.44351 -2.67149,2.44351 -2.33244,0 -2.33244,-2.15123 -2.33244,-2.64811 0,-0.92947 0.14614,-2.06938 1.51988,-5.65281 0.31567,-0.86516 0.49104,-1.28021 0.49104,-1.86478 0,-1.30359 -0.95869,-2.37921 -2.39089,-2.37921 -2.77087,0 -3.84648,4.21476 -3.84648,4.48367 0,0.29228 0.29228,0.29228 0.35658,0.29228 0.29229,0 0.31567,-0.0643 0.46182,-0.53196 0.78917,-2.70072 1.91739,-3.6068 2.94039,-3.6068 0.25721,0 0.73071,0.0292 0.73071,0.95869 0,0.73072 -0.32736,1.54327 -0.52611,2.03431 -1.28021,3.43728 -1.62511,4.7818 -1.62511,5.88664 0,2.64811 1.94662,3.67111 4.12708,3.67111 0.50273,0 1.86478,0 3.03392,-2.04016 0.7541,1.86478 2.76502,2.04016 3.64188,2.04016 2.1863,0 3.46066,-1.83556 4.22061,-3.58343 0.98792,-2.27398 1.91739,-6.17307 1.91739,-7.5702 0,-1.60757 -0.78332,-2.03431 -1.28021,-2.03431 -0.73071,0 -1.44974,0.7541 -1.44974,1.39713 0,0.37413 0.17537,0.54365 0.42674,0.78333 0.32151,0.32151 1.05223,1.07561 1.05223,2.47273 0,0.98793 -0.84178,3.84648 -1.59588,5.32545 -0.75994,1.54327 -1.78294,2.56627 -3.2093,2.56627 -1.3679,0 -2.15707,-0.87686 -2.15707,-2.52535 0,-0.82425 0.2046,-1.73033 0.32152,-2.12784 z" />
  <path
     style="font-style:normal;font-variant:normal;font-weight:normal;font-stretch:normal;letter-spacing:normal;word-spacing:normal;text-anchor:start;fill:#000000;fill-opacity:1;fill-rule:evenodd;stroke:#000000;stroke-width:0;stroke-linecap:butt;stroke-linejoin:miter;stroke-miterlimit:10.43299961;stroke-dasharray:none;stroke-dashoffset:0;stroke-opacity:1"
     id="path8479"
     d="m 878.55323,184.4404 0,-0.0234 0,-0.0234 0,-0.0292 0,-0.0234 0,-0.0175 0,-0.0234 0,-0.0234 0,-0.0175 0,-0.0234 -0.006,-0.0175 0,-0.0175 0,-0.0175 0,-0.0175 -0.006,-0.0175 0,-0.0175 0,-0.0117 -0.006,-0.0175 0,-0.0117 -0.006,-0.0175 0,-0.0117 -0.006,-0.0234 -0.0117,-0.0234 -0.0117,-0.0175 -0.0117,-0.0175 -0.0117,-0.0175 -0.0117,-0.0175 -0.0175,-0.0117 -0.0175,-0.0117 -0.0175,-0.0117 -0.0234,-0.006 -0.0234,-0.006 -0.0292,-0.0117 -0.0117,0 -0.0117,0 -0.0175,-0.006 -0.0175,0 -0.0117,-0.006 -0.0175,0 -0.0175,0 -0.0175,0 -0.0175,0 -0.0234,-0.006 -0.0175,0 -0.0234,0 -0.0175,0 -0.0234,0 -0.0234,0 -0.0234,0 -0.0234,0 -0.0292,0 -0.0234,0 -0.0234,0 c -1.30944,1.28606 -3.15668,1.30359 -3.99262,1.30359 l 0,0.73072 c 0.49104,0 1.83555,0 2.94624,-0.56704 l 0,10.38784 c 0,0.6781 0,0.94116 -2.03431,0.94116 l -0.76579,0 0,0.73071 c 0.36244,-0.0175 2.8644,-0.0818 3.62435,-0.0818 0.63133,0 3.1976,0.0643 3.64188,0.0818 l 0,-0.73071 -0.77164,0 c -2.04015,0 -2.04015,-0.26306 -2.04015,-0.94116 z" />
  <path
     style="font-style:normal;font-variant:normal;font-weight:normal;font-stretch:normal;letter-spacing:normal;word-spacing:normal;text-anchor:start;fill:#000000;fill-opacity:1;fill-rule:evenodd;stroke:#000000;stroke-width:0;stroke-linecap:butt;stroke-linejoin:miter;stroke-miterlimit:10.43299961;stroke-dasharray:none;stroke-dashoffset:0;stroke-opacity:1"
     d="m 652.99639,29.210939 0.0117,-0.05846 0.0117,-0.0643 0.0175,-0.07015 0.0175,-0.0643 0.0175,-0.07015 0.0175,-0.07015 0.0351,-0.146143 0.0351,-0.146143 0.0351,-0.146143 0.0351,-0.140297 0.0351,-0.146143 0.0175,-0.0643 0.0175,-0.07015 0.0175,-0.0643 0.0117,-0.0643 0.0175,-0.05846 0.0117,-0.05846 0.0117,-0.05846 0.0117,-0.05261 0.0117,-0.04677 0.0117,-0.04677 0.006,-0.04092 0.006,-0.03507 0.006,-0.03508 0.006,-0.02923 0,-0.02338 0.006,-0.01754 c 0,-0.53196 -0.41505,-0.789172 -0.85348,-0.789172 -0.3449,0 -0.86516,0.227983 -1.06976,0.812555 -0.0877,0.2046 -1.46143,5.763874 -1.66019,6.523817 -0.21044,0.876857 -0.26305,1.397126 -0.26305,1.929086 0,0.315668 0,0.374125 0.0234,0.520268 -0.66641,1.543269 -1.54327,2.443509 -2.67149,2.443509 -2.33244,0 -2.33244,-2.151223 -2.33244,-2.648109 0,-0.929468 0.14614,-2.069383 1.51988,-5.652806 0.31567,-0.865165 0.49104,-1.280211 0.49104,-1.864783 0,-1.303594 -0.95869,-2.379205 -2.39089,-2.379205 -2.77087,0 -3.84648,4.21476 -3.84648,4.483663 0,0.292285 0.29228,0.292285 0.35658,0.292285 0.29229,0 0.31567,-0.0643 0.46182,-0.53196 0.78917,-2.70072 1.91739,-3.606805 2.94039,-3.606805 0.25721,0 0.73071,0.02923 0.73071,0.958697 0,0.730714 -0.32736,1.543268 -0.52611,2.034308 -1.28021,3.43728 -1.62511,4.781795 -1.62511,5.886635 0,2.648108 1.94662,3.671108 4.12708,3.671108 0.50273,0 1.86478,0 3.03392,-2.040154 0.7541,1.864783 2.76502,2.040154 3.64188,2.040154 2.1863,0 3.46066,-1.835554 4.22061,-3.583423 0.98792,-2.273982 1.91739,-6.173074 1.91739,-7.5702 0,-1.607571 -0.78332,-2.034308 -1.28021,-2.034308 -0.73071,0 -1.44974,0.754097 -1.44974,1.397125 0,0.374126 0.17537,0.543652 0.42674,0.783326 0.32151,0.321514 1.05223,1.075612 1.05223,2.472737 0,0.987926 -0.84178,3.84648 -1.59588,5.325446 -0.75994,1.543269 -1.78294,2.566269 -3.2093,2.566269 -1.3679,0 -2.15707,-0.876857 -2.15707,-2.525349 0,-0.824246 0.2046,-1.730331 0.32152,-2.12784 z"
     id="path8551" />
  <path
     style="font-style:normal;font-variant:normal;font-weight:normal;font-stretch:normal;letter-spacing:normal;word-spacing:normal;text-anchor:start;fill:#000000;fill-opacity:1;fill-rule:evenodd;stroke:#000000;stroke-width:0;stroke-linecap:butt;stroke-linejoin:miter;stroke-miterlimit:10.43299961;stroke-dasharray:none;stroke-dashoffset:0;stroke-opacity:1"
     d="m 670.65629,39.721534 -0.68979,0 c -0.0585,0.45012 -0.26891,1.654337 -0.53196,1.858937 -0.15784,0.116914 -1.72449,0.116914 -2.01093,0.116914 l -3.75295,0 c 2.13953,-1.888165 2.85271,-2.4552 4.07446,-3.413897 1.5082,-1.210063 2.91117,-2.466891 2.91117,-4.407668 0,-2.461046 -2.15122,-3.969241 -4.76426,-3.969241 -2.5195,0 -4.23814,1.771252 -4.23814,3.641881 0,1.040537 0.87686,1.14576 1.0873,1.14576 0.4852,0 1.07561,-0.350743 1.07561,-1.081458 0,-0.362434 -0.14614,-1.075611 -1.20421,-1.075611 0.63133,-1.443892 2.01677,-1.894012 2.97547,-1.894012 2.04015,0 3.09822,1.584189 3.09822,3.232681 0,1.777097 -1.26267,3.180068 -1.91739,3.910782 l -4.90455,4.851943 c -0.21045,0.181218 -0.21045,0.227983 -0.21045,0.795018 l 8.39445,0 z"
     id="path8553" />
  <text
     id="text8676"
     y="108.55203"
     x="78.324493"
     style="font-style:normal;font-weight:normal;font-size:30px;line-height:1000%;font-family:sans-serif;text-align:center;letter-spacing:0px;word-spacing:0px;text-anchor:middle;fill:#000000;fill-opacity:1;stroke:none;stroke-width:1px;stroke-linecap:butt;stroke-linejoin:miter;stroke-opacity:1"
     xml:space="preserve"><tspan
       style="font-style:normal;font-variant:normal;font-weight:normal;font-stretch:normal;font-size:30px;font-family:serif;-inkscape-font-specification:serif"
       y="108.55203"
       x="78.324493"
       id="tspan8678">L<tspan
   id="tspan8705"
   style="font-size:64.99999762%;baseline-shift:super">1</tspan>-norm</tspan></text>
  <text
     id="text8676-5"
     y="108.55203"
     x="555.10443"
     style="font-style:normal;font-weight:normal;font-size:30px;line-height:1000%;font-family:sans-serif;text-align:center;letter-spacing:0px;word-spacing:0px;text-anchor:middle;fill:#000000;fill-opacity:1;stroke:none;stroke-width:1px;stroke-linecap:butt;stroke-linejoin:miter;stroke-opacity:1"
     xml:space="preserve"><tspan
       style="font-style:normal;font-variant:normal;font-weight:normal;font-stretch:normal;font-size:30px;font-family:serif;-inkscape-font-specification:serif"
       y="108.55203"
       x="555.10443"
       id="tspan8678-6">L<tspan
   id="tspan8703"
   style="font-size:64.99999762%;baseline-shift:super">2</tspan>-norm</tspan></text>
</svg>
