<?xml version="1.0" encoding="utf-8" standalone="no"?>
<!DOCTYPE svg PUBLIC "-//W3C//DTD SVG 1.1//EN"
  "http://www.w3.org/Graphics/SVG/1.1/DTD/svg11.dtd">
<svg xmlns:xlink="http://www.w3.org/1999/xlink" width="460.8pt" height="345.6pt" viewBox="0 0 460.8 345.6" xmlns="http://www.w3.org/2000/svg" version="1.1">
 <metadata>
  <rdf:RDF xmlns:dc="http://purl.org/dc/elements/1.1/" xmlns:cc="http://creativecommons.org/ns#" xmlns:rdf="http://www.w3.org/1999/02/22-rdf-syntax-ns#">
   <cc:Work>
    <dc:type rdf:resource="http://purl.org/dc/dcmitype/StillImage"/>
    <dc:date>2023-04-30T02:12:40.900442</dc:date>
    <dc:format>image/svg+xml</dc:format>
    <dc:creator>
     <cc:Agent>
      <dc:title>Matplotlib v3.6.3, https://matplotlib.org/</dc:title>
     </cc:Agent>
    </dc:creator>
   </cc:Work>
  </rdf:RDF>
 </metadata>
 <defs>
  <style type="text/css">*{stroke-linejoin: round; stroke-linecap: butt}</style>
 </defs>
 <g id="figure_1">
  <g id="patch_1">
   <path d="M 0 345.6 
L 460.8 345.6 
L 460.8 0 
L 0 0 
z
" style="fill: #ffffff"/>
  </g>
  <g id="axes_1">
   <g id="patch_2">
    <path d="M 57.6 307.584 
L 414.72 307.584 
L 414.72 41.472 
L 57.6 41.472 
z
" style="fill: #ffffff"/>
   </g>
   <g id="matplotlib.axis_1">
    <g id="xtick_1">
     <g id="line2d_1">
      <defs>
       <path id="m661d1903b0" d="M 0 0 
L 0 3.5 
" style="stroke: #000000; stroke-width: 0.8"/>
      </defs>
      <g>
       <use xlink:href="#m661d1903b0" x="73.832727" y="307.584" style="stroke: #000000; stroke-width: 0.8"/>
      </g>
     </g>
     <g id="text_1">
      <!-- 0 -->
      <g transform="translate(70.015227 323.702125) scale(0.12 -0.12)">
       <defs>
        <path id="DejaVuSans-30" d="M 2034 4250 
Q 1547 4250 1301 3770 
Q 1056 3291 1056 2328 
Q 1056 1369 1301 889 
Q 1547 409 2034 409 
Q 2525 409 2770 889 
Q 3016 1369 3016 2328 
Q 3016 3291 2770 3770 
Q 2525 4250 2034 4250 
z
M 2034 4750 
Q 2819 4750 3233 4129 
Q 3647 3509 3647 2328 
Q 3647 1150 3233 529 
Q 2819 -91 2034 -91 
Q 1250 -91 836 529 
Q 422 1150 422 2328 
Q 422 3509 836 4129 
Q 1250 4750 2034 4750 
z
" transform="scale(0.015625)"/>
       </defs>
       <use xlink:href="#DejaVuSans-30"/>
      </g>
     </g>
    </g>
    <g id="xtick_2">
     <g id="line2d_2">
      <g>
       <use xlink:href="#m661d1903b0" x="139.419504" y="307.584" style="stroke: #000000; stroke-width: 0.8"/>
      </g>
     </g>
     <g id="text_2">
      <!-- 20 -->
      <g transform="translate(131.784504 323.702125) scale(0.12 -0.12)">
       <defs>
        <path id="DejaVuSans-32" d="M 1228 531 
L 3431 531 
L 3431 0 
L 469 0 
L 469 531 
Q 828 903 1448 1529 
Q 2069 2156 2228 2338 
Q 2531 2678 2651 2914 
Q 2772 3150 2772 3378 
Q 2772 3750 2511 3984 
Q 2250 4219 1831 4219 
Q 1534 4219 1204 4116 
Q 875 4013 500 3803 
L 500 4441 
Q 881 4594 1212 4672 
Q 1544 4750 1819 4750 
Q 2544 4750 2975 4387 
Q 3406 4025 3406 3419 
Q 3406 3131 3298 2873 
Q 3191 2616 2906 2266 
Q 2828 2175 2409 1742 
Q 1991 1309 1228 531 
z
" transform="scale(0.015625)"/>
       </defs>
       <use xlink:href="#DejaVuSans-32"/>
       <use xlink:href="#DejaVuSans-30" x="63.623047"/>
      </g>
     </g>
    </g>
    <g id="xtick_3">
     <g id="line2d_3">
      <g>
       <use xlink:href="#m661d1903b0" x="205.006281" y="307.584" style="stroke: #000000; stroke-width: 0.8"/>
      </g>
     </g>
     <g id="text_3">
      <!-- 40 -->
      <g transform="translate(197.371281 323.702125) scale(0.12 -0.12)">
       <defs>
        <path id="DejaVuSans-34" d="M 2419 4116 
L 825 1625 
L 2419 1625 
L 2419 4116 
z
M 2253 4666 
L 3047 4666 
L 3047 1625 
L 3713 1625 
L 3713 1100 
L 3047 1100 
L 3047 0 
L 2419 0 
L 2419 1100 
L 313 1100 
L 313 1709 
L 2253 4666 
z
" transform="scale(0.015625)"/>
       </defs>
       <use xlink:href="#DejaVuSans-34"/>
       <use xlink:href="#DejaVuSans-30" x="63.623047"/>
      </g>
     </g>
    </g>
    <g id="xtick_4">
     <g id="line2d_4">
      <g>
       <use xlink:href="#m661d1903b0" x="270.593058" y="307.584" style="stroke: #000000; stroke-width: 0.8"/>
      </g>
     </g>
     <g id="text_4">
      <!-- 60 -->
      <g transform="translate(262.958058 323.702125) scale(0.12 -0.12)">
       <defs>
        <path id="DejaVuSans-36" d="M 2113 2584 
Q 1688 2584 1439 2293 
Q 1191 2003 1191 1497 
Q 1191 994 1439 701 
Q 1688 409 2113 409 
Q 2538 409 2786 701 
Q 3034 994 3034 1497 
Q 3034 2003 2786 2293 
Q 2538 2584 2113 2584 
z
M 3366 4563 
L 3366 3988 
Q 3128 4100 2886 4159 
Q 2644 4219 2406 4219 
Q 1781 4219 1451 3797 
Q 1122 3375 1075 2522 
Q 1259 2794 1537 2939 
Q 1816 3084 2150 3084 
Q 2853 3084 3261 2657 
Q 3669 2231 3669 1497 
Q 3669 778 3244 343 
Q 2819 -91 2113 -91 
Q 1303 -91 875 529 
Q 447 1150 447 2328 
Q 447 3434 972 4092 
Q 1497 4750 2381 4750 
Q 2619 4750 2861 4703 
Q 3103 4656 3366 4563 
z
" transform="scale(0.015625)"/>
       </defs>
       <use xlink:href="#DejaVuSans-36"/>
       <use xlink:href="#DejaVuSans-30" x="63.623047"/>
      </g>
     </g>
    </g>
    <g id="xtick_5">
     <g id="line2d_5">
      <g>
       <use xlink:href="#m661d1903b0" x="336.179835" y="307.584" style="stroke: #000000; stroke-width: 0.8"/>
      </g>
     </g>
     <g id="text_5">
      <!-- 80 -->
      <g transform="translate(328.544835 323.702125) scale(0.12 -0.12)">
       <defs>
        <path id="DejaVuSans-38" d="M 2034 2216 
Q 1584 2216 1326 1975 
Q 1069 1734 1069 1313 
Q 1069 891 1326 650 
Q 1584 409 2034 409 
Q 2484 409 2743 651 
Q 3003 894 3003 1313 
Q 3003 1734 2745 1975 
Q 2488 2216 2034 2216 
z
M 1403 2484 
Q 997 2584 770 2862 
Q 544 3141 544 3541 
Q 544 4100 942 4425 
Q 1341 4750 2034 4750 
Q 2731 4750 3128 4425 
Q 3525 4100 3525 3541 
Q 3525 3141 3298 2862 
Q 3072 2584 2669 2484 
Q 3125 2378 3379 2068 
Q 3634 1759 3634 1313 
Q 3634 634 3220 271 
Q 2806 -91 2034 -91 
Q 1263 -91 848 271 
Q 434 634 434 1313 
Q 434 1759 690 2068 
Q 947 2378 1403 2484 
z
M 1172 3481 
Q 1172 3119 1398 2916 
Q 1625 2713 2034 2713 
Q 2441 2713 2670 2916 
Q 2900 3119 2900 3481 
Q 2900 3844 2670 4047 
Q 2441 4250 2034 4250 
Q 1625 4250 1398 4047 
Q 1172 3844 1172 3481 
z
" transform="scale(0.015625)"/>
       </defs>
       <use xlink:href="#DejaVuSans-38"/>
       <use xlink:href="#DejaVuSans-30" x="63.623047"/>
      </g>
     </g>
    </g>
    <g id="xtick_6">
     <g id="line2d_6">
      <g>
       <use xlink:href="#m661d1903b0" x="401.766612" y="307.584" style="stroke: #000000; stroke-width: 0.8"/>
      </g>
     </g>
     <g id="text_6">
      <!-- 100 -->
      <g transform="translate(390.314112 323.702125) scale(0.12 -0.12)">
       <defs>
        <path id="DejaVuSans-31" d="M 794 531 
L 1825 531 
L 1825 4091 
L 703 3866 
L 703 4441 
L 1819 4666 
L 2450 4666 
L 2450 531 
L 3481 531 
L 3481 0 
L 794 0 
L 794 531 
z
" transform="scale(0.015625)"/>
       </defs>
       <use xlink:href="#DejaVuSans-31"/>
       <use xlink:href="#DejaVuSans-30" x="63.623047"/>
       <use xlink:href="#DejaVuSans-30" x="127.246094"/>
      </g>
     </g>
    </g>
    <g id="text_7">
     <!-- Length of μ -->
     <g transform="translate(196.363906 340.835562) scale(0.14 -0.14)">
      <defs>
       <path id="DejaVuSans-4c" d="M 628 4666 
L 1259 4666 
L 1259 531 
L 3531 531 
L 3531 0 
L 628 0 
L 628 4666 
z
" transform="scale(0.015625)"/>
       <path id="DejaVuSans-65" d="M 3597 1894 
L 3597 1613 
L 953 1613 
Q 991 1019 1311 708 
Q 1631 397 2203 397 
Q 2534 397 2845 478 
Q 3156 559 3463 722 
L 3463 178 
Q 3153 47 2828 -22 
Q 2503 -91 2169 -91 
Q 1331 -91 842 396 
Q 353 884 353 1716 
Q 353 2575 817 3079 
Q 1281 3584 2069 3584 
Q 2775 3584 3186 3129 
Q 3597 2675 3597 1894 
z
M 3022 2063 
Q 3016 2534 2758 2815 
Q 2500 3097 2075 3097 
Q 1594 3097 1305 2825 
Q 1016 2553 972 2059 
L 3022 2063 
z
" transform="scale(0.015625)"/>
       <path id="DejaVuSans-6e" d="M 3513 2113 
L 3513 0 
L 2938 0 
L 2938 2094 
Q 2938 2591 2744 2837 
Q 2550 3084 2163 3084 
Q 1697 3084 1428 2787 
Q 1159 2491 1159 1978 
L 1159 0 
L 581 0 
L 581 3500 
L 1159 3500 
L 1159 2956 
Q 1366 3272 1645 3428 
Q 1925 3584 2291 3584 
Q 2894 3584 3203 3211 
Q 3513 2838 3513 2113 
z
" transform="scale(0.015625)"/>
       <path id="DejaVuSans-67" d="M 2906 1791 
Q 2906 2416 2648 2759 
Q 2391 3103 1925 3103 
Q 1463 3103 1205 2759 
Q 947 2416 947 1791 
Q 947 1169 1205 825 
Q 1463 481 1925 481 
Q 2391 481 2648 825 
Q 2906 1169 2906 1791 
z
M 3481 434 
Q 3481 -459 3084 -895 
Q 2688 -1331 1869 -1331 
Q 1566 -1331 1297 -1286 
Q 1028 -1241 775 -1147 
L 775 -588 
Q 1028 -725 1275 -790 
Q 1522 -856 1778 -856 
Q 2344 -856 2625 -561 
Q 2906 -266 2906 331 
L 2906 616 
Q 2728 306 2450 153 
Q 2172 0 1784 0 
Q 1141 0 747 490 
Q 353 981 353 1791 
Q 353 2603 747 3093 
Q 1141 3584 1784 3584 
Q 2172 3584 2450 3431 
Q 2728 3278 2906 2969 
L 2906 3500 
L 3481 3500 
L 3481 434 
z
" transform="scale(0.015625)"/>
       <path id="DejaVuSans-74" d="M 1172 4494 
L 1172 3500 
L 2356 3500 
L 2356 3053 
L 1172 3053 
L 1172 1153 
Q 1172 725 1289 603 
Q 1406 481 1766 481 
L 2356 481 
L 2356 0 
L 1766 0 
Q 1100 0 847 248 
Q 594 497 594 1153 
L 594 3053 
L 172 3053 
L 172 3500 
L 594 3500 
L 594 4494 
L 1172 4494 
z
" transform="scale(0.015625)"/>
       <path id="DejaVuSans-68" d="M 3513 2113 
L 3513 0 
L 2938 0 
L 2938 2094 
Q 2938 2591 2744 2837 
Q 2550 3084 2163 3084 
Q 1697 3084 1428 2787 
Q 1159 2491 1159 1978 
L 1159 0 
L 581 0 
L 581 4863 
L 1159 4863 
L 1159 2956 
Q 1366 3272 1645 3428 
Q 1925 3584 2291 3584 
Q 2894 3584 3203 3211 
Q 3513 2838 3513 2113 
z
" transform="scale(0.015625)"/>
       <path id="DejaVuSans-20" transform="scale(0.015625)"/>
       <path id="DejaVuSans-6f" d="M 1959 3097 
Q 1497 3097 1228 2736 
Q 959 2375 959 1747 
Q 959 1119 1226 758 
Q 1494 397 1959 397 
Q 2419 397 2687 759 
Q 2956 1122 2956 1747 
Q 2956 2369 2687 2733 
Q 2419 3097 1959 3097 
z
M 1959 3584 
Q 2709 3584 3137 3096 
Q 3566 2609 3566 1747 
Q 3566 888 3137 398 
Q 2709 -91 1959 -91 
Q 1206 -91 779 398 
Q 353 888 353 1747 
Q 353 2609 779 3096 
Q 1206 3584 1959 3584 
z
" transform="scale(0.015625)"/>
       <path id="DejaVuSans-66" d="M 2375 4863 
L 2375 4384 
L 1825 4384 
Q 1516 4384 1395 4259 
Q 1275 4134 1275 3809 
L 1275 3500 
L 2222 3500 
L 2222 3053 
L 1275 3053 
L 1275 0 
L 697 0 
L 697 3053 
L 147 3053 
L 147 3500 
L 697 3500 
L 697 3744 
Q 697 4328 969 4595 
Q 1241 4863 1831 4863 
L 2375 4863 
z
" transform="scale(0.015625)"/>
       <path id="DejaVuSans-3bc" d="M 544 -1331 
L 544 3500 
L 1119 3500 
L 1119 1325 
Q 1119 872 1334 640 
Q 1550 409 1972 409 
Q 2434 409 2667 671 
Q 2900 934 2900 1459 
L 2900 3500 
L 3475 3500 
L 3475 806 
Q 3475 619 3529 530 
Q 3584 441 3700 441 
Q 3728 441 3778 458 
Q 3828 475 3916 513 
L 3916 50 
Q 3788 -22 3673 -56 
Q 3559 -91 3450 -91 
Q 3234 -91 3106 31 
Q 2978 153 2931 403 
Q 2775 156 2548 32 
Q 2322 -91 2016 -91 
Q 1697 -91 1473 31 
Q 1250 153 1119 397 
L 1119 -1331 
L 544 -1331 
z
" transform="scale(0.015625)"/>
      </defs>
      <use xlink:href="#DejaVuSans-4c"/>
      <use xlink:href="#DejaVuSans-65" x="53.962891"/>
      <use xlink:href="#DejaVuSans-6e" x="115.486328"/>
      <use xlink:href="#DejaVuSans-67" x="178.865234"/>
      <use xlink:href="#DejaVuSans-74" x="242.341797"/>
      <use xlink:href="#DejaVuSans-68" x="281.550781"/>
      <use xlink:href="#DejaVuSans-20" x="344.929688"/>
      <use xlink:href="#DejaVuSans-6f" x="376.716797"/>
      <use xlink:href="#DejaVuSans-66" x="437.898438"/>
      <use xlink:href="#DejaVuSans-20" x="473.103516"/>
      <use xlink:href="#DejaVuSans-3bc" x="504.890625"/>
     </g>
    </g>
   </g>
   <g id="matplotlib.axis_2">
    <g id="ytick_1">
     <g id="line2d_7">
      <defs>
       <path id="m2dc056d450" d="M 0 0 
L -3.5 0 
" style="stroke: #000000; stroke-width: 0.8"/>
      </defs>
      <g>
       <use xlink:href="#m2dc056d450" x="57.6" y="281.682475" style="stroke: #000000; stroke-width: 0.8"/>
      </g>
     </g>
     <g id="text_8">
      <!-- 0.5 -->
      <g transform="translate(31.51625 286.241538) scale(0.12 -0.12)">
       <defs>
        <path id="DejaVuSans-2e" d="M 684 794 
L 1344 794 
L 1344 0 
L 684 0 
L 684 794 
z
" transform="scale(0.015625)"/>
        <path id="DejaVuSans-35" d="M 691 4666 
L 3169 4666 
L 3169 4134 
L 1269 4134 
L 1269 2991 
Q 1406 3038 1543 3061 
Q 1681 3084 1819 3084 
Q 2600 3084 3056 2656 
Q 3513 2228 3513 1497 
Q 3513 744 3044 326 
Q 2575 -91 1722 -91 
Q 1428 -91 1123 -41 
Q 819 9 494 109 
L 494 744 
Q 775 591 1075 516 
Q 1375 441 1709 441 
Q 2250 441 2565 725 
Q 2881 1009 2881 1497 
Q 2881 1984 2565 2268 
Q 2250 2553 1709 2553 
Q 1456 2553 1204 2497 
Q 953 2441 691 2322 
L 691 4666 
z
" transform="scale(0.015625)"/>
       </defs>
       <use xlink:href="#DejaVuSans-30"/>
       <use xlink:href="#DejaVuSans-2e" x="63.623047"/>
       <use xlink:href="#DejaVuSans-35" x="95.410156"/>
      </g>
     </g>
    </g>
    <g id="ytick_2">
     <g id="line2d_8">
      <g>
       <use xlink:href="#m2dc056d450" x="57.6" y="244.882174" style="stroke: #000000; stroke-width: 0.8"/>
      </g>
     </g>
     <g id="text_9">
      <!-- 0.6 -->
      <g transform="translate(31.51625 249.441236) scale(0.12 -0.12)">
       <use xlink:href="#DejaVuSans-30"/>
       <use xlink:href="#DejaVuSans-2e" x="63.623047"/>
       <use xlink:href="#DejaVuSans-36" x="95.410156"/>
      </g>
     </g>
    </g>
    <g id="ytick_3">
     <g id="line2d_9">
      <g>
       <use xlink:href="#m2dc056d450" x="57.6" y="208.081872" style="stroke: #000000; stroke-width: 0.8"/>
      </g>
     </g>
     <g id="text_10">
      <!-- 0.7 -->
      <g transform="translate(31.51625 212.640935) scale(0.12 -0.12)">
       <defs>
        <path id="DejaVuSans-37" d="M 525 4666 
L 3525 4666 
L 3525 4397 
L 1831 0 
L 1172 0 
L 2766 4134 
L 525 4134 
L 525 4666 
z
" transform="scale(0.015625)"/>
       </defs>
       <use xlink:href="#DejaVuSans-30"/>
       <use xlink:href="#DejaVuSans-2e" x="63.623047"/>
       <use xlink:href="#DejaVuSans-37" x="95.410156"/>
      </g>
     </g>
    </g>
    <g id="ytick_4">
     <g id="line2d_10">
      <g>
       <use xlink:href="#m2dc056d450" x="57.6" y="171.281571" style="stroke: #000000; stroke-width: 0.8"/>
      </g>
     </g>
     <g id="text_11">
      <!-- 0.8 -->
      <g transform="translate(31.51625 175.840633) scale(0.12 -0.12)">
       <use xlink:href="#DejaVuSans-30"/>
       <use xlink:href="#DejaVuSans-2e" x="63.623047"/>
       <use xlink:href="#DejaVuSans-38" x="95.410156"/>
      </g>
     </g>
    </g>
    <g id="ytick_5">
     <g id="line2d_11">
      <g>
       <use xlink:href="#m2dc056d450" x="57.6" y="134.481269" style="stroke: #000000; stroke-width: 0.8"/>
      </g>
     </g>
     <g id="text_12">
      <!-- 0.9 -->
      <g transform="translate(31.51625 139.040332) scale(0.12 -0.12)">
       <defs>
        <path id="DejaVuSans-39" d="M 703 97 
L 703 672 
Q 941 559 1184 500 
Q 1428 441 1663 441 
Q 2288 441 2617 861 
Q 2947 1281 2994 2138 
Q 2813 1869 2534 1725 
Q 2256 1581 1919 1581 
Q 1219 1581 811 2004 
Q 403 2428 403 3163 
Q 403 3881 828 4315 
Q 1253 4750 1959 4750 
Q 2769 4750 3195 4129 
Q 3622 3509 3622 2328 
Q 3622 1225 3098 567 
Q 2575 -91 1691 -91 
Q 1453 -91 1209 -44 
Q 966 3 703 97 
z
M 1959 2075 
Q 2384 2075 2632 2365 
Q 2881 2656 2881 3163 
Q 2881 3666 2632 3958 
Q 2384 4250 1959 4250 
Q 1534 4250 1286 3958 
Q 1038 3666 1038 3163 
Q 1038 2656 1286 2365 
Q 1534 2075 1959 2075 
z
" transform="scale(0.015625)"/>
       </defs>
       <use xlink:href="#DejaVuSans-30"/>
       <use xlink:href="#DejaVuSans-2e" x="63.623047"/>
       <use xlink:href="#DejaVuSans-39" x="95.410156"/>
      </g>
     </g>
    </g>
    <g id="ytick_6">
     <g id="line2d_12">
      <g>
       <use xlink:href="#m2dc056d450" x="57.6" y="97.680968" style="stroke: #000000; stroke-width: 0.8"/>
      </g>
     </g>
     <g id="text_13">
      <!-- 1.0 -->
      <g transform="translate(31.51625 102.24003) scale(0.12 -0.12)">
       <use xlink:href="#DejaVuSans-31"/>
       <use xlink:href="#DejaVuSans-2e" x="63.623047"/>
       <use xlink:href="#DejaVuSans-30" x="95.410156"/>
      </g>
     </g>
    </g>
    <g id="ytick_7">
     <g id="line2d_13">
      <g>
       <use xlink:href="#m2dc056d450" x="57.6" y="60.880666" style="stroke: #000000; stroke-width: 0.8"/>
      </g>
     </g>
     <g id="text_14">
      <!-- 1.1 -->
      <g transform="translate(31.51625 65.439729) scale(0.12 -0.12)">
       <use xlink:href="#DejaVuSans-31"/>
       <use xlink:href="#DejaVuSans-2e" x="63.623047"/>
       <use xlink:href="#DejaVuSans-31" x="95.410156"/>
      </g>
     </g>
    </g>
    <g id="text_15">
     <!-- r -->
     <g transform="translate(24.604688 177.405656) rotate(-90) scale(0.14 -0.14)">
      <defs>
       <path id="DejaVuSans-72" d="M 2631 2963 
Q 2534 3019 2420 3045 
Q 2306 3072 2169 3072 
Q 1681 3072 1420 2755 
Q 1159 2438 1159 1844 
L 1159 0 
L 581 0 
L 581 3500 
L 1159 3500 
L 1159 2956 
Q 1341 3275 1631 3429 
Q 1922 3584 2338 3584 
Q 2397 3584 2469 3576 
Q 2541 3569 2628 3553 
L 2631 2963 
z
" transform="scale(0.015625)"/>
      </defs>
      <use xlink:href="#DejaVuSans-72"/>
     </g>
    </g>
   </g>
   <g id="line2d_14">
    <defs>
     <path id="m696b9640d2" d="M 0 3 
C 0.795609 3 1.55874 2.683901 2.12132 2.12132 
C 2.683901 1.55874 3 0.795609 3 0 
C 3 -0.795609 2.683901 -1.55874 2.12132 -2.12132 
C 1.55874 -2.683901 0.795609 -3 0 -3 
C -0.795609 -3 -1.55874 -2.683901 -2.12132 -2.12132 
C -2.683901 -1.55874 -3 -0.795609 -3 0 
C -3 0.795609 -2.683901 1.55874 -2.12132 2.12132 
C -1.55874 2.683901 -0.795609 3 0 3 
z
" style="stroke: #1f77b4"/>
    </defs>
    <g clip-path="url(#pc7ff588763)">
     <use xlink:href="#m696b9640d2" x="73.832727" y="295.488" style="fill: #1f77b4; stroke: #1f77b4"/>
     <use xlink:href="#m696b9640d2" x="77.112066" y="179.692706" style="fill: #1f77b4; stroke: #1f77b4"/>
     <use xlink:href="#m696b9640d2" x="80.391405" y="181.343379" style="fill: #1f77b4; stroke: #1f77b4"/>
     <use xlink:href="#m696b9640d2" x="83.670744" y="53.568" style="fill: #1f77b4; stroke: #1f77b4"/>
     <use xlink:href="#m696b9640d2" x="86.950083" y="172.630784" style="fill: #1f77b4; stroke: #1f77b4"/>
     <use xlink:href="#m696b9640d2" x="90.229421" y="125.181827" style="fill: #1f77b4; stroke: #1f77b4"/>
     <use xlink:href="#m696b9640d2" x="93.50876" y="128.627564" style="fill: #1f77b4; stroke: #1f77b4"/>
     <use xlink:href="#m696b9640d2" x="96.788099" y="92.284575" style="fill: #1f77b4; stroke: #1f77b4"/>
     <use xlink:href="#m696b9640d2" x="100.067438" y="107.269804" style="fill: #1f77b4; stroke: #1f77b4"/>
     <use xlink:href="#m696b9640d2" x="103.346777" y="72.953127" style="fill: #1f77b4; stroke: #1f77b4"/>
     <use xlink:href="#m696b9640d2" x="106.626116" y="107.922035" style="fill: #1f77b4; stroke: #1f77b4"/>
     <use xlink:href="#m696b9640d2" x="109.905455" y="106.634795" style="fill: #1f77b4; stroke: #1f77b4"/>
     <use xlink:href="#m696b9640d2" x="113.184793" y="101.556706" style="fill: #1f77b4; stroke: #1f77b4"/>
     <use xlink:href="#m696b9640d2" x="116.464132" y="113.812444" style="fill: #1f77b4; stroke: #1f77b4"/>
     <use xlink:href="#m696b9640d2" x="119.743471" y="116.281597" style="fill: #1f77b4; stroke: #1f77b4"/>
     <use xlink:href="#m696b9640d2" x="123.02281" y="92.882917" style="fill: #1f77b4; stroke: #1f77b4"/>
     <use xlink:href="#m696b9640d2" x="126.302149" y="88.826738" style="fill: #1f77b4; stroke: #1f77b4"/>
     <use xlink:href="#m696b9640d2" x="129.581488" y="109.318756" style="fill: #1f77b4; stroke: #1f77b4"/>
     <use xlink:href="#m696b9640d2" x="132.860826" y="99.622632" style="fill: #1f77b4; stroke: #1f77b4"/>
     <use xlink:href="#m696b9640d2" x="136.140165" y="93.086287" style="fill: #1f77b4; stroke: #1f77b4"/>
     <use xlink:href="#m696b9640d2" x="139.419504" y="94.188012" style="fill: #1f77b4; stroke: #1f77b4"/>
     <use xlink:href="#m696b9640d2" x="142.698843" y="102.147021" style="fill: #1f77b4; stroke: #1f77b4"/>
     <use xlink:href="#m696b9640d2" x="145.978182" y="97.673837" style="fill: #1f77b4; stroke: #1f77b4"/>
     <use xlink:href="#m696b9640d2" x="149.257521" y="85.019557" style="fill: #1f77b4; stroke: #1f77b4"/>
     <use xlink:href="#m696b9640d2" x="152.53686" y="103.666527" style="fill: #1f77b4; stroke: #1f77b4"/>
     <use xlink:href="#m696b9640d2" x="155.816198" y="98.299569" style="fill: #1f77b4; stroke: #1f77b4"/>
     <use xlink:href="#m696b9640d2" x="159.095537" y="85.007414" style="fill: #1f77b4; stroke: #1f77b4"/>
     <use xlink:href="#m696b9640d2" x="162.374876" y="105.711873" style="fill: #1f77b4; stroke: #1f77b4"/>
     <use xlink:href="#m696b9640d2" x="165.654215" y="98.911988" style="fill: #1f77b4; stroke: #1f77b4"/>
     <use xlink:href="#m696b9640d2" x="168.933554" y="108.007908" style="fill: #1f77b4; stroke: #1f77b4"/>
     <use xlink:href="#m696b9640d2" x="172.212893" y="103.189141" style="fill: #1f77b4; stroke: #1f77b4"/>
     <use xlink:href="#m696b9640d2" x="175.492231" y="96.793345" style="fill: #1f77b4; stroke: #1f77b4"/>
     <use xlink:href="#m696b9640d2" x="178.77157" y="96.26254" style="fill: #1f77b4; stroke: #1f77b4"/>
     <use xlink:href="#m696b9640d2" x="182.050909" y="102.507975" style="fill: #1f77b4; stroke: #1f77b4"/>
     <use xlink:href="#m696b9640d2" x="185.330248" y="95.913817" style="fill: #1f77b4; stroke: #1f77b4"/>
     <use xlink:href="#m696b9640d2" x="188.609587" y="103.548959" style="fill: #1f77b4; stroke: #1f77b4"/>
     <use xlink:href="#m696b9640d2" x="191.888926" y="99.438234" style="fill: #1f77b4; stroke: #1f77b4"/>
     <use xlink:href="#m696b9640d2" x="195.168264" y="92.00533" style="fill: #1f77b4; stroke: #1f77b4"/>
     <use xlink:href="#m696b9640d2" x="198.447603" y="122.562948" style="fill: #1f77b4; stroke: #1f77b4"/>
     <use xlink:href="#m696b9640d2" x="201.726942" y="89.855652" style="fill: #1f77b4; stroke: #1f77b4"/>
     <use xlink:href="#m696b9640d2" x="205.006281" y="95.287205" style="fill: #1f77b4; stroke: #1f77b4"/>
     <use xlink:href="#m696b9640d2" x="208.28562" y="108.468766" style="fill: #1f77b4; stroke: #1f77b4"/>
     <use xlink:href="#m696b9640d2" x="211.564959" y="103.204295" style="fill: #1f77b4; stroke: #1f77b4"/>
     <use xlink:href="#m696b9640d2" x="214.844298" y="90.278817" style="fill: #1f77b4; stroke: #1f77b4"/>
     <use xlink:href="#m696b9640d2" x="218.123636" y="95.53218" style="fill: #1f77b4; stroke: #1f77b4"/>
     <use xlink:href="#m696b9640d2" x="221.402975" y="95.49355" style="fill: #1f77b4; stroke: #1f77b4"/>
     <use xlink:href="#m696b9640d2" x="224.682314" y="98.318143" style="fill: #1f77b4; stroke: #1f77b4"/>
     <use xlink:href="#m696b9640d2" x="227.961653" y="92.959095" style="fill: #1f77b4; stroke: #1f77b4"/>
     <use xlink:href="#m696b9640d2" x="231.240992" y="99.955859" style="fill: #1f77b4; stroke: #1f77b4"/>
     <use xlink:href="#m696b9640d2" x="234.520331" y="102.64288" style="fill: #1f77b4; stroke: #1f77b4"/>
     <use xlink:href="#m696b9640d2" x="237.799669" y="90.699774" style="fill: #1f77b4; stroke: #1f77b4"/>
     <use xlink:href="#m696b9640d2" x="241.079008" y="87.070559" style="fill: #1f77b4; stroke: #1f77b4"/>
     <use xlink:href="#m696b9640d2" x="244.358347" y="89.58054" style="fill: #1f77b4; stroke: #1f77b4"/>
     <use xlink:href="#m696b9640d2" x="247.637686" y="102.716293" style="fill: #1f77b4; stroke: #1f77b4"/>
     <use xlink:href="#m696b9640d2" x="250.917025" y="104.503279" style="fill: #1f77b4; stroke: #1f77b4"/>
     <use xlink:href="#m696b9640d2" x="254.196364" y="88.888581" style="fill: #1f77b4; stroke: #1f77b4"/>
     <use xlink:href="#m696b9640d2" x="257.475702" y="101.700985" style="fill: #1f77b4; stroke: #1f77b4"/>
     <use xlink:href="#m696b9640d2" x="260.755041" y="98.141346" style="fill: #1f77b4; stroke: #1f77b4"/>
     <use xlink:href="#m696b9640d2" x="264.03438" y="97.58722" style="fill: #1f77b4; stroke: #1f77b4"/>
     <use xlink:href="#m696b9640d2" x="267.313719" y="98.077589" style="fill: #1f77b4; stroke: #1f77b4"/>
     <use xlink:href="#m696b9640d2" x="270.593058" y="103.681523" style="fill: #1f77b4; stroke: #1f77b4"/>
     <use xlink:href="#m696b9640d2" x="273.872397" y="101.164259" style="fill: #1f77b4; stroke: #1f77b4"/>
     <use xlink:href="#m696b9640d2" x="277.151736" y="99.367903" style="fill: #1f77b4; stroke: #1f77b4"/>
     <use xlink:href="#m696b9640d2" x="280.431074" y="99.747923" style="fill: #1f77b4; stroke: #1f77b4"/>
     <use xlink:href="#m696b9640d2" x="283.710413" y="96.475955" style="fill: #1f77b4; stroke: #1f77b4"/>
     <use xlink:href="#m696b9640d2" x="286.989752" y="96.141919" style="fill: #1f77b4; stroke: #1f77b4"/>
     <use xlink:href="#m696b9640d2" x="290.269091" y="91.177744" style="fill: #1f77b4; stroke: #1f77b4"/>
     <use xlink:href="#m696b9640d2" x="293.54843" y="99.225049" style="fill: #1f77b4; stroke: #1f77b4"/>
     <use xlink:href="#m696b9640d2" x="296.827769" y="97.416029" style="fill: #1f77b4; stroke: #1f77b4"/>
     <use xlink:href="#m696b9640d2" x="300.107107" y="102.946436" style="fill: #1f77b4; stroke: #1f77b4"/>
     <use xlink:href="#m696b9640d2" x="303.386446" y="93.548427" style="fill: #1f77b4; stroke: #1f77b4"/>
     <use xlink:href="#m696b9640d2" x="306.665785" y="96.827099" style="fill: #1f77b4; stroke: #1f77b4"/>
     <use xlink:href="#m696b9640d2" x="309.945124" y="94.762657" style="fill: #1f77b4; stroke: #1f77b4"/>
     <use xlink:href="#m696b9640d2" x="313.224463" y="98.216354" style="fill: #1f77b4; stroke: #1f77b4"/>
     <use xlink:href="#m696b9640d2" x="316.503802" y="100.405746" style="fill: #1f77b4; stroke: #1f77b4"/>
     <use xlink:href="#m696b9640d2" x="319.78314" y="91.369046" style="fill: #1f77b4; stroke: #1f77b4"/>
     <use xlink:href="#m696b9640d2" x="323.062479" y="97.562981" style="fill: #1f77b4; stroke: #1f77b4"/>
     <use xlink:href="#m696b9640d2" x="326.341818" y="95.323569" style="fill: #1f77b4; stroke: #1f77b4"/>
     <use xlink:href="#m696b9640d2" x="329.621157" y="97.030959" style="fill: #1f77b4; stroke: #1f77b4"/>
     <use xlink:href="#m696b9640d2" x="332.900496" y="97.849475" style="fill: #1f77b4; stroke: #1f77b4"/>
     <use xlink:href="#m696b9640d2" x="336.179835" y="94.593547" style="fill: #1f77b4; stroke: #1f77b4"/>
     <use xlink:href="#m696b9640d2" x="339.459174" y="93.72731" style="fill: #1f77b4; stroke: #1f77b4"/>
     <use xlink:href="#m696b9640d2" x="342.738512" y="95.418304" style="fill: #1f77b4; stroke: #1f77b4"/>
     <use xlink:href="#m696b9640d2" x="346.017851" y="100.256077" style="fill: #1f77b4; stroke: #1f77b4"/>
     <use xlink:href="#m696b9640d2" x="349.29719" y="96.967027" style="fill: #1f77b4; stroke: #1f77b4"/>
     <use xlink:href="#m696b9640d2" x="352.576529" y="99.276486" style="fill: #1f77b4; stroke: #1f77b4"/>
     <use xlink:href="#m696b9640d2" x="355.855868" y="94.579817" style="fill: #1f77b4; stroke: #1f77b4"/>
     <use xlink:href="#m696b9640d2" x="359.135207" y="96.792845" style="fill: #1f77b4; stroke: #1f77b4"/>
     <use xlink:href="#m696b9640d2" x="362.414545" y="98.436896" style="fill: #1f77b4; stroke: #1f77b4"/>
     <use xlink:href="#m696b9640d2" x="365.693884" y="92.58552" style="fill: #1f77b4; stroke: #1f77b4"/>
     <use xlink:href="#m696b9640d2" x="368.973223" y="97.849718" style="fill: #1f77b4; stroke: #1f77b4"/>
     <use xlink:href="#m696b9640d2" x="372.252562" y="97.260199" style="fill: #1f77b4; stroke: #1f77b4"/>
     <use xlink:href="#m696b9640d2" x="375.531901" y="97.500286" style="fill: #1f77b4; stroke: #1f77b4"/>
     <use xlink:href="#m696b9640d2" x="378.81124" y="100.71485" style="fill: #1f77b4; stroke: #1f77b4"/>
     <use xlink:href="#m696b9640d2" x="382.090579" y="95.448625" style="fill: #1f77b4; stroke: #1f77b4"/>
     <use xlink:href="#m696b9640d2" x="385.369917" y="99.698347" style="fill: #1f77b4; stroke: #1f77b4"/>
     <use xlink:href="#m696b9640d2" x="388.649256" y="93.343435" style="fill: #1f77b4; stroke: #1f77b4"/>
     <use xlink:href="#m696b9640d2" x="391.928595" y="97.783511" style="fill: #1f77b4; stroke: #1f77b4"/>
     <use xlink:href="#m696b9640d2" x="395.207934" y="95.631376" style="fill: #1f77b4; stroke: #1f77b4"/>
     <use xlink:href="#m696b9640d2" x="398.487273" y="101.649547" style="fill: #1f77b4; stroke: #1f77b4"/>
    </g>
   </g>
   <g id="line2d_15">
    <path d="M 57.6 97.680968 
L 414.72 97.680968 
" clip-path="url(#pc7ff588763)" style="fill: none; stroke: #ff0000; stroke-width: 1.5; stroke-linecap: square"/>
   </g>
   <g id="patch_3">
    <path d="M 57.6 307.584 
L 57.6 41.472 
" style="fill: none; stroke: #000000; stroke-width: 0.8; stroke-linejoin: miter; stroke-linecap: square"/>
   </g>
   <g id="patch_4">
    <path d="M 414.72 307.584 
L 414.72 41.472 
" style="fill: none; stroke: #000000; stroke-width: 0.8; stroke-linejoin: miter; stroke-linecap: square"/>
   </g>
   <g id="patch_5">
    <path d="M 57.6 307.584 
L 414.72 307.584 
" style="fill: none; stroke: #000000; stroke-width: 0.8; stroke-linejoin: miter; stroke-linecap: square"/>
   </g>
   <g id="patch_6">
    <path d="M 57.6 41.472 
L 414.72 41.472 
" style="fill: none; stroke: #000000; stroke-width: 0.8; stroke-linejoin: miter; stroke-linecap: square"/>
   </g>
   <g id="text_16">
    <!-- Effect of μ's Length on MSE -->
    <g transform="translate(126.53875 35.472) scale(0.16 -0.16)">
     <defs>
      <path id="DejaVuSans-45" d="M 628 4666 
L 3578 4666 
L 3578 4134 
L 1259 4134 
L 1259 2753 
L 3481 2753 
L 3481 2222 
L 1259 2222 
L 1259 531 
L 3634 531 
L 3634 0 
L 628 0 
L 628 4666 
z
" transform="scale(0.015625)"/>
      <path id="DejaVuSans-63" d="M 3122 3366 
L 3122 2828 
Q 2878 2963 2633 3030 
Q 2388 3097 2138 3097 
Q 1578 3097 1268 2742 
Q 959 2388 959 1747 
Q 959 1106 1268 751 
Q 1578 397 2138 397 
Q 2388 397 2633 464 
Q 2878 531 3122 666 
L 3122 134 
Q 2881 22 2623 -34 
Q 2366 -91 2075 -91 
Q 1284 -91 818 406 
Q 353 903 353 1747 
Q 353 2603 823 3093 
Q 1294 3584 2113 3584 
Q 2378 3584 2631 3529 
Q 2884 3475 3122 3366 
z
" transform="scale(0.015625)"/>
      <path id="DejaVuSans-27" d="M 1147 4666 
L 1147 2931 
L 616 2931 
L 616 4666 
L 1147 4666 
z
" transform="scale(0.015625)"/>
      <path id="DejaVuSans-73" d="M 2834 3397 
L 2834 2853 
Q 2591 2978 2328 3040 
Q 2066 3103 1784 3103 
Q 1356 3103 1142 2972 
Q 928 2841 928 2578 
Q 928 2378 1081 2264 
Q 1234 2150 1697 2047 
L 1894 2003 
Q 2506 1872 2764 1633 
Q 3022 1394 3022 966 
Q 3022 478 2636 193 
Q 2250 -91 1575 -91 
Q 1294 -91 989 -36 
Q 684 19 347 128 
L 347 722 
Q 666 556 975 473 
Q 1284 391 1588 391 
Q 1994 391 2212 530 
Q 2431 669 2431 922 
Q 2431 1156 2273 1281 
Q 2116 1406 1581 1522 
L 1381 1569 
Q 847 1681 609 1914 
Q 372 2147 372 2553 
Q 372 3047 722 3315 
Q 1072 3584 1716 3584 
Q 2034 3584 2315 3537 
Q 2597 3491 2834 3397 
z
" transform="scale(0.015625)"/>
      <path id="DejaVuSans-4d" d="M 628 4666 
L 1569 4666 
L 2759 1491 
L 3956 4666 
L 4897 4666 
L 4897 0 
L 4281 0 
L 4281 4097 
L 3078 897 
L 2444 897 
L 1241 4097 
L 1241 0 
L 628 0 
L 628 4666 
z
" transform="scale(0.015625)"/>
      <path id="DejaVuSans-53" d="M 3425 4513 
L 3425 3897 
Q 3066 4069 2747 4153 
Q 2428 4238 2131 4238 
Q 1616 4238 1336 4038 
Q 1056 3838 1056 3469 
Q 1056 3159 1242 3001 
Q 1428 2844 1947 2747 
L 2328 2669 
Q 3034 2534 3370 2195 
Q 3706 1856 3706 1288 
Q 3706 609 3251 259 
Q 2797 -91 1919 -91 
Q 1588 -91 1214 -16 
Q 841 59 441 206 
L 441 856 
Q 825 641 1194 531 
Q 1563 422 1919 422 
Q 2459 422 2753 634 
Q 3047 847 3047 1241 
Q 3047 1584 2836 1778 
Q 2625 1972 2144 2069 
L 1759 2144 
Q 1053 2284 737 2584 
Q 422 2884 422 3419 
Q 422 4038 858 4394 
Q 1294 4750 2059 4750 
Q 2388 4750 2728 4690 
Q 3069 4631 3425 4513 
z
" transform="scale(0.015625)"/>
     </defs>
     <use xlink:href="#DejaVuSans-45"/>
     <use xlink:href="#DejaVuSans-66" x="63.183594"/>
     <use xlink:href="#DejaVuSans-66" x="98.388672"/>
     <use xlink:href="#DejaVuSans-65" x="133.59375"/>
     <use xlink:href="#DejaVuSans-63" x="195.117188"/>
     <use xlink:href="#DejaVuSans-74" x="250.097656"/>
     <use xlink:href="#DejaVuSans-20" x="289.306641"/>
     <use xlink:href="#DejaVuSans-6f" x="321.09375"/>
     <use xlink:href="#DejaVuSans-66" x="382.275391"/>
     <use xlink:href="#DejaVuSans-20" x="417.480469"/>
     <use xlink:href="#DejaVuSans-3bc" x="449.267578"/>
     <use xlink:href="#DejaVuSans-27" x="512.890625"/>
     <use xlink:href="#DejaVuSans-73" x="540.380859"/>
     <use xlink:href="#DejaVuSans-20" x="592.480469"/>
     <use xlink:href="#DejaVuSans-4c" x="624.267578"/>
     <use xlink:href="#DejaVuSans-65" x="678.230469"/>
     <use xlink:href="#DejaVuSans-6e" x="739.753906"/>
     <use xlink:href="#DejaVuSans-67" x="803.132812"/>
     <use xlink:href="#DejaVuSans-74" x="866.609375"/>
     <use xlink:href="#DejaVuSans-68" x="905.818359"/>
     <use xlink:href="#DejaVuSans-20" x="969.197266"/>
     <use xlink:href="#DejaVuSans-6f" x="1000.984375"/>
     <use xlink:href="#DejaVuSans-6e" x="1062.166016"/>
     <use xlink:href="#DejaVuSans-20" x="1125.544922"/>
     <use xlink:href="#DejaVuSans-4d" x="1157.332031"/>
     <use xlink:href="#DejaVuSans-53" x="1243.611328"/>
     <use xlink:href="#DejaVuSans-45" x="1307.087891"/>
    </g>
   </g>
  </g>
 </g>
 <defs>
  <clipPath id="pc7ff588763">
   <rect x="57.6" y="41.472" width="357.12" height="266.112"/>
  </clipPath>
 </defs>
</svg>
