<?xml version="1.0" encoding="utf-8" standalone="no"?>
<!DOCTYPE svg PUBLIC "-//W3C//DTD SVG 1.1//EN"
  "http://www.w3.org/Graphics/SVG/1.1/DTD/svg11.dtd">
<svg xmlns:xlink="http://www.w3.org/1999/xlink" width="460.8pt" height="345.6pt" viewBox="0 0 460.8 345.6" xmlns="http://www.w3.org/2000/svg" version="1.1">
 <metadata>
  <rdf:RDF xmlns:dc="http://purl.org/dc/elements/1.1/" xmlns:cc="http://creativecommons.org/ns#" xmlns:rdf="http://www.w3.org/1999/02/22-rdf-syntax-ns#">
   <cc:Work>
    <dc:type rdf:resource="http://purl.org/dc/dcmitype/StillImage"/>
    <dc:date>2023-04-30T01:44:25.960331</dc:date>
    <dc:format>image/svg+xml</dc:format>
    <dc:creator>
     <cc:Agent>
      <dc:title>Matplotlib v3.6.3, https://matplotlib.org/</dc:title>
     </cc:Agent>
    </dc:creator>
   </cc:Work>
  </rdf:RDF>
 </metadata>
 <defs>
  <style type="text/css">*{stroke-linejoin: round; stroke-linecap: butt}</style>
 </defs>
 <g id="figure_1">
  <g id="patch_1">
   <path d="M 0 345.6 
L 460.8 345.6 
L 460.8 0 
L 0 0 
z
" style="fill: #ffffff"/>
  </g>
  <g id="axes_1">
   <g id="patch_2">
    <path d="M 57.6 307.584 
L 414.72 307.584 
L 414.72 41.472 
L 57.6 41.472 
z
" style="fill: #ffffff"/>
   </g>
   <g id="matplotlib.axis_1">
    <g id="xtick_1">
     <g id="line2d_1">
      <defs>
       <path id="mbb859b0024" d="M 0 0 
L 0 3.5 
" style="stroke: #000000; stroke-width: 0.8"/>
      </defs>
      <g>
       <use xlink:href="#mbb859b0024" x="73.832727" y="307.584" style="stroke: #000000; stroke-width: 0.8"/>
      </g>
     </g>
     <g id="text_1">
      <!-- 0 -->
      <g transform="translate(70.015227 323.702125) scale(0.12 -0.12)">
       <defs>
        <path id="DejaVuSans-30" d="M 2034 4250 
Q 1547 4250 1301 3770 
Q 1056 3291 1056 2328 
Q 1056 1369 1301 889 
Q 1547 409 2034 409 
Q 2525 409 2770 889 
Q 3016 1369 3016 2328 
Q 3016 3291 2770 3770 
Q 2525 4250 2034 4250 
z
M 2034 4750 
Q 2819 4750 3233 4129 
Q 3647 3509 3647 2328 
Q 3647 1150 3233 529 
Q 2819 -91 2034 -91 
Q 1250 -91 836 529 
Q 422 1150 422 2328 
Q 422 3509 836 4129 
Q 1250 4750 2034 4750 
z
" transform="scale(0.015625)"/>
       </defs>
       <use xlink:href="#DejaVuSans-30"/>
      </g>
     </g>
    </g>
    <g id="xtick_2">
     <g id="line2d_2">
      <g>
       <use xlink:href="#mbb859b0024" x="139.419504" y="307.584" style="stroke: #000000; stroke-width: 0.8"/>
      </g>
     </g>
     <g id="text_2">
      <!-- 20 -->
      <g transform="translate(131.784504 323.702125) scale(0.12 -0.12)">
       <defs>
        <path id="DejaVuSans-32" d="M 1228 531 
L 3431 531 
L 3431 0 
L 469 0 
L 469 531 
Q 828 903 1448 1529 
Q 2069 2156 2228 2338 
Q 2531 2678 2651 2914 
Q 2772 3150 2772 3378 
Q 2772 3750 2511 3984 
Q 2250 4219 1831 4219 
Q 1534 4219 1204 4116 
Q 875 4013 500 3803 
L 500 4441 
Q 881 4594 1212 4672 
Q 1544 4750 1819 4750 
Q 2544 4750 2975 4387 
Q 3406 4025 3406 3419 
Q 3406 3131 3298 2873 
Q 3191 2616 2906 2266 
Q 2828 2175 2409 1742 
Q 1991 1309 1228 531 
z
" transform="scale(0.015625)"/>
       </defs>
       <use xlink:href="#DejaVuSans-32"/>
       <use xlink:href="#DejaVuSans-30" x="63.623047"/>
      </g>
     </g>
    </g>
    <g id="xtick_3">
     <g id="line2d_3">
      <g>
       <use xlink:href="#mbb859b0024" x="205.006281" y="307.584" style="stroke: #000000; stroke-width: 0.8"/>
      </g>
     </g>
     <g id="text_3">
      <!-- 40 -->
      <g transform="translate(197.371281 323.702125) scale(0.12 -0.12)">
       <defs>
        <path id="DejaVuSans-34" d="M 2419 4116 
L 825 1625 
L 2419 1625 
L 2419 4116 
z
M 2253 4666 
L 3047 4666 
L 3047 1625 
L 3713 1625 
L 3713 1100 
L 3047 1100 
L 3047 0 
L 2419 0 
L 2419 1100 
L 313 1100 
L 313 1709 
L 2253 4666 
z
" transform="scale(0.015625)"/>
       </defs>
       <use xlink:href="#DejaVuSans-34"/>
       <use xlink:href="#DejaVuSans-30" x="63.623047"/>
      </g>
     </g>
    </g>
    <g id="xtick_4">
     <g id="line2d_4">
      <g>
       <use xlink:href="#mbb859b0024" x="270.593058" y="307.584" style="stroke: #000000; stroke-width: 0.8"/>
      </g>
     </g>
     <g id="text_4">
      <!-- 60 -->
      <g transform="translate(262.958058 323.702125) scale(0.12 -0.12)">
       <defs>
        <path id="DejaVuSans-36" d="M 2113 2584 
Q 1688 2584 1439 2293 
Q 1191 2003 1191 1497 
Q 1191 994 1439 701 
Q 1688 409 2113 409 
Q 2538 409 2786 701 
Q 3034 994 3034 1497 
Q 3034 2003 2786 2293 
Q 2538 2584 2113 2584 
z
M 3366 4563 
L 3366 3988 
Q 3128 4100 2886 4159 
Q 2644 4219 2406 4219 
Q 1781 4219 1451 3797 
Q 1122 3375 1075 2522 
Q 1259 2794 1537 2939 
Q 1816 3084 2150 3084 
Q 2853 3084 3261 2657 
Q 3669 2231 3669 1497 
Q 3669 778 3244 343 
Q 2819 -91 2113 -91 
Q 1303 -91 875 529 
Q 447 1150 447 2328 
Q 447 3434 972 4092 
Q 1497 4750 2381 4750 
Q 2619 4750 2861 4703 
Q 3103 4656 3366 4563 
z
" transform="scale(0.015625)"/>
       </defs>
       <use xlink:href="#DejaVuSans-36"/>
       <use xlink:href="#DejaVuSans-30" x="63.623047"/>
      </g>
     </g>
    </g>
    <g id="xtick_5">
     <g id="line2d_5">
      <g>
       <use xlink:href="#mbb859b0024" x="336.179835" y="307.584" style="stroke: #000000; stroke-width: 0.8"/>
      </g>
     </g>
     <g id="text_5">
      <!-- 80 -->
      <g transform="translate(328.544835 323.702125) scale(0.12 -0.12)">
       <defs>
        <path id="DejaVuSans-38" d="M 2034 2216 
Q 1584 2216 1326 1975 
Q 1069 1734 1069 1313 
Q 1069 891 1326 650 
Q 1584 409 2034 409 
Q 2484 409 2743 651 
Q 3003 894 3003 1313 
Q 3003 1734 2745 1975 
Q 2488 2216 2034 2216 
z
M 1403 2484 
Q 997 2584 770 2862 
Q 544 3141 544 3541 
Q 544 4100 942 4425 
Q 1341 4750 2034 4750 
Q 2731 4750 3128 4425 
Q 3525 4100 3525 3541 
Q 3525 3141 3298 2862 
Q 3072 2584 2669 2484 
Q 3125 2378 3379 2068 
Q 3634 1759 3634 1313 
Q 3634 634 3220 271 
Q 2806 -91 2034 -91 
Q 1263 -91 848 271 
Q 434 634 434 1313 
Q 434 1759 690 2068 
Q 947 2378 1403 2484 
z
M 1172 3481 
Q 1172 3119 1398 2916 
Q 1625 2713 2034 2713 
Q 2441 2713 2670 2916 
Q 2900 3119 2900 3481 
Q 2900 3844 2670 4047 
Q 2441 4250 2034 4250 
Q 1625 4250 1398 4047 
Q 1172 3844 1172 3481 
z
" transform="scale(0.015625)"/>
       </defs>
       <use xlink:href="#DejaVuSans-38"/>
       <use xlink:href="#DejaVuSans-30" x="63.623047"/>
      </g>
     </g>
    </g>
    <g id="xtick_6">
     <g id="line2d_6">
      <g>
       <use xlink:href="#mbb859b0024" x="401.766612" y="307.584" style="stroke: #000000; stroke-width: 0.8"/>
      </g>
     </g>
     <g id="text_6">
      <!-- 100 -->
      <g transform="translate(390.314112 323.702125) scale(0.12 -0.12)">
       <defs>
        <path id="DejaVuSans-31" d="M 794 531 
L 1825 531 
L 1825 4091 
L 703 3866 
L 703 4441 
L 1819 4666 
L 2450 4666 
L 2450 531 
L 3481 531 
L 3481 0 
L 794 0 
L 794 531 
z
" transform="scale(0.015625)"/>
       </defs>
       <use xlink:href="#DejaVuSans-31"/>
       <use xlink:href="#DejaVuSans-30" x="63.623047"/>
       <use xlink:href="#DejaVuSans-30" x="127.246094"/>
      </g>
     </g>
    </g>
    <g id="text_7">
     <!-- Variance -->
     <g transform="translate(205.92 340.835562) scale(0.14 -0.14)">
      <defs>
       <path id="DejaVuSans-56" d="M 1831 0 
L 50 4666 
L 709 4666 
L 2188 738 
L 3669 4666 
L 4325 4666 
L 2547 0 
L 1831 0 
z
" transform="scale(0.015625)"/>
       <path id="DejaVuSans-61" d="M 2194 1759 
Q 1497 1759 1228 1600 
Q 959 1441 959 1056 
Q 959 750 1161 570 
Q 1363 391 1709 391 
Q 2188 391 2477 730 
Q 2766 1069 2766 1631 
L 2766 1759 
L 2194 1759 
z
M 3341 1997 
L 3341 0 
L 2766 0 
L 2766 531 
Q 2569 213 2275 61 
Q 1981 -91 1556 -91 
Q 1019 -91 701 211 
Q 384 513 384 1019 
Q 384 1609 779 1909 
Q 1175 2209 1959 2209 
L 2766 2209 
L 2766 2266 
Q 2766 2663 2505 2880 
Q 2244 3097 1772 3097 
Q 1472 3097 1187 3025 
Q 903 2953 641 2809 
L 641 3341 
Q 956 3463 1253 3523 
Q 1550 3584 1831 3584 
Q 2591 3584 2966 3190 
Q 3341 2797 3341 1997 
z
" transform="scale(0.015625)"/>
       <path id="DejaVuSans-72" d="M 2631 2963 
Q 2534 3019 2420 3045 
Q 2306 3072 2169 3072 
Q 1681 3072 1420 2755 
Q 1159 2438 1159 1844 
L 1159 0 
L 581 0 
L 581 3500 
L 1159 3500 
L 1159 2956 
Q 1341 3275 1631 3429 
Q 1922 3584 2338 3584 
Q 2397 3584 2469 3576 
Q 2541 3569 2628 3553 
L 2631 2963 
z
" transform="scale(0.015625)"/>
       <path id="DejaVuSans-69" d="M 603 3500 
L 1178 3500 
L 1178 0 
L 603 0 
L 603 3500 
z
M 603 4863 
L 1178 4863 
L 1178 4134 
L 603 4134 
L 603 4863 
z
" transform="scale(0.015625)"/>
       <path id="DejaVuSans-6e" d="M 3513 2113 
L 3513 0 
L 2938 0 
L 2938 2094 
Q 2938 2591 2744 2837 
Q 2550 3084 2163 3084 
Q 1697 3084 1428 2787 
Q 1159 2491 1159 1978 
L 1159 0 
L 581 0 
L 581 3500 
L 1159 3500 
L 1159 2956 
Q 1366 3272 1645 3428 
Q 1925 3584 2291 3584 
Q 2894 3584 3203 3211 
Q 3513 2838 3513 2113 
z
" transform="scale(0.015625)"/>
       <path id="DejaVuSans-63" d="M 3122 3366 
L 3122 2828 
Q 2878 2963 2633 3030 
Q 2388 3097 2138 3097 
Q 1578 3097 1268 2742 
Q 959 2388 959 1747 
Q 959 1106 1268 751 
Q 1578 397 2138 397 
Q 2388 397 2633 464 
Q 2878 531 3122 666 
L 3122 134 
Q 2881 22 2623 -34 
Q 2366 -91 2075 -91 
Q 1284 -91 818 406 
Q 353 903 353 1747 
Q 353 2603 823 3093 
Q 1294 3584 2113 3584 
Q 2378 3584 2631 3529 
Q 2884 3475 3122 3366 
z
" transform="scale(0.015625)"/>
       <path id="DejaVuSans-65" d="M 3597 1894 
L 3597 1613 
L 953 1613 
Q 991 1019 1311 708 
Q 1631 397 2203 397 
Q 2534 397 2845 478 
Q 3156 559 3463 722 
L 3463 178 
Q 3153 47 2828 -22 
Q 2503 -91 2169 -91 
Q 1331 -91 842 396 
Q 353 884 353 1716 
Q 353 2575 817 3079 
Q 1281 3584 2069 3584 
Q 2775 3584 3186 3129 
Q 3597 2675 3597 1894 
z
M 3022 2063 
Q 3016 2534 2758 2815 
Q 2500 3097 2075 3097 
Q 1594 3097 1305 2825 
Q 1016 2553 972 2059 
L 3022 2063 
z
" transform="scale(0.015625)"/>
      </defs>
      <use xlink:href="#DejaVuSans-56"/>
      <use xlink:href="#DejaVuSans-61" x="60.658203"/>
      <use xlink:href="#DejaVuSans-72" x="121.9375"/>
      <use xlink:href="#DejaVuSans-69" x="163.050781"/>
      <use xlink:href="#DejaVuSans-61" x="190.833984"/>
      <use xlink:href="#DejaVuSans-6e" x="252.113281"/>
      <use xlink:href="#DejaVuSans-63" x="315.492188"/>
      <use xlink:href="#DejaVuSans-65" x="370.472656"/>
     </g>
    </g>
   </g>
   <g id="matplotlib.axis_2">
    <g id="ytick_1">
     <g id="line2d_7">
      <defs>
       <path id="mf6a8f10b5b" d="M 0 0 
L -3.5 0 
" style="stroke: #000000; stroke-width: 0.8"/>
      </defs>
      <g>
       <use xlink:href="#mf6a8f10b5b" x="57.6" y="278.711883" style="stroke: #000000; stroke-width: 0.8"/>
      </g>
     </g>
     <g id="text_8">
      <!-- 0.3 -->
      <g transform="translate(31.51625 283.270946) scale(0.12 -0.12)">
       <defs>
        <path id="DejaVuSans-2e" d="M 684 794 
L 1344 794 
L 1344 0 
L 684 0 
L 684 794 
z
" transform="scale(0.015625)"/>
        <path id="DejaVuSans-33" d="M 2597 2516 
Q 3050 2419 3304 2112 
Q 3559 1806 3559 1356 
Q 3559 666 3084 287 
Q 2609 -91 1734 -91 
Q 1441 -91 1130 -33 
Q 819 25 488 141 
L 488 750 
Q 750 597 1062 519 
Q 1375 441 1716 441 
Q 2309 441 2620 675 
Q 2931 909 2931 1356 
Q 2931 1769 2642 2001 
Q 2353 2234 1838 2234 
L 1294 2234 
L 1294 2753 
L 1863 2753 
Q 2328 2753 2575 2939 
Q 2822 3125 2822 3475 
Q 2822 3834 2567 4026 
Q 2313 4219 1838 4219 
Q 1578 4219 1281 4162 
Q 984 4106 628 3988 
L 628 4550 
Q 988 4650 1302 4700 
Q 1616 4750 1894 4750 
Q 2613 4750 3031 4423 
Q 3450 4097 3450 3541 
Q 3450 3153 3228 2886 
Q 3006 2619 2597 2516 
z
" transform="scale(0.015625)"/>
       </defs>
       <use xlink:href="#DejaVuSans-30"/>
       <use xlink:href="#DejaVuSans-2e" x="63.623047"/>
       <use xlink:href="#DejaVuSans-33" x="95.410156"/>
      </g>
     </g>
    </g>
    <g id="ytick_2">
     <g id="line2d_8">
      <g>
       <use xlink:href="#mf6a8f10b5b" x="57.6" y="246.024377" style="stroke: #000000; stroke-width: 0.8"/>
      </g>
     </g>
     <g id="text_9">
      <!-- 0.4 -->
      <g transform="translate(31.51625 250.58344) scale(0.12 -0.12)">
       <use xlink:href="#DejaVuSans-30"/>
       <use xlink:href="#DejaVuSans-2e" x="63.623047"/>
       <use xlink:href="#DejaVuSans-34" x="95.410156"/>
      </g>
     </g>
    </g>
    <g id="ytick_3">
     <g id="line2d_9">
      <g>
       <use xlink:href="#mf6a8f10b5b" x="57.6" y="213.336871" style="stroke: #000000; stroke-width: 0.8"/>
      </g>
     </g>
     <g id="text_10">
      <!-- 0.5 -->
      <g transform="translate(31.51625 217.895933) scale(0.12 -0.12)">
       <defs>
        <path id="DejaVuSans-35" d="M 691 4666 
L 3169 4666 
L 3169 4134 
L 1269 4134 
L 1269 2991 
Q 1406 3038 1543 3061 
Q 1681 3084 1819 3084 
Q 2600 3084 3056 2656 
Q 3513 2228 3513 1497 
Q 3513 744 3044 326 
Q 2575 -91 1722 -91 
Q 1428 -91 1123 -41 
Q 819 9 494 109 
L 494 744 
Q 775 591 1075 516 
Q 1375 441 1709 441 
Q 2250 441 2565 725 
Q 2881 1009 2881 1497 
Q 2881 1984 2565 2268 
Q 2250 2553 1709 2553 
Q 1456 2553 1204 2497 
Q 953 2441 691 2322 
L 691 4666 
z
" transform="scale(0.015625)"/>
       </defs>
       <use xlink:href="#DejaVuSans-30"/>
       <use xlink:href="#DejaVuSans-2e" x="63.623047"/>
       <use xlink:href="#DejaVuSans-35" x="95.410156"/>
      </g>
     </g>
    </g>
    <g id="ytick_4">
     <g id="line2d_10">
      <g>
       <use xlink:href="#mf6a8f10b5b" x="57.6" y="180.649364" style="stroke: #000000; stroke-width: 0.8"/>
      </g>
     </g>
     <g id="text_11">
      <!-- 0.6 -->
      <g transform="translate(31.51625 185.208427) scale(0.12 -0.12)">
       <use xlink:href="#DejaVuSans-30"/>
       <use xlink:href="#DejaVuSans-2e" x="63.623047"/>
       <use xlink:href="#DejaVuSans-36" x="95.410156"/>
      </g>
     </g>
    </g>
    <g id="ytick_5">
     <g id="line2d_11">
      <g>
       <use xlink:href="#mf6a8f10b5b" x="57.6" y="147.961858" style="stroke: #000000; stroke-width: 0.8"/>
      </g>
     </g>
     <g id="text_12">
      <!-- 0.7 -->
      <g transform="translate(31.51625 152.52092) scale(0.12 -0.12)">
       <defs>
        <path id="DejaVuSans-37" d="M 525 4666 
L 3525 4666 
L 3525 4397 
L 1831 0 
L 1172 0 
L 2766 4134 
L 525 4134 
L 525 4666 
z
" transform="scale(0.015625)"/>
       </defs>
       <use xlink:href="#DejaVuSans-30"/>
       <use xlink:href="#DejaVuSans-2e" x="63.623047"/>
       <use xlink:href="#DejaVuSans-37" x="95.410156"/>
      </g>
     </g>
    </g>
    <g id="ytick_6">
     <g id="line2d_12">
      <g>
       <use xlink:href="#mf6a8f10b5b" x="57.6" y="115.274351" style="stroke: #000000; stroke-width: 0.8"/>
      </g>
     </g>
     <g id="text_13">
      <!-- 0.8 -->
      <g transform="translate(31.51625 119.833414) scale(0.12 -0.12)">
       <use xlink:href="#DejaVuSans-30"/>
       <use xlink:href="#DejaVuSans-2e" x="63.623047"/>
       <use xlink:href="#DejaVuSans-38" x="95.410156"/>
      </g>
     </g>
    </g>
    <g id="ytick_7">
     <g id="line2d_13">
      <g>
       <use xlink:href="#mf6a8f10b5b" x="57.6" y="82.586845" style="stroke: #000000; stroke-width: 0.8"/>
      </g>
     </g>
     <g id="text_14">
      <!-- 0.9 -->
      <g transform="translate(31.51625 87.145908) scale(0.12 -0.12)">
       <defs>
        <path id="DejaVuSans-39" d="M 703 97 
L 703 672 
Q 941 559 1184 500 
Q 1428 441 1663 441 
Q 2288 441 2617 861 
Q 2947 1281 2994 2138 
Q 2813 1869 2534 1725 
Q 2256 1581 1919 1581 
Q 1219 1581 811 2004 
Q 403 2428 403 3163 
Q 403 3881 828 4315 
Q 1253 4750 1959 4750 
Q 2769 4750 3195 4129 
Q 3622 3509 3622 2328 
Q 3622 1225 3098 567 
Q 2575 -91 1691 -91 
Q 1453 -91 1209 -44 
Q 966 3 703 97 
z
M 1959 2075 
Q 2384 2075 2632 2365 
Q 2881 2656 2881 3163 
Q 2881 3666 2632 3958 
Q 2384 4250 1959 4250 
Q 1534 4250 1286 3958 
Q 1038 3666 1038 3163 
Q 1038 2656 1286 2365 
Q 1534 2075 1959 2075 
z
" transform="scale(0.015625)"/>
       </defs>
       <use xlink:href="#DejaVuSans-30"/>
       <use xlink:href="#DejaVuSans-2e" x="63.623047"/>
       <use xlink:href="#DejaVuSans-39" x="95.410156"/>
      </g>
     </g>
    </g>
    <g id="ytick_8">
     <g id="line2d_14">
      <g>
       <use xlink:href="#mf6a8f10b5b" x="57.6" y="49.899339" style="stroke: #000000; stroke-width: 0.8"/>
      </g>
     </g>
     <g id="text_15">
      <!-- 1.0 -->
      <g transform="translate(31.51625 54.458401) scale(0.12 -0.12)">
       <use xlink:href="#DejaVuSans-31"/>
       <use xlink:href="#DejaVuSans-2e" x="63.623047"/>
       <use xlink:href="#DejaVuSans-30" x="95.410156"/>
      </g>
     </g>
    </g>
    <g id="text_16">
     <!-- r -->
     <g transform="translate(24.604688 177.405656) rotate(-90) scale(0.14 -0.14)">
      <use xlink:href="#DejaVuSans-72"/>
     </g>
    </g>
   </g>
   <g id="line2d_15">
    <defs>
     <path id="mb1301db1af" d="M 0 3 
C 0.795609 3 1.55874 2.683901 2.12132 2.12132 
C 2.683901 1.55874 3 0.795609 3 0 
C 3 -0.795609 2.683901 -1.55874 2.12132 -2.12132 
C 1.55874 -2.683901 0.795609 -3 0 -3 
C -0.795609 -3 -1.55874 -2.683901 -2.12132 -2.12132 
C -2.683901 -1.55874 -3 -0.795609 -3 0 
C -3 0.795609 -2.683901 1.55874 -2.12132 2.12132 
C -1.55874 2.683901 -0.795609 3 0 3 
z
" style="stroke: #1f77b4"/>
    </defs>
    <g clip-path="url(#p080e8b8638)">
     <use xlink:href="#mb1301db1af" x="73.832727" y="228.542105" style="fill: #1f77b4; stroke: #1f77b4"/>
     <use xlink:href="#mb1301db1af" x="77.112066" y="154.104016" style="fill: #1f77b4; stroke: #1f77b4"/>
     <use xlink:href="#mb1301db1af" x="80.391405" y="273.338037" style="fill: #1f77b4; stroke: #1f77b4"/>
     <use xlink:href="#mb1301db1af" x="83.670744" y="240.679879" style="fill: #1f77b4; stroke: #1f77b4"/>
     <use xlink:href="#mb1301db1af" x="86.950083" y="295.488" style="fill: #1f77b4; stroke: #1f77b4"/>
     <use xlink:href="#mb1301db1af" x="90.229421" y="132.245619" style="fill: #1f77b4; stroke: #1f77b4"/>
     <use xlink:href="#mb1301db1af" x="93.50876" y="110.430919" style="fill: #1f77b4; stroke: #1f77b4"/>
     <use xlink:href="#mb1301db1af" x="96.788099" y="83.221153" style="fill: #1f77b4; stroke: #1f77b4"/>
     <use xlink:href="#mb1301db1af" x="100.067438" y="124.691759" style="fill: #1f77b4; stroke: #1f77b4"/>
     <use xlink:href="#mb1301db1af" x="103.346777" y="103.146193" style="fill: #1f77b4; stroke: #1f77b4"/>
     <use xlink:href="#mb1301db1af" x="106.626116" y="101.272115" style="fill: #1f77b4; stroke: #1f77b4"/>
     <use xlink:href="#mb1301db1af" x="109.905455" y="78.3967" style="fill: #1f77b4; stroke: #1f77b4"/>
     <use xlink:href="#mb1301db1af" x="113.184793" y="96.450667" style="fill: #1f77b4; stroke: #1f77b4"/>
     <use xlink:href="#mb1301db1af" x="116.464132" y="76.762786" style="fill: #1f77b4; stroke: #1f77b4"/>
     <use xlink:href="#mb1301db1af" x="119.743471" y="107.25398" style="fill: #1f77b4; stroke: #1f77b4"/>
     <use xlink:href="#mb1301db1af" x="123.02281" y="66.712825" style="fill: #1f77b4; stroke: #1f77b4"/>
     <use xlink:href="#mb1301db1af" x="126.302149" y="95.725877" style="fill: #1f77b4; stroke: #1f77b4"/>
     <use xlink:href="#mb1301db1af" x="129.581488" y="77.166738" style="fill: #1f77b4; stroke: #1f77b4"/>
     <use xlink:href="#mb1301db1af" x="132.860826" y="112.630778" style="fill: #1f77b4; stroke: #1f77b4"/>
     <use xlink:href="#mb1301db1af" x="136.140165" y="72.158397" style="fill: #1f77b4; stroke: #1f77b4"/>
     <use xlink:href="#mb1301db1af" x="139.419504" y="85.70177" style="fill: #1f77b4; stroke: #1f77b4"/>
     <use xlink:href="#mb1301db1af" x="142.698843" y="73.772662" style="fill: #1f77b4; stroke: #1f77b4"/>
     <use xlink:href="#mb1301db1af" x="145.978182" y="137.850339" style="fill: #1f77b4; stroke: #1f77b4"/>
     <use xlink:href="#mb1301db1af" x="149.257521" y="67.381671" style="fill: #1f77b4; stroke: #1f77b4"/>
     <use xlink:href="#mb1301db1af" x="152.53686" y="67.767024" style="fill: #1f77b4; stroke: #1f77b4"/>
     <use xlink:href="#mb1301db1af" x="155.816198" y="77.431658" style="fill: #1f77b4; stroke: #1f77b4"/>
     <use xlink:href="#mb1301db1af" x="159.095537" y="104.60986" style="fill: #1f77b4; stroke: #1f77b4"/>
     <use xlink:href="#mb1301db1af" x="162.374876" y="65.321915" style="fill: #1f77b4; stroke: #1f77b4"/>
     <use xlink:href="#mb1301db1af" x="165.654215" y="67.778594" style="fill: #1f77b4; stroke: #1f77b4"/>
     <use xlink:href="#mb1301db1af" x="168.933554" y="101.561054" style="fill: #1f77b4; stroke: #1f77b4"/>
     <use xlink:href="#mb1301db1af" x="172.212893" y="58.452954" style="fill: #1f77b4; stroke: #1f77b4"/>
     <use xlink:href="#mb1301db1af" x="175.492231" y="76.30556" style="fill: #1f77b4; stroke: #1f77b4"/>
     <use xlink:href="#mb1301db1af" x="178.77157" y="67.647643" style="fill: #1f77b4; stroke: #1f77b4"/>
     <use xlink:href="#mb1301db1af" x="182.050909" y="62.842077" style="fill: #1f77b4; stroke: #1f77b4"/>
     <use xlink:href="#mb1301db1af" x="185.330248" y="62.926177" style="fill: #1f77b4; stroke: #1f77b4"/>
     <use xlink:href="#mb1301db1af" x="188.609587" y="71.429874" style="fill: #1f77b4; stroke: #1f77b4"/>
     <use xlink:href="#mb1301db1af" x="191.888926" y="60.217937" style="fill: #1f77b4; stroke: #1f77b4"/>
     <use xlink:href="#mb1301db1af" x="195.168264" y="81.791653" style="fill: #1f77b4; stroke: #1f77b4"/>
     <use xlink:href="#mb1301db1af" x="198.447603" y="127.423655" style="fill: #1f77b4; stroke: #1f77b4"/>
     <use xlink:href="#mb1301db1af" x="201.726942" y="66.670578" style="fill: #1f77b4; stroke: #1f77b4"/>
     <use xlink:href="#mb1301db1af" x="205.006281" y="57.753716" style="fill: #1f77b4; stroke: #1f77b4"/>
     <use xlink:href="#mb1301db1af" x="208.28562" y="84.237623" style="fill: #1f77b4; stroke: #1f77b4"/>
     <use xlink:href="#mb1301db1af" x="211.564959" y="61.829618" style="fill: #1f77b4; stroke: #1f77b4"/>
     <use xlink:href="#mb1301db1af" x="214.844298" y="69.73449" style="fill: #1f77b4; stroke: #1f77b4"/>
     <use xlink:href="#mb1301db1af" x="218.123636" y="68.842873" style="fill: #1f77b4; stroke: #1f77b4"/>
     <use xlink:href="#mb1301db1af" x="221.402975" y="64.008969" style="fill: #1f77b4; stroke: #1f77b4"/>
     <use xlink:href="#mb1301db1af" x="224.682314" y="57.690542" style="fill: #1f77b4; stroke: #1f77b4"/>
     <use xlink:href="#mb1301db1af" x="227.961653" y="65.963526" style="fill: #1f77b4; stroke: #1f77b4"/>
     <use xlink:href="#mb1301db1af" x="231.240992" y="62.274858" style="fill: #1f77b4; stroke: #1f77b4"/>
     <use xlink:href="#mb1301db1af" x="234.520331" y="62.595305" style="fill: #1f77b4; stroke: #1f77b4"/>
     <use xlink:href="#mb1301db1af" x="237.799669" y="91.92515" style="fill: #1f77b4; stroke: #1f77b4"/>
     <use xlink:href="#mb1301db1af" x="241.079008" y="76.201185" style="fill: #1f77b4; stroke: #1f77b4"/>
     <use xlink:href="#mb1301db1af" x="244.358347" y="58.631421" style="fill: #1f77b4; stroke: #1f77b4"/>
     <use xlink:href="#mb1301db1af" x="247.637686" y="68.810765" style="fill: #1f77b4; stroke: #1f77b4"/>
     <use xlink:href="#mb1301db1af" x="250.917025" y="74.773654" style="fill: #1f77b4; stroke: #1f77b4"/>
     <use xlink:href="#mb1301db1af" x="254.196364" y="64.773599" style="fill: #1f77b4; stroke: #1f77b4"/>
     <use xlink:href="#mb1301db1af" x="257.475702" y="59.459909" style="fill: #1f77b4; stroke: #1f77b4"/>
     <use xlink:href="#mb1301db1af" x="260.755041" y="55.282602" style="fill: #1f77b4; stroke: #1f77b4"/>
     <use xlink:href="#mb1301db1af" x="264.03438" y="55.135118" style="fill: #1f77b4; stroke: #1f77b4"/>
     <use xlink:href="#mb1301db1af" x="267.313719" y="63.249737" style="fill: #1f77b4; stroke: #1f77b4"/>
     <use xlink:href="#mb1301db1af" x="270.593058" y="56.765152" style="fill: #1f77b4; stroke: #1f77b4"/>
     <use xlink:href="#mb1301db1af" x="273.872397" y="57.371309" style="fill: #1f77b4; stroke: #1f77b4"/>
     <use xlink:href="#mb1301db1af" x="277.151736" y="57.214988" style="fill: #1f77b4; stroke: #1f77b4"/>
     <use xlink:href="#mb1301db1af" x="280.431074" y="57.69321" style="fill: #1f77b4; stroke: #1f77b4"/>
     <use xlink:href="#mb1301db1af" x="283.710413" y="58.612986" style="fill: #1f77b4; stroke: #1f77b4"/>
     <use xlink:href="#mb1301db1af" x="286.989752" y="60.864361" style="fill: #1f77b4; stroke: #1f77b4"/>
     <use xlink:href="#mb1301db1af" x="290.269091" y="61.132577" style="fill: #1f77b4; stroke: #1f77b4"/>
     <use xlink:href="#mb1301db1af" x="293.54843" y="63.629353" style="fill: #1f77b4; stroke: #1f77b4"/>
     <use xlink:href="#mb1301db1af" x="296.827769" y="60.257491" style="fill: #1f77b4; stroke: #1f77b4"/>
     <use xlink:href="#mb1301db1af" x="300.107107" y="56.560708" style="fill: #1f77b4; stroke: #1f77b4"/>
     <use xlink:href="#mb1301db1af" x="303.386446" y="55.271341" style="fill: #1f77b4; stroke: #1f77b4"/>
     <use xlink:href="#mb1301db1af" x="306.665785" y="64.079968" style="fill: #1f77b4; stroke: #1f77b4"/>
     <use xlink:href="#mb1301db1af" x="309.945124" y="58.237637" style="fill: #1f77b4; stroke: #1f77b4"/>
     <use xlink:href="#mb1301db1af" x="313.224463" y="59.239283" style="fill: #1f77b4; stroke: #1f77b4"/>
     <use xlink:href="#mb1301db1af" x="316.503802" y="54.111698" style="fill: #1f77b4; stroke: #1f77b4"/>
     <use xlink:href="#mb1301db1af" x="319.78314" y="58.901873" style="fill: #1f77b4; stroke: #1f77b4"/>
     <use xlink:href="#mb1301db1af" x="323.062479" y="60.425578" style="fill: #1f77b4; stroke: #1f77b4"/>
     <use xlink:href="#mb1301db1af" x="326.341818" y="58.146869" style="fill: #1f77b4; stroke: #1f77b4"/>
     <use xlink:href="#mb1301db1af" x="329.621157" y="54.552091" style="fill: #1f77b4; stroke: #1f77b4"/>
     <use xlink:href="#mb1301db1af" x="332.900496" y="59.580116" style="fill: #1f77b4; stroke: #1f77b4"/>
     <use xlink:href="#mb1301db1af" x="336.179835" y="54.083219" style="fill: #1f77b4; stroke: #1f77b4"/>
     <use xlink:href="#mb1301db1af" x="339.459174" y="58.402417" style="fill: #1f77b4; stroke: #1f77b4"/>
     <use xlink:href="#mb1301db1af" x="342.738512" y="54.618438" style="fill: #1f77b4; stroke: #1f77b4"/>
     <use xlink:href="#mb1301db1af" x="346.017851" y="58.645087" style="fill: #1f77b4; stroke: #1f77b4"/>
     <use xlink:href="#mb1301db1af" x="349.29719" y="55.724966" style="fill: #1f77b4; stroke: #1f77b4"/>
     <use xlink:href="#mb1301db1af" x="352.576529" y="90.848064" style="fill: #1f77b4; stroke: #1f77b4"/>
     <use xlink:href="#mb1301db1af" x="355.855868" y="56.131291" style="fill: #1f77b4; stroke: #1f77b4"/>
     <use xlink:href="#mb1301db1af" x="359.135207" y="55.709489" style="fill: #1f77b4; stroke: #1f77b4"/>
     <use xlink:href="#mb1301db1af" x="362.414545" y="58.910102" style="fill: #1f77b4; stroke: #1f77b4"/>
     <use xlink:href="#mb1301db1af" x="365.693884" y="63.460887" style="fill: #1f77b4; stroke: #1f77b4"/>
     <use xlink:href="#mb1301db1af" x="368.973223" y="57.716247" style="fill: #1f77b4; stroke: #1f77b4"/>
     <use xlink:href="#mb1301db1af" x="372.252562" y="63.579384" style="fill: #1f77b4; stroke: #1f77b4"/>
     <use xlink:href="#mb1301db1af" x="375.531901" y="56.876244" style="fill: #1f77b4; stroke: #1f77b4"/>
     <use xlink:href="#mb1301db1af" x="378.81124" y="56.499869" style="fill: #1f77b4; stroke: #1f77b4"/>
     <use xlink:href="#mb1301db1af" x="382.090579" y="55.74132" style="fill: #1f77b4; stroke: #1f77b4"/>
     <use xlink:href="#mb1301db1af" x="385.369917" y="59.438005" style="fill: #1f77b4; stroke: #1f77b4"/>
     <use xlink:href="#mb1301db1af" x="388.649256" y="63.454142" style="fill: #1f77b4; stroke: #1f77b4"/>
     <use xlink:href="#mb1301db1af" x="391.928595" y="53.568" style="fill: #1f77b4; stroke: #1f77b4"/>
     <use xlink:href="#mb1301db1af" x="395.207934" y="57.098245" style="fill: #1f77b4; stroke: #1f77b4"/>
     <use xlink:href="#mb1301db1af" x="398.487273" y="55.996983" style="fill: #1f77b4; stroke: #1f77b4"/>
    </g>
   </g>
   <g id="line2d_16">
    <path d="M 57.6 49.899339 
L 414.72 49.899339 
" clip-path="url(#p080e8b8638)" style="fill: none; stroke: #ff0000; stroke-width: 1.5; stroke-linecap: square"/>
   </g>
   <g id="patch_3">
    <path d="M 57.6 307.584 
L 57.6 41.472 
" style="fill: none; stroke: #000000; stroke-width: 0.8; stroke-linejoin: miter; stroke-linecap: square"/>
   </g>
   <g id="patch_4">
    <path d="M 414.72 307.584 
L 414.72 41.472 
" style="fill: none; stroke: #000000; stroke-width: 0.8; stroke-linejoin: miter; stroke-linecap: square"/>
   </g>
   <g id="patch_5">
    <path d="M 57.6 307.584 
L 414.72 307.584 
" style="fill: none; stroke: #000000; stroke-width: 0.8; stroke-linejoin: miter; stroke-linecap: square"/>
   </g>
   <g id="patch_6">
    <path d="M 57.6 41.472 
L 414.72 41.472 
" style="fill: none; stroke: #000000; stroke-width: 0.8; stroke-linejoin: miter; stroke-linecap: square"/>
   </g>
   <g id="text_17">
    <!-- Effect of Variance on MSE -->
    <g transform="translate(133.5725 35.472) scale(0.16 -0.16)">
     <defs>
      <path id="DejaVuSans-45" d="M 628 4666 
L 3578 4666 
L 3578 4134 
L 1259 4134 
L 1259 2753 
L 3481 2753 
L 3481 2222 
L 1259 2222 
L 1259 531 
L 3634 531 
L 3634 0 
L 628 0 
L 628 4666 
z
" transform="scale(0.015625)"/>
      <path id="DejaVuSans-66" d="M 2375 4863 
L 2375 4384 
L 1825 4384 
Q 1516 4384 1395 4259 
Q 1275 4134 1275 3809 
L 1275 3500 
L 2222 3500 
L 2222 3053 
L 1275 3053 
L 1275 0 
L 697 0 
L 697 3053 
L 147 3053 
L 147 3500 
L 697 3500 
L 697 3744 
Q 697 4328 969 4595 
Q 1241 4863 1831 4863 
L 2375 4863 
z
" transform="scale(0.015625)"/>
      <path id="DejaVuSans-74" d="M 1172 4494 
L 1172 3500 
L 2356 3500 
L 2356 3053 
L 1172 3053 
L 1172 1153 
Q 1172 725 1289 603 
Q 1406 481 1766 481 
L 2356 481 
L 2356 0 
L 1766 0 
Q 1100 0 847 248 
Q 594 497 594 1153 
L 594 3053 
L 172 3053 
L 172 3500 
L 594 3500 
L 594 4494 
L 1172 4494 
z
" transform="scale(0.015625)"/>
      <path id="DejaVuSans-20" transform="scale(0.015625)"/>
      <path id="DejaVuSans-6f" d="M 1959 3097 
Q 1497 3097 1228 2736 
Q 959 2375 959 1747 
Q 959 1119 1226 758 
Q 1494 397 1959 397 
Q 2419 397 2687 759 
Q 2956 1122 2956 1747 
Q 2956 2369 2687 2733 
Q 2419 3097 1959 3097 
z
M 1959 3584 
Q 2709 3584 3137 3096 
Q 3566 2609 3566 1747 
Q 3566 888 3137 398 
Q 2709 -91 1959 -91 
Q 1206 -91 779 398 
Q 353 888 353 1747 
Q 353 2609 779 3096 
Q 1206 3584 1959 3584 
z
" transform="scale(0.015625)"/>
      <path id="DejaVuSans-4d" d="M 628 4666 
L 1569 4666 
L 2759 1491 
L 3956 4666 
L 4897 4666 
L 4897 0 
L 4281 0 
L 4281 4097 
L 3078 897 
L 2444 897 
L 1241 4097 
L 1241 0 
L 628 0 
L 628 4666 
z
" transform="scale(0.015625)"/>
      <path id="DejaVuSans-53" d="M 3425 4513 
L 3425 3897 
Q 3066 4069 2747 4153 
Q 2428 4238 2131 4238 
Q 1616 4238 1336 4038 
Q 1056 3838 1056 3469 
Q 1056 3159 1242 3001 
Q 1428 2844 1947 2747 
L 2328 2669 
Q 3034 2534 3370 2195 
Q 3706 1856 3706 1288 
Q 3706 609 3251 259 
Q 2797 -91 1919 -91 
Q 1588 -91 1214 -16 
Q 841 59 441 206 
L 441 856 
Q 825 641 1194 531 
Q 1563 422 1919 422 
Q 2459 422 2753 634 
Q 3047 847 3047 1241 
Q 3047 1584 2836 1778 
Q 2625 1972 2144 2069 
L 1759 2144 
Q 1053 2284 737 2584 
Q 422 2884 422 3419 
Q 422 4038 858 4394 
Q 1294 4750 2059 4750 
Q 2388 4750 2728 4690 
Q 3069 4631 3425 4513 
z
" transform="scale(0.015625)"/>
     </defs>
     <use xlink:href="#DejaVuSans-45"/>
     <use xlink:href="#DejaVuSans-66" x="63.183594"/>
     <use xlink:href="#DejaVuSans-66" x="98.388672"/>
     <use xlink:href="#DejaVuSans-65" x="133.59375"/>
     <use xlink:href="#DejaVuSans-63" x="195.117188"/>
     <use xlink:href="#DejaVuSans-74" x="250.097656"/>
     <use xlink:href="#DejaVuSans-20" x="289.306641"/>
     <use xlink:href="#DejaVuSans-6f" x="321.09375"/>
     <use xlink:href="#DejaVuSans-66" x="382.275391"/>
     <use xlink:href="#DejaVuSans-20" x="417.480469"/>
     <use xlink:href="#DejaVuSans-56" x="449.267578"/>
     <use xlink:href="#DejaVuSans-61" x="509.925781"/>
     <use xlink:href="#DejaVuSans-72" x="571.205078"/>
     <use xlink:href="#DejaVuSans-69" x="612.318359"/>
     <use xlink:href="#DejaVuSans-61" x="640.101562"/>
     <use xlink:href="#DejaVuSans-6e" x="701.380859"/>
     <use xlink:href="#DejaVuSans-63" x="764.759766"/>
     <use xlink:href="#DejaVuSans-65" x="819.740234"/>
     <use xlink:href="#DejaVuSans-20" x="881.263672"/>
     <use xlink:href="#DejaVuSans-6f" x="913.050781"/>
     <use xlink:href="#DejaVuSans-6e" x="974.232422"/>
     <use xlink:href="#DejaVuSans-20" x="1037.611328"/>
     <use xlink:href="#DejaVuSans-4d" x="1069.398438"/>
     <use xlink:href="#DejaVuSans-53" x="1155.677734"/>
     <use xlink:href="#DejaVuSans-45" x="1219.154297"/>
    </g>
   </g>
  </g>
 </g>
 <defs>
  <clipPath id="p080e8b8638">
   <rect x="57.6" y="41.472" width="357.12" height="266.112"/>
  </clipPath>
 </defs>
</svg>
