<?xml version="1.0" encoding="utf-8" standalone="no"?>
<!DOCTYPE svg PUBLIC "-//W3C//DTD SVG 1.1//EN"
  "http://www.w3.org/Graphics/SVG/1.1/DTD/svg11.dtd">
<svg xmlns:xlink="http://www.w3.org/1999/xlink" width="460.8pt" height="345.6pt" viewBox="0 0 460.8 345.6" xmlns="http://www.w3.org/2000/svg" version="1.1">
 <metadata>
  <rdf:RDF xmlns:dc="http://purl.org/dc/elements/1.1/" xmlns:cc="http://creativecommons.org/ns#" xmlns:rdf="http://www.w3.org/1999/02/22-rdf-syntax-ns#">
   <cc:Work>
    <dc:type rdf:resource="http://purl.org/dc/dcmitype/StillImage"/>
    <dc:date>2023-04-30T02:02:56.225865</dc:date>
    <dc:format>image/svg+xml</dc:format>
    <dc:creator>
     <cc:Agent>
      <dc:title>Matplotlib v3.6.3, https://matplotlib.org/</dc:title>
     </cc:Agent>
    </dc:creator>
   </cc:Work>
  </rdf:RDF>
 </metadata>
 <defs>
  <style type="text/css">*{stroke-linejoin: round; stroke-linecap: butt}</style>
 </defs>
 <g id="figure_1">
  <g id="patch_1">
   <path d="M 0 345.6 
L 460.8 345.6 
L 460.8 0 
L 0 0 
z
" style="fill: #ffffff"/>
  </g>
  <g id="axes_1">
   <g id="patch_2">
    <path d="M 57.6 307.584 
L 414.72 307.584 
L 414.72 41.472 
L 57.6 41.472 
z
" style="fill: #ffffff"/>
   </g>
   <g id="matplotlib.axis_1">
    <g id="xtick_1">
     <g id="line2d_1">
      <defs>
       <path id="m6e01dd194d" d="M 0 0 
L 0 3.5 
" style="stroke: #000000; stroke-width: 0.8"/>
      </defs>
      <g>
       <use xlink:href="#m6e01dd194d" x="73.832727" y="307.584" style="stroke: #000000; stroke-width: 0.8"/>
      </g>
     </g>
     <g id="text_1">
      <!-- 0 -->
      <g transform="translate(70.015227 323.702125) scale(0.12 -0.12)">
       <defs>
        <path id="DejaVuSans-30" d="M 2034 4250 
Q 1547 4250 1301 3770 
Q 1056 3291 1056 2328 
Q 1056 1369 1301 889 
Q 1547 409 2034 409 
Q 2525 409 2770 889 
Q 3016 1369 3016 2328 
Q 3016 3291 2770 3770 
Q 2525 4250 2034 4250 
z
M 2034 4750 
Q 2819 4750 3233 4129 
Q 3647 3509 3647 2328 
Q 3647 1150 3233 529 
Q 2819 -91 2034 -91 
Q 1250 -91 836 529 
Q 422 1150 422 2328 
Q 422 3509 836 4129 
Q 1250 4750 2034 4750 
z
" transform="scale(0.015625)"/>
       </defs>
       <use xlink:href="#DejaVuSans-30"/>
      </g>
     </g>
    </g>
    <g id="xtick_2">
     <g id="line2d_2">
      <g>
       <use xlink:href="#m6e01dd194d" x="139.419504" y="307.584" style="stroke: #000000; stroke-width: 0.8"/>
      </g>
     </g>
     <g id="text_2">
      <!-- 20 -->
      <g transform="translate(131.784504 323.702125) scale(0.12 -0.12)">
       <defs>
        <path id="DejaVuSans-32" d="M 1228 531 
L 3431 531 
L 3431 0 
L 469 0 
L 469 531 
Q 828 903 1448 1529 
Q 2069 2156 2228 2338 
Q 2531 2678 2651 2914 
Q 2772 3150 2772 3378 
Q 2772 3750 2511 3984 
Q 2250 4219 1831 4219 
Q 1534 4219 1204 4116 
Q 875 4013 500 3803 
L 500 4441 
Q 881 4594 1212 4672 
Q 1544 4750 1819 4750 
Q 2544 4750 2975 4387 
Q 3406 4025 3406 3419 
Q 3406 3131 3298 2873 
Q 3191 2616 2906 2266 
Q 2828 2175 2409 1742 
Q 1991 1309 1228 531 
z
" transform="scale(0.015625)"/>
       </defs>
       <use xlink:href="#DejaVuSans-32"/>
       <use xlink:href="#DejaVuSans-30" x="63.623047"/>
      </g>
     </g>
    </g>
    <g id="xtick_3">
     <g id="line2d_3">
      <g>
       <use xlink:href="#m6e01dd194d" x="205.006281" y="307.584" style="stroke: #000000; stroke-width: 0.8"/>
      </g>
     </g>
     <g id="text_3">
      <!-- 40 -->
      <g transform="translate(197.371281 323.702125) scale(0.12 -0.12)">
       <defs>
        <path id="DejaVuSans-34" d="M 2419 4116 
L 825 1625 
L 2419 1625 
L 2419 4116 
z
M 2253 4666 
L 3047 4666 
L 3047 1625 
L 3713 1625 
L 3713 1100 
L 3047 1100 
L 3047 0 
L 2419 0 
L 2419 1100 
L 313 1100 
L 313 1709 
L 2253 4666 
z
" transform="scale(0.015625)"/>
       </defs>
       <use xlink:href="#DejaVuSans-34"/>
       <use xlink:href="#DejaVuSans-30" x="63.623047"/>
      </g>
     </g>
    </g>
    <g id="xtick_4">
     <g id="line2d_4">
      <g>
       <use xlink:href="#m6e01dd194d" x="270.593058" y="307.584" style="stroke: #000000; stroke-width: 0.8"/>
      </g>
     </g>
     <g id="text_4">
      <!-- 60 -->
      <g transform="translate(262.958058 323.702125) scale(0.12 -0.12)">
       <defs>
        <path id="DejaVuSans-36" d="M 2113 2584 
Q 1688 2584 1439 2293 
Q 1191 2003 1191 1497 
Q 1191 994 1439 701 
Q 1688 409 2113 409 
Q 2538 409 2786 701 
Q 3034 994 3034 1497 
Q 3034 2003 2786 2293 
Q 2538 2584 2113 2584 
z
M 3366 4563 
L 3366 3988 
Q 3128 4100 2886 4159 
Q 2644 4219 2406 4219 
Q 1781 4219 1451 3797 
Q 1122 3375 1075 2522 
Q 1259 2794 1537 2939 
Q 1816 3084 2150 3084 
Q 2853 3084 3261 2657 
Q 3669 2231 3669 1497 
Q 3669 778 3244 343 
Q 2819 -91 2113 -91 
Q 1303 -91 875 529 
Q 447 1150 447 2328 
Q 447 3434 972 4092 
Q 1497 4750 2381 4750 
Q 2619 4750 2861 4703 
Q 3103 4656 3366 4563 
z
" transform="scale(0.015625)"/>
       </defs>
       <use xlink:href="#DejaVuSans-36"/>
       <use xlink:href="#DejaVuSans-30" x="63.623047"/>
      </g>
     </g>
    </g>
    <g id="xtick_5">
     <g id="line2d_5">
      <g>
       <use xlink:href="#m6e01dd194d" x="336.179835" y="307.584" style="stroke: #000000; stroke-width: 0.8"/>
      </g>
     </g>
     <g id="text_5">
      <!-- 80 -->
      <g transform="translate(328.544835 323.702125) scale(0.12 -0.12)">
       <defs>
        <path id="DejaVuSans-38" d="M 2034 2216 
Q 1584 2216 1326 1975 
Q 1069 1734 1069 1313 
Q 1069 891 1326 650 
Q 1584 409 2034 409 
Q 2484 409 2743 651 
Q 3003 894 3003 1313 
Q 3003 1734 2745 1975 
Q 2488 2216 2034 2216 
z
M 1403 2484 
Q 997 2584 770 2862 
Q 544 3141 544 3541 
Q 544 4100 942 4425 
Q 1341 4750 2034 4750 
Q 2731 4750 3128 4425 
Q 3525 4100 3525 3541 
Q 3525 3141 3298 2862 
Q 3072 2584 2669 2484 
Q 3125 2378 3379 2068 
Q 3634 1759 3634 1313 
Q 3634 634 3220 271 
Q 2806 -91 2034 -91 
Q 1263 -91 848 271 
Q 434 634 434 1313 
Q 434 1759 690 2068 
Q 947 2378 1403 2484 
z
M 1172 3481 
Q 1172 3119 1398 2916 
Q 1625 2713 2034 2713 
Q 2441 2713 2670 2916 
Q 2900 3119 2900 3481 
Q 2900 3844 2670 4047 
Q 2441 4250 2034 4250 
Q 1625 4250 1398 4047 
Q 1172 3844 1172 3481 
z
" transform="scale(0.015625)"/>
       </defs>
       <use xlink:href="#DejaVuSans-38"/>
       <use xlink:href="#DejaVuSans-30" x="63.623047"/>
      </g>
     </g>
    </g>
    <g id="xtick_6">
     <g id="line2d_6">
      <g>
       <use xlink:href="#m6e01dd194d" x="401.766612" y="307.584" style="stroke: #000000; stroke-width: 0.8"/>
      </g>
     </g>
     <g id="text_6">
      <!-- 100 -->
      <g transform="translate(390.314112 323.702125) scale(0.12 -0.12)">
       <defs>
        <path id="DejaVuSans-31" d="M 794 531 
L 1825 531 
L 1825 4091 
L 703 3866 
L 703 4441 
L 1819 4666 
L 2450 4666 
L 2450 531 
L 3481 531 
L 3481 0 
L 794 0 
L 794 531 
z
" transform="scale(0.015625)"/>
       </defs>
       <use xlink:href="#DejaVuSans-31"/>
       <use xlink:href="#DejaVuSans-30" x="63.623047"/>
       <use xlink:href="#DejaVuSans-30" x="127.246094"/>
      </g>
     </g>
    </g>
    <g id="text_7">
     <!-- Number of dimensions -->
     <g transform="translate(156.935313 340.835562) scale(0.14 -0.14)">
      <defs>
       <path id="DejaVuSans-4e" d="M 628 4666 
L 1478 4666 
L 3547 763 
L 3547 4666 
L 4159 4666 
L 4159 0 
L 3309 0 
L 1241 3903 
L 1241 0 
L 628 0 
L 628 4666 
z
" transform="scale(0.015625)"/>
       <path id="DejaVuSans-75" d="M 544 1381 
L 544 3500 
L 1119 3500 
L 1119 1403 
Q 1119 906 1312 657 
Q 1506 409 1894 409 
Q 2359 409 2629 706 
Q 2900 1003 2900 1516 
L 2900 3500 
L 3475 3500 
L 3475 0 
L 2900 0 
L 2900 538 
Q 2691 219 2414 64 
Q 2138 -91 1772 -91 
Q 1169 -91 856 284 
Q 544 659 544 1381 
z
M 1991 3584 
L 1991 3584 
z
" transform="scale(0.015625)"/>
       <path id="DejaVuSans-6d" d="M 3328 2828 
Q 3544 3216 3844 3400 
Q 4144 3584 4550 3584 
Q 5097 3584 5394 3201 
Q 5691 2819 5691 2113 
L 5691 0 
L 5113 0 
L 5113 2094 
Q 5113 2597 4934 2840 
Q 4756 3084 4391 3084 
Q 3944 3084 3684 2787 
Q 3425 2491 3425 1978 
L 3425 0 
L 2847 0 
L 2847 2094 
Q 2847 2600 2669 2842 
Q 2491 3084 2119 3084 
Q 1678 3084 1418 2786 
Q 1159 2488 1159 1978 
L 1159 0 
L 581 0 
L 581 3500 
L 1159 3500 
L 1159 2956 
Q 1356 3278 1631 3431 
Q 1906 3584 2284 3584 
Q 2666 3584 2933 3390 
Q 3200 3197 3328 2828 
z
" transform="scale(0.015625)"/>
       <path id="DejaVuSans-62" d="M 3116 1747 
Q 3116 2381 2855 2742 
Q 2594 3103 2138 3103 
Q 1681 3103 1420 2742 
Q 1159 2381 1159 1747 
Q 1159 1113 1420 752 
Q 1681 391 2138 391 
Q 2594 391 2855 752 
Q 3116 1113 3116 1747 
z
M 1159 2969 
Q 1341 3281 1617 3432 
Q 1894 3584 2278 3584 
Q 2916 3584 3314 3078 
Q 3713 2572 3713 1747 
Q 3713 922 3314 415 
Q 2916 -91 2278 -91 
Q 1894 -91 1617 61 
Q 1341 213 1159 525 
L 1159 0 
L 581 0 
L 581 4863 
L 1159 4863 
L 1159 2969 
z
" transform="scale(0.015625)"/>
       <path id="DejaVuSans-65" d="M 3597 1894 
L 3597 1613 
L 953 1613 
Q 991 1019 1311 708 
Q 1631 397 2203 397 
Q 2534 397 2845 478 
Q 3156 559 3463 722 
L 3463 178 
Q 3153 47 2828 -22 
Q 2503 -91 2169 -91 
Q 1331 -91 842 396 
Q 353 884 353 1716 
Q 353 2575 817 3079 
Q 1281 3584 2069 3584 
Q 2775 3584 3186 3129 
Q 3597 2675 3597 1894 
z
M 3022 2063 
Q 3016 2534 2758 2815 
Q 2500 3097 2075 3097 
Q 1594 3097 1305 2825 
Q 1016 2553 972 2059 
L 3022 2063 
z
" transform="scale(0.015625)"/>
       <path id="DejaVuSans-72" d="M 2631 2963 
Q 2534 3019 2420 3045 
Q 2306 3072 2169 3072 
Q 1681 3072 1420 2755 
Q 1159 2438 1159 1844 
L 1159 0 
L 581 0 
L 581 3500 
L 1159 3500 
L 1159 2956 
Q 1341 3275 1631 3429 
Q 1922 3584 2338 3584 
Q 2397 3584 2469 3576 
Q 2541 3569 2628 3553 
L 2631 2963 
z
" transform="scale(0.015625)"/>
       <path id="DejaVuSans-20" transform="scale(0.015625)"/>
       <path id="DejaVuSans-6f" d="M 1959 3097 
Q 1497 3097 1228 2736 
Q 959 2375 959 1747 
Q 959 1119 1226 758 
Q 1494 397 1959 397 
Q 2419 397 2687 759 
Q 2956 1122 2956 1747 
Q 2956 2369 2687 2733 
Q 2419 3097 1959 3097 
z
M 1959 3584 
Q 2709 3584 3137 3096 
Q 3566 2609 3566 1747 
Q 3566 888 3137 398 
Q 2709 -91 1959 -91 
Q 1206 -91 779 398 
Q 353 888 353 1747 
Q 353 2609 779 3096 
Q 1206 3584 1959 3584 
z
" transform="scale(0.015625)"/>
       <path id="DejaVuSans-66" d="M 2375 4863 
L 2375 4384 
L 1825 4384 
Q 1516 4384 1395 4259 
Q 1275 4134 1275 3809 
L 1275 3500 
L 2222 3500 
L 2222 3053 
L 1275 3053 
L 1275 0 
L 697 0 
L 697 3053 
L 147 3053 
L 147 3500 
L 697 3500 
L 697 3744 
Q 697 4328 969 4595 
Q 1241 4863 1831 4863 
L 2375 4863 
z
" transform="scale(0.015625)"/>
       <path id="DejaVuSans-64" d="M 2906 2969 
L 2906 4863 
L 3481 4863 
L 3481 0 
L 2906 0 
L 2906 525 
Q 2725 213 2448 61 
Q 2172 -91 1784 -91 
Q 1150 -91 751 415 
Q 353 922 353 1747 
Q 353 2572 751 3078 
Q 1150 3584 1784 3584 
Q 2172 3584 2448 3432 
Q 2725 3281 2906 2969 
z
M 947 1747 
Q 947 1113 1208 752 
Q 1469 391 1925 391 
Q 2381 391 2643 752 
Q 2906 1113 2906 1747 
Q 2906 2381 2643 2742 
Q 2381 3103 1925 3103 
Q 1469 3103 1208 2742 
Q 947 2381 947 1747 
z
" transform="scale(0.015625)"/>
       <path id="DejaVuSans-69" d="M 603 3500 
L 1178 3500 
L 1178 0 
L 603 0 
L 603 3500 
z
M 603 4863 
L 1178 4863 
L 1178 4134 
L 603 4134 
L 603 4863 
z
" transform="scale(0.015625)"/>
       <path id="DejaVuSans-6e" d="M 3513 2113 
L 3513 0 
L 2938 0 
L 2938 2094 
Q 2938 2591 2744 2837 
Q 2550 3084 2163 3084 
Q 1697 3084 1428 2787 
Q 1159 2491 1159 1978 
L 1159 0 
L 581 0 
L 581 3500 
L 1159 3500 
L 1159 2956 
Q 1366 3272 1645 3428 
Q 1925 3584 2291 3584 
Q 2894 3584 3203 3211 
Q 3513 2838 3513 2113 
z
" transform="scale(0.015625)"/>
       <path id="DejaVuSans-73" d="M 2834 3397 
L 2834 2853 
Q 2591 2978 2328 3040 
Q 2066 3103 1784 3103 
Q 1356 3103 1142 2972 
Q 928 2841 928 2578 
Q 928 2378 1081 2264 
Q 1234 2150 1697 2047 
L 1894 2003 
Q 2506 1872 2764 1633 
Q 3022 1394 3022 966 
Q 3022 478 2636 193 
Q 2250 -91 1575 -91 
Q 1294 -91 989 -36 
Q 684 19 347 128 
L 347 722 
Q 666 556 975 473 
Q 1284 391 1588 391 
Q 1994 391 2212 530 
Q 2431 669 2431 922 
Q 2431 1156 2273 1281 
Q 2116 1406 1581 1522 
L 1381 1569 
Q 847 1681 609 1914 
Q 372 2147 372 2553 
Q 372 3047 722 3315 
Q 1072 3584 1716 3584 
Q 2034 3584 2315 3537 
Q 2597 3491 2834 3397 
z
" transform="scale(0.015625)"/>
      </defs>
      <use xlink:href="#DejaVuSans-4e"/>
      <use xlink:href="#DejaVuSans-75" x="74.804688"/>
      <use xlink:href="#DejaVuSans-6d" x="138.183594"/>
      <use xlink:href="#DejaVuSans-62" x="235.595703"/>
      <use xlink:href="#DejaVuSans-65" x="299.072266"/>
      <use xlink:href="#DejaVuSans-72" x="360.595703"/>
      <use xlink:href="#DejaVuSans-20" x="401.708984"/>
      <use xlink:href="#DejaVuSans-6f" x="433.496094"/>
      <use xlink:href="#DejaVuSans-66" x="494.677734"/>
      <use xlink:href="#DejaVuSans-20" x="529.882812"/>
      <use xlink:href="#DejaVuSans-64" x="561.669922"/>
      <use xlink:href="#DejaVuSans-69" x="625.146484"/>
      <use xlink:href="#DejaVuSans-6d" x="652.929688"/>
      <use xlink:href="#DejaVuSans-65" x="750.341797"/>
      <use xlink:href="#DejaVuSans-6e" x="811.865234"/>
      <use xlink:href="#DejaVuSans-73" x="875.244141"/>
      <use xlink:href="#DejaVuSans-69" x="927.34375"/>
      <use xlink:href="#DejaVuSans-6f" x="955.126953"/>
      <use xlink:href="#DejaVuSans-6e" x="1016.308594"/>
      <use xlink:href="#DejaVuSans-73" x="1079.6875"/>
     </g>
    </g>
   </g>
   <g id="matplotlib.axis_2">
    <g id="ytick_1">
     <g id="line2d_7">
      <defs>
       <path id="ma206e68b84" d="M 0 0 
L -3.5 0 
" style="stroke: #000000; stroke-width: 0.8"/>
      </defs>
      <g>
       <use xlink:href="#ma206e68b84" x="57.6" y="281.961543" style="stroke: #000000; stroke-width: 0.8"/>
      </g>
     </g>
     <g id="text_8">
      <!-- 0.25 -->
      <g transform="translate(23.88125 286.520605) scale(0.12 -0.12)">
       <defs>
        <path id="DejaVuSans-2e" d="M 684 794 
L 1344 794 
L 1344 0 
L 684 0 
L 684 794 
z
" transform="scale(0.015625)"/>
        <path id="DejaVuSans-35" d="M 691 4666 
L 3169 4666 
L 3169 4134 
L 1269 4134 
L 1269 2991 
Q 1406 3038 1543 3061 
Q 1681 3084 1819 3084 
Q 2600 3084 3056 2656 
Q 3513 2228 3513 1497 
Q 3513 744 3044 326 
Q 2575 -91 1722 -91 
Q 1428 -91 1123 -41 
Q 819 9 494 109 
L 494 744 
Q 775 591 1075 516 
Q 1375 441 1709 441 
Q 2250 441 2565 725 
Q 2881 1009 2881 1497 
Q 2881 1984 2565 2268 
Q 2250 2553 1709 2553 
Q 1456 2553 1204 2497 
Q 953 2441 691 2322 
L 691 4666 
z
" transform="scale(0.015625)"/>
       </defs>
       <use xlink:href="#DejaVuSans-30"/>
       <use xlink:href="#DejaVuSans-2e" x="63.623047"/>
       <use xlink:href="#DejaVuSans-32" x="95.410156"/>
       <use xlink:href="#DejaVuSans-35" x="159.033203"/>
      </g>
     </g>
    </g>
    <g id="ytick_2">
     <g id="line2d_8">
      <g>
       <use xlink:href="#ma206e68b84" x="57.6" y="246.010757" style="stroke: #000000; stroke-width: 0.8"/>
      </g>
     </g>
     <g id="text_9">
      <!-- 0.50 -->
      <g transform="translate(23.88125 250.56982) scale(0.12 -0.12)">
       <use xlink:href="#DejaVuSans-30"/>
       <use xlink:href="#DejaVuSans-2e" x="63.623047"/>
       <use xlink:href="#DejaVuSans-35" x="95.410156"/>
       <use xlink:href="#DejaVuSans-30" x="159.033203"/>
      </g>
     </g>
    </g>
    <g id="ytick_3">
     <g id="line2d_9">
      <g>
       <use xlink:href="#ma206e68b84" x="57.6" y="210.059971" style="stroke: #000000; stroke-width: 0.8"/>
      </g>
     </g>
     <g id="text_10">
      <!-- 0.75 -->
      <g transform="translate(23.88125 214.619034) scale(0.12 -0.12)">
       <defs>
        <path id="DejaVuSans-37" d="M 525 4666 
L 3525 4666 
L 3525 4397 
L 1831 0 
L 1172 0 
L 2766 4134 
L 525 4134 
L 525 4666 
z
" transform="scale(0.015625)"/>
       </defs>
       <use xlink:href="#DejaVuSans-30"/>
       <use xlink:href="#DejaVuSans-2e" x="63.623047"/>
       <use xlink:href="#DejaVuSans-37" x="95.410156"/>
       <use xlink:href="#DejaVuSans-35" x="159.033203"/>
      </g>
     </g>
    </g>
    <g id="ytick_4">
     <g id="line2d_10">
      <g>
       <use xlink:href="#ma206e68b84" x="57.6" y="174.109186" style="stroke: #000000; stroke-width: 0.8"/>
      </g>
     </g>
     <g id="text_11">
      <!-- 1.00 -->
      <g transform="translate(23.88125 178.668248) scale(0.12 -0.12)">
       <use xlink:href="#DejaVuSans-31"/>
       <use xlink:href="#DejaVuSans-2e" x="63.623047"/>
       <use xlink:href="#DejaVuSans-30" x="95.410156"/>
       <use xlink:href="#DejaVuSans-30" x="159.033203"/>
      </g>
     </g>
    </g>
    <g id="ytick_5">
     <g id="line2d_11">
      <g>
       <use xlink:href="#ma206e68b84" x="57.6" y="138.1584" style="stroke: #000000; stroke-width: 0.8"/>
      </g>
     </g>
     <g id="text_12">
      <!-- 1.25 -->
      <g transform="translate(23.88125 142.717463) scale(0.12 -0.12)">
       <use xlink:href="#DejaVuSans-31"/>
       <use xlink:href="#DejaVuSans-2e" x="63.623047"/>
       <use xlink:href="#DejaVuSans-32" x="95.410156"/>
       <use xlink:href="#DejaVuSans-35" x="159.033203"/>
      </g>
     </g>
    </g>
    <g id="ytick_6">
     <g id="line2d_12">
      <g>
       <use xlink:href="#ma206e68b84" x="57.6" y="102.207615" style="stroke: #000000; stroke-width: 0.8"/>
      </g>
     </g>
     <g id="text_13">
      <!-- 1.50 -->
      <g transform="translate(23.88125 106.766677) scale(0.12 -0.12)">
       <use xlink:href="#DejaVuSans-31"/>
       <use xlink:href="#DejaVuSans-2e" x="63.623047"/>
       <use xlink:href="#DejaVuSans-35" x="95.410156"/>
       <use xlink:href="#DejaVuSans-30" x="159.033203"/>
      </g>
     </g>
    </g>
    <g id="ytick_7">
     <g id="line2d_13">
      <g>
       <use xlink:href="#ma206e68b84" x="57.6" y="66.256829" style="stroke: #000000; stroke-width: 0.8"/>
      </g>
     </g>
     <g id="text_14">
      <!-- 1.75 -->
      <g transform="translate(23.88125 70.815891) scale(0.12 -0.12)">
       <use xlink:href="#DejaVuSans-31"/>
       <use xlink:href="#DejaVuSans-2e" x="63.623047"/>
       <use xlink:href="#DejaVuSans-37" x="95.410156"/>
       <use xlink:href="#DejaVuSans-35" x="159.033203"/>
      </g>
     </g>
    </g>
    <g id="text_15">
     <!-- r -->
     <g transform="translate(16.969687 177.405656) rotate(-90) scale(0.14 -0.14)">
      <use xlink:href="#DejaVuSans-72"/>
     </g>
    </g>
   </g>
   <g id="line2d_14">
    <defs>
     <path id="mddd872a96b" d="M 0 3 
C 0.795609 3 1.55874 2.683901 2.12132 2.12132 
C 2.683901 1.55874 3 0.795609 3 0 
C 3 -0.795609 2.683901 -1.55874 2.12132 -2.12132 
C 1.55874 -2.683901 0.795609 -3 0 -3 
C -0.795609 -3 -1.55874 -2.683901 -2.12132 -2.12132 
C -2.683901 -1.55874 -3 -0.795609 -3 0 
C -3 0.795609 -2.683901 1.55874 -2.12132 2.12132 
C -1.55874 2.683901 -0.795609 3 0 3 
z
" style="stroke: #1f77b4"/>
    </defs>
    <g clip-path="url(#p9510c6c1c1)">
     <use xlink:href="#mddd872a96b" x="73.832727" y="53.568" style="fill: #1f77b4; stroke: #1f77b4"/>
     <use xlink:href="#mddd872a96b" x="77.112066" y="174.109186" style="fill: #1f77b4; stroke: #1f77b4"/>
     <use xlink:href="#mddd872a96b" x="80.391405" y="228.96879" style="fill: #1f77b4; stroke: #1f77b4"/>
     <use xlink:href="#mddd872a96b" x="83.670744" y="234.785663" style="fill: #1f77b4; stroke: #1f77b4"/>
     <use xlink:href="#mddd872a96b" x="86.950083" y="260.850055" style="fill: #1f77b4; stroke: #1f77b4"/>
     <use xlink:href="#mddd872a96b" x="90.229421" y="278.819794" style="fill: #1f77b4; stroke: #1f77b4"/>
     <use xlink:href="#mddd872a96b" x="93.50876" y="283.535374" style="fill: #1f77b4; stroke: #1f77b4"/>
     <use xlink:href="#mddd872a96b" x="96.788099" y="252.784784" style="fill: #1f77b4; stroke: #1f77b4"/>
     <use xlink:href="#mddd872a96b" x="100.067438" y="262.597947" style="fill: #1f77b4; stroke: #1f77b4"/>
     <use xlink:href="#mddd872a96b" x="103.346777" y="294.637625" style="fill: #1f77b4; stroke: #1f77b4"/>
     <use xlink:href="#mddd872a96b" x="106.626116" y="271.117008" style="fill: #1f77b4; stroke: #1f77b4"/>
     <use xlink:href="#mddd872a96b" x="109.905455" y="282.369229" style="fill: #1f77b4; stroke: #1f77b4"/>
     <use xlink:href="#mddd872a96b" x="113.184793" y="291.224616" style="fill: #1f77b4; stroke: #1f77b4"/>
     <use xlink:href="#mddd872a96b" x="116.464132" y="285.386836" style="fill: #1f77b4; stroke: #1f77b4"/>
     <use xlink:href="#mddd872a96b" x="119.743471" y="267.043045" style="fill: #1f77b4; stroke: #1f77b4"/>
     <use xlink:href="#mddd872a96b" x="123.02281" y="269.969937" style="fill: #1f77b4; stroke: #1f77b4"/>
     <use xlink:href="#mddd872a96b" x="126.302149" y="277.054137" style="fill: #1f77b4; stroke: #1f77b4"/>
     <use xlink:href="#mddd872a96b" x="129.581488" y="268.887813" style="fill: #1f77b4; stroke: #1f77b4"/>
     <use xlink:href="#mddd872a96b" x="132.860826" y="288.335419" style="fill: #1f77b4; stroke: #1f77b4"/>
     <use xlink:href="#mddd872a96b" x="136.140165" y="272.920679" style="fill: #1f77b4; stroke: #1f77b4"/>
     <use xlink:href="#mddd872a96b" x="139.419504" y="258.655854" style="fill: #1f77b4; stroke: #1f77b4"/>
     <use xlink:href="#mddd872a96b" x="142.698843" y="234.213685" style="fill: #1f77b4; stroke: #1f77b4"/>
     <use xlink:href="#mddd872a96b" x="145.978182" y="295.488" style="fill: #1f77b4; stroke: #1f77b4"/>
     <use xlink:href="#mddd872a96b" x="149.257521" y="260.079132" style="fill: #1f77b4; stroke: #1f77b4"/>
     <use xlink:href="#mddd872a96b" x="152.53686" y="279.946969" style="fill: #1f77b4; stroke: #1f77b4"/>
     <use xlink:href="#mddd872a96b" x="155.816198" y="282.045904" style="fill: #1f77b4; stroke: #1f77b4"/>
     <use xlink:href="#mddd872a96b" x="159.095537" y="231.000731" style="fill: #1f77b4; stroke: #1f77b4"/>
     <use xlink:href="#mddd872a96b" x="162.374876" y="247.898252" style="fill: #1f77b4; stroke: #1f77b4"/>
     <use xlink:href="#mddd872a96b" x="165.654215" y="204.085447" style="fill: #1f77b4; stroke: #1f77b4"/>
     <use xlink:href="#mddd872a96b" x="168.933554" y="286.745013" style="fill: #1f77b4; stroke: #1f77b4"/>
     <use xlink:href="#mddd872a96b" x="172.212893" y="252.615161" style="fill: #1f77b4; stroke: #1f77b4"/>
     <use xlink:href="#mddd872a96b" x="175.492231" y="286.619993" style="fill: #1f77b4; stroke: #1f77b4"/>
     <use xlink:href="#mddd872a96b" x="178.77157" y="289.329882" style="fill: #1f77b4; stroke: #1f77b4"/>
     <use xlink:href="#mddd872a96b" x="182.050909" y="278.15689" style="fill: #1f77b4; stroke: #1f77b4"/>
     <use xlink:href="#mddd872a96b" x="185.330248" y="276.074578" style="fill: #1f77b4; stroke: #1f77b4"/>
     <use xlink:href="#mddd872a96b" x="188.609587" y="278.052877" style="fill: #1f77b4; stroke: #1f77b4"/>
     <use xlink:href="#mddd872a96b" x="191.888926" y="277.292433" style="fill: #1f77b4; stroke: #1f77b4"/>
     <use xlink:href="#mddd872a96b" x="195.168264" y="104.947392" style="fill: #1f77b4; stroke: #1f77b4"/>
     <use xlink:href="#mddd872a96b" x="198.447603" y="271.248738" style="fill: #1f77b4; stroke: #1f77b4"/>
     <use xlink:href="#mddd872a96b" x="201.726942" y="280.163305" style="fill: #1f77b4; stroke: #1f77b4"/>
     <use xlink:href="#mddd872a96b" x="205.006281" y="280.261106" style="fill: #1f77b4; stroke: #1f77b4"/>
     <use xlink:href="#mddd872a96b" x="208.28562" y="203.659205" style="fill: #1f77b4; stroke: #1f77b4"/>
     <use xlink:href="#mddd872a96b" x="211.564959" y="280.845369" style="fill: #1f77b4; stroke: #1f77b4"/>
     <use xlink:href="#mddd872a96b" x="214.844298" y="273.010295" style="fill: #1f77b4; stroke: #1f77b4"/>
     <use xlink:href="#mddd872a96b" x="218.123636" y="286.8278" style="fill: #1f77b4; stroke: #1f77b4"/>
     <use xlink:href="#mddd872a96b" x="221.402975" y="288.113443" style="fill: #1f77b4; stroke: #1f77b4"/>
     <use xlink:href="#mddd872a96b" x="224.682314" y="281.274222" style="fill: #1f77b4; stroke: #1f77b4"/>
     <use xlink:href="#mddd872a96b" x="227.961653" y="239.993693" style="fill: #1f77b4; stroke: #1f77b4"/>
     <use xlink:href="#mddd872a96b" x="231.240992" y="280.059466" style="fill: #1f77b4; stroke: #1f77b4"/>
     <use xlink:href="#mddd872a96b" x="234.520331" y="284.648468" style="fill: #1f77b4; stroke: #1f77b4"/>
     <use xlink:href="#mddd872a96b" x="237.799669" y="272.482795" style="fill: #1f77b4; stroke: #1f77b4"/>
     <use xlink:href="#mddd872a96b" x="241.079008" y="287.060411" style="fill: #1f77b4; stroke: #1f77b4"/>
     <use xlink:href="#mddd872a96b" x="244.358347" y="281.719434" style="fill: #1f77b4; stroke: #1f77b4"/>
     <use xlink:href="#mddd872a96b" x="247.637686" y="287.060174" style="fill: #1f77b4; stroke: #1f77b4"/>
     <use xlink:href="#mddd872a96b" x="250.917025" y="280.15901" style="fill: #1f77b4; stroke: #1f77b4"/>
     <use xlink:href="#mddd872a96b" x="254.196364" y="257.799715" style="fill: #1f77b4; stroke: #1f77b4"/>
     <use xlink:href="#mddd872a96b" x="257.475702" y="285.901201" style="fill: #1f77b4; stroke: #1f77b4"/>
     <use xlink:href="#mddd872a96b" x="260.755041" y="281.592062" style="fill: #1f77b4; stroke: #1f77b4"/>
     <use xlink:href="#mddd872a96b" x="264.03438" y="285.661415" style="fill: #1f77b4; stroke: #1f77b4"/>
     <use xlink:href="#mddd872a96b" x="267.313719" y="272.06296" style="fill: #1f77b4; stroke: #1f77b4"/>
     <use xlink:href="#mddd872a96b" x="270.593058" y="283.570066" style="fill: #1f77b4; stroke: #1f77b4"/>
     <use xlink:href="#mddd872a96b" x="273.872397" y="281.081875" style="fill: #1f77b4; stroke: #1f77b4"/>
     <use xlink:href="#mddd872a96b" x="277.151736" y="282.40806" style="fill: #1f77b4; stroke: #1f77b4"/>
     <use xlink:href="#mddd872a96b" x="280.431074" y="266.464224" style="fill: #1f77b4; stroke: #1f77b4"/>
     <use xlink:href="#mddd872a96b" x="283.710413" y="284.647338" style="fill: #1f77b4; stroke: #1f77b4"/>
     <use xlink:href="#mddd872a96b" x="286.989752" y="274.091937" style="fill: #1f77b4; stroke: #1f77b4"/>
     <use xlink:href="#mddd872a96b" x="290.269091" y="283.601825" style="fill: #1f77b4; stroke: #1f77b4"/>
     <use xlink:href="#mddd872a96b" x="293.54843" y="253.225176" style="fill: #1f77b4; stroke: #1f77b4"/>
     <use xlink:href="#mddd872a96b" x="296.827769" y="284.906955" style="fill: #1f77b4; stroke: #1f77b4"/>
     <use xlink:href="#mddd872a96b" x="300.107107" y="256.893888" style="fill: #1f77b4; stroke: #1f77b4"/>
     <use xlink:href="#mddd872a96b" x="303.386446" y="278.60039" style="fill: #1f77b4; stroke: #1f77b4"/>
     <use xlink:href="#mddd872a96b" x="306.665785" y="276.578586" style="fill: #1f77b4; stroke: #1f77b4"/>
     <use xlink:href="#mddd872a96b" x="309.945124" y="280.971422" style="fill: #1f77b4; stroke: #1f77b4"/>
     <use xlink:href="#mddd872a96b" x="313.224463" y="280.558749" style="fill: #1f77b4; stroke: #1f77b4"/>
     <use xlink:href="#mddd872a96b" x="316.503802" y="283.744172" style="fill: #1f77b4; stroke: #1f77b4"/>
     <use xlink:href="#mddd872a96b" x="319.78314" y="276.835833" style="fill: #1f77b4; stroke: #1f77b4"/>
     <use xlink:href="#mddd872a96b" x="323.062479" y="282.385515" style="fill: #1f77b4; stroke: #1f77b4"/>
     <use xlink:href="#mddd872a96b" x="326.341818" y="288.029125" style="fill: #1f77b4; stroke: #1f77b4"/>
     <use xlink:href="#mddd872a96b" x="329.621157" y="284.020912" style="fill: #1f77b4; stroke: #1f77b4"/>
     <use xlink:href="#mddd872a96b" x="332.900496" y="248.892749" style="fill: #1f77b4; stroke: #1f77b4"/>
     <use xlink:href="#mddd872a96b" x="336.179835" y="281.584255" style="fill: #1f77b4; stroke: #1f77b4"/>
     <use xlink:href="#mddd872a96b" x="339.459174" y="269.178566" style="fill: #1f77b4; stroke: #1f77b4"/>
     <use xlink:href="#mddd872a96b" x="342.738512" y="284.5656" style="fill: #1f77b4; stroke: #1f77b4"/>
     <use xlink:href="#mddd872a96b" x="346.017851" y="281.274248" style="fill: #1f77b4; stroke: #1f77b4"/>
     <use xlink:href="#mddd872a96b" x="349.29719" y="289.869961" style="fill: #1f77b4; stroke: #1f77b4"/>
     <use xlink:href="#mddd872a96b" x="352.576529" y="282.878856" style="fill: #1f77b4; stroke: #1f77b4"/>
     <use xlink:href="#mddd872a96b" x="355.855868" y="276.727206" style="fill: #1f77b4; stroke: #1f77b4"/>
     <use xlink:href="#mddd872a96b" x="359.135207" y="276.53935" style="fill: #1f77b4; stroke: #1f77b4"/>
     <use xlink:href="#mddd872a96b" x="362.414545" y="285.699946" style="fill: #1f77b4; stroke: #1f77b4"/>
     <use xlink:href="#mddd872a96b" x="365.693884" y="274.663231" style="fill: #1f77b4; stroke: #1f77b4"/>
     <use xlink:href="#mddd872a96b" x="368.973223" y="281.813653" style="fill: #1f77b4; stroke: #1f77b4"/>
     <use xlink:href="#mddd872a96b" x="372.252562" y="282.290961" style="fill: #1f77b4; stroke: #1f77b4"/>
     <use xlink:href="#mddd872a96b" x="375.531901" y="278.833955" style="fill: #1f77b4; stroke: #1f77b4"/>
     <use xlink:href="#mddd872a96b" x="378.81124" y="279.793169" style="fill: #1f77b4; stroke: #1f77b4"/>
     <use xlink:href="#mddd872a96b" x="382.090579" y="272.299802" style="fill: #1f77b4; stroke: #1f77b4"/>
     <use xlink:href="#mddd872a96b" x="385.369917" y="282.540866" style="fill: #1f77b4; stroke: #1f77b4"/>
     <use xlink:href="#mddd872a96b" x="388.649256" y="285.186561" style="fill: #1f77b4; stroke: #1f77b4"/>
     <use xlink:href="#mddd872a96b" x="391.928595" y="285.417218" style="fill: #1f77b4; stroke: #1f77b4"/>
     <use xlink:href="#mddd872a96b" x="395.207934" y="286.247131" style="fill: #1f77b4; stroke: #1f77b4"/>
     <use xlink:href="#mddd872a96b" x="398.487273" y="275.708332" style="fill: #1f77b4; stroke: #1f77b4"/>
    </g>
   </g>
   <g id="line2d_15">
    <path d="M 57.6 174.109186 
L 414.72 174.109186 
" clip-path="url(#p9510c6c1c1)" style="fill: none; stroke: #ff0000; stroke-width: 1.5; stroke-linecap: square"/>
   </g>
   <g id="patch_3">
    <path d="M 57.6 307.584 
L 57.6 41.472 
" style="fill: none; stroke: #000000; stroke-width: 0.8; stroke-linejoin: miter; stroke-linecap: square"/>
   </g>
   <g id="patch_4">
    <path d="M 414.72 307.584 
L 414.72 41.472 
" style="fill: none; stroke: #000000; stroke-width: 0.8; stroke-linejoin: miter; stroke-linecap: square"/>
   </g>
   <g id="patch_5">
    <path d="M 57.6 307.584 
L 414.72 307.584 
" style="fill: none; stroke: #000000; stroke-width: 0.8; stroke-linejoin: miter; stroke-linecap: square"/>
   </g>
   <g id="patch_6">
    <path d="M 57.6 41.472 
L 414.72 41.472 
" style="fill: none; stroke: #000000; stroke-width: 0.8; stroke-linejoin: miter; stroke-linecap: square"/>
   </g>
   <g id="text_16">
    <!-- Effect of Dimensions on MSE -->
    <g transform="translate(121.4425 35.472) scale(0.16 -0.16)">
     <defs>
      <path id="DejaVuSans-45" d="M 628 4666 
L 3578 4666 
L 3578 4134 
L 1259 4134 
L 1259 2753 
L 3481 2753 
L 3481 2222 
L 1259 2222 
L 1259 531 
L 3634 531 
L 3634 0 
L 628 0 
L 628 4666 
z
" transform="scale(0.015625)"/>
      <path id="DejaVuSans-63" d="M 3122 3366 
L 3122 2828 
Q 2878 2963 2633 3030 
Q 2388 3097 2138 3097 
Q 1578 3097 1268 2742 
Q 959 2388 959 1747 
Q 959 1106 1268 751 
Q 1578 397 2138 397 
Q 2388 397 2633 464 
Q 2878 531 3122 666 
L 3122 134 
Q 2881 22 2623 -34 
Q 2366 -91 2075 -91 
Q 1284 -91 818 406 
Q 353 903 353 1747 
Q 353 2603 823 3093 
Q 1294 3584 2113 3584 
Q 2378 3584 2631 3529 
Q 2884 3475 3122 3366 
z
" transform="scale(0.015625)"/>
      <path id="DejaVuSans-74" d="M 1172 4494 
L 1172 3500 
L 2356 3500 
L 2356 3053 
L 1172 3053 
L 1172 1153 
Q 1172 725 1289 603 
Q 1406 481 1766 481 
L 2356 481 
L 2356 0 
L 1766 0 
Q 1100 0 847 248 
Q 594 497 594 1153 
L 594 3053 
L 172 3053 
L 172 3500 
L 594 3500 
L 594 4494 
L 1172 4494 
z
" transform="scale(0.015625)"/>
      <path id="DejaVuSans-44" d="M 1259 4147 
L 1259 519 
L 2022 519 
Q 2988 519 3436 956 
Q 3884 1394 3884 2338 
Q 3884 3275 3436 3711 
Q 2988 4147 2022 4147 
L 1259 4147 
z
M 628 4666 
L 1925 4666 
Q 3281 4666 3915 4102 
Q 4550 3538 4550 2338 
Q 4550 1131 3912 565 
Q 3275 0 1925 0 
L 628 0 
L 628 4666 
z
" transform="scale(0.015625)"/>
      <path id="DejaVuSans-4d" d="M 628 4666 
L 1569 4666 
L 2759 1491 
L 3956 4666 
L 4897 4666 
L 4897 0 
L 4281 0 
L 4281 4097 
L 3078 897 
L 2444 897 
L 1241 4097 
L 1241 0 
L 628 0 
L 628 4666 
z
" transform="scale(0.015625)"/>
      <path id="DejaVuSans-53" d="M 3425 4513 
L 3425 3897 
Q 3066 4069 2747 4153 
Q 2428 4238 2131 4238 
Q 1616 4238 1336 4038 
Q 1056 3838 1056 3469 
Q 1056 3159 1242 3001 
Q 1428 2844 1947 2747 
L 2328 2669 
Q 3034 2534 3370 2195 
Q 3706 1856 3706 1288 
Q 3706 609 3251 259 
Q 2797 -91 1919 -91 
Q 1588 -91 1214 -16 
Q 841 59 441 206 
L 441 856 
Q 825 641 1194 531 
Q 1563 422 1919 422 
Q 2459 422 2753 634 
Q 3047 847 3047 1241 
Q 3047 1584 2836 1778 
Q 2625 1972 2144 2069 
L 1759 2144 
Q 1053 2284 737 2584 
Q 422 2884 422 3419 
Q 422 4038 858 4394 
Q 1294 4750 2059 4750 
Q 2388 4750 2728 4690 
Q 3069 4631 3425 4513 
z
" transform="scale(0.015625)"/>
     </defs>
     <use xlink:href="#DejaVuSans-45"/>
     <use xlink:href="#DejaVuSans-66" x="63.183594"/>
     <use xlink:href="#DejaVuSans-66" x="98.388672"/>
     <use xlink:href="#DejaVuSans-65" x="133.59375"/>
     <use xlink:href="#DejaVuSans-63" x="195.117188"/>
     <use xlink:href="#DejaVuSans-74" x="250.097656"/>
     <use xlink:href="#DejaVuSans-20" x="289.306641"/>
     <use xlink:href="#DejaVuSans-6f" x="321.09375"/>
     <use xlink:href="#DejaVuSans-66" x="382.275391"/>
     <use xlink:href="#DejaVuSans-20" x="417.480469"/>
     <use xlink:href="#DejaVuSans-44" x="449.267578"/>
     <use xlink:href="#DejaVuSans-69" x="526.269531"/>
     <use xlink:href="#DejaVuSans-6d" x="554.052734"/>
     <use xlink:href="#DejaVuSans-65" x="651.464844"/>
     <use xlink:href="#DejaVuSans-6e" x="712.988281"/>
     <use xlink:href="#DejaVuSans-73" x="776.367188"/>
     <use xlink:href="#DejaVuSans-69" x="828.466797"/>
     <use xlink:href="#DejaVuSans-6f" x="856.25"/>
     <use xlink:href="#DejaVuSans-6e" x="917.431641"/>
     <use xlink:href="#DejaVuSans-73" x="980.810547"/>
     <use xlink:href="#DejaVuSans-20" x="1032.910156"/>
     <use xlink:href="#DejaVuSans-6f" x="1064.697266"/>
     <use xlink:href="#DejaVuSans-6e" x="1125.878906"/>
     <use xlink:href="#DejaVuSans-20" x="1189.257812"/>
     <use xlink:href="#DejaVuSans-4d" x="1221.044922"/>
     <use xlink:href="#DejaVuSans-53" x="1307.324219"/>
     <use xlink:href="#DejaVuSans-45" x="1370.800781"/>
    </g>
   </g>
  </g>
 </g>
 <defs>
  <clipPath id="p9510c6c1c1">
   <rect x="57.6" y="41.472" width="357.12" height="266.112"/>
  </clipPath>
 </defs>
</svg>
