<svg xmlns="http://www.w3.org/2000/svg" viewBox="0 0 1200 1020" width="100%" height="100%">
    <defs>
        <marker id="arrow" viewBox="0 0 10 10" refX="8" refY="5" markerWidth="6" markerHeight="6" orient="auto-start-reverse">
            <path d="M 0 0 L 10 5 L 0 10 z" fill="#333" />
        </marker>
        <style>
            .box { stroke: #333; stroke-width: 1.5; rx: 5; ry: 5; }
            .box-dropout { fill: #f1f3f4; stroke: #888; stroke-width: 1.5; stroke-dasharray: 4,2; rx: 4; ry: 4; }
            .bg-nx { fill: #f8f9fa; stroke: #999; stroke-width: 1.5; stroke-dasharray: 6,4; rx: 10; ry: 10; }
            .text-main { font-family: -apple-system, BlinkMacSystemFont, "Segoe UI", Roboto, Helvetica, Arial, sans-serif; font-size: 13px; text-anchor: middle; dominant-baseline: middle; fill: #111; font-weight: 500;}
            .text-small { font-family: -apple-system, BlinkMacSystemFont, "Segoe UI", Roboto, Helvetica, Arial, sans-serif; font-size: 11px; text-anchor: middle; dominant-baseline: middle; fill: #444; }
            .text-title { font-family: -apple-system, BlinkMacSystemFont, "Segoe UI", Roboto, Helvetica, Arial, sans-serif; font-size: 24px; text-anchor: middle; font-weight: bold; fill: #222; }
            .text-subtitle { font-family: -apple-system, BlinkMacSystemFont, "Segoe UI", Roboto, Helvetica, Arial, sans-serif; font-size: 18px; text-anchor: middle; font-weight: bold; fill: #555; }
            .line { stroke: #333; stroke-width: 1.5; fill: none; stroke-linejoin: round; }
            .line-dashed { stroke: #666; stroke-width: 1.5; fill: none; stroke-dasharray: 5,5; }
        </style>
    </defs>

    <text x="600" y="980" class="text-title">The Transformer Architecture (Rigorous Edition)</text>
    <text x="600" y="1005" class="text-small">Including Dropout &amp; Multi-Head Attention Detail (Concat)</text>
    
    <text x="250" y="950" class="text-subtitle">Encoder</text>
    <text x="600" y="950" class="text-subtitle">Decoder</text>
    <text x="980" y="850" class="text-subtitle">Multi-Head Attention (Detail)</text>

    <rect x="105" y="310" width="290" height="390" class="bg-nx" />
    <text x="135" y="340" class="text-main" font-size="16px" font-weight="bold">N ×</text>

    <rect x="175" y="900" width="150" height="30" class="box" fill="#f4cccc" />
    <text x="250" y="915" class="text-main">Inputs</text>

    <rect x="175" y="830" width="150" height="40" class="box" fill="#fce5cd" />
    <text x="250" y="850" class="text-main">Input Embedding</text>

    <circle cx="250" cy="760" r="15" class="box" fill="#fff" />
    <text x="250" y="762" font-size="20" text-anchor="middle" dominant-baseline="middle">+</text>
    <circle cx="160" cy="760" r="20" class="line" fill="#fff" />
    <path d="M 145 760 Q 152.5 745, 160 760 T 175 760" class="line" />
    <text x="160" y="795" class="text-small">Positional Encoding</text>
    <polyline points="180,760 230,760" class="line" marker-end="url(#arrow)" />

    <rect x="215" y="715" width="70" height="20" class="box-dropout" />
    <text x="250" y="725" class="text-small">Dropout</text>

    <rect x="175" y="630" width="150" height="40" class="box" fill="#f6b26b" />
    <text x="250" y="650" class="text-main">Multi-Head Attention</text>

    <rect x="215" y="590" width="70" height="20" class="box-dropout" />
    <text x="250" y="600" class="text-small">Dropout</text>

    <rect x="175" y="535" width="150" height="40" class="box" fill="#ffe599" />
    <text x="250" y="555" class="text-main">Add &amp; Norm</text>

    <rect x="175" y="460" width="150" height="40" class="box" fill="#9fc5e8" />
    <text x="250" y="480" class="text-main">Feed Forward</text>

    <rect x="215" y="415" width="70" height="20" class="box-dropout" />
    <text x="250" y="425" class="text-small">Dropout</text>

    <rect x="175" y="360" width="150" height="40" class="box" fill="#ffe599" />
    <text x="250" y="380" class="text-main">Add &amp; Norm</text>

    <polyline points="250,900 250,875" class="line" marker-end="url(#arrow)" />
    <polyline points="250,830 250,780" class="line" marker-end="url(#arrow)" />
    <polyline points="250,745 250,735" class="line" marker-end="url(#arrow)" />
    <polyline points="250,715 250,700" class="line" />
    
    <polyline points="250,700 220,700 220,675" class="line" marker-end="url(#arrow)" />
    <polyline points="250,700 250,675" class="line" marker-end="url(#arrow)" />
    <polyline points="250,700 280,700 280,675" class="line" marker-end="url(#arrow)" />
    <text x="210" y="688" class="text-small" font-style="italic">V</text>
    <text x="240" y="688" class="text-small" font-style="italic">K</text>
    <text x="290" y="688" class="text-small" font-style="italic">Q</text>

    <polyline points="250,630 250,610" class="line" marker-end="url(#arrow)" />
    <polyline points="250,590 250,575" class="line" marker-end="url(#arrow)" />
    <polyline points="250,535 250,505" class="line" marker-end="url(#arrow)" />
    <polyline points="250,460 250,435" class="line" marker-end="url(#arrow)" />
    <polyline points="250,415 250,405" class="line" marker-end="url(#arrow)" />

    <polyline points="250,705 130,705 130,555 170,555" class="line" marker-end="url(#arrow)" />
    <polyline points="250,520 130,520 130,380 170,380" class="line" marker-end="url(#arrow)" />

    <rect x="445" y="210" width="310" height="490" class="bg-nx" />
    <text x="475" y="240" class="text-main" font-size="16px" font-weight="bold">N ×</text>

    <rect x="525" y="900" width="150" height="30" class="box" fill="#f4cccc" />
    <text x="600" y="915" class="text-main">Outputs (shifted right)</text>

    <rect x="525" y="830" width="150" height="40" class="box" fill="#fce5cd" />
    <text x="600" y="850" class="text-main">Output Embedding</text>

    <circle cx="600" cy="760" r="15" class="box" fill="#fff" />
    <text x="600" y="762" font-size="20" text-anchor="middle" dominant-baseline="middle">+</text>
    <circle cx="510" cy="760" r="20" class="line" fill="#fff" />
    <path d="M 495 760 Q 502.5 745, 510 760 T 525 760" class="line" />
    <text x="510" y="795" class="text-small">Positional Encoding</text>
    <polyline points="530,760 580,760" class="line" marker-end="url(#arrow)" />

    <rect x="565" y="715" width="70" height="20" class="box-dropout" />
    <text x="600" y="725" class="text-small">Dropout</text>

    <rect x="525" y="630" width="150" height="45" class="box" fill="#e69138" />
    <text x="600" y="645" class="text-main">Masked Multi-Head</text>
    <text x="600" y="660" class="text-main">Attention</text>

    <rect x="565" y="590" width="70" height="20" class="box-dropout" />
    <text x="600" y="600" class="text-small">Dropout</text>

    <rect x="525" y="535" width="150" height="40" class="box" fill="#ffe599" />
    <text x="600" y="555" class="text-main">Add &amp; Norm</text>

    <rect x="525" y="460" width="150" height="40" class="box" fill="#f6b26b" />
    <text x="600" y="480" class="text-main">Multi-Head Attention</text>

    <rect x="565" y="415" width="70" height="20" class="box-dropout" />
    <text x="600" y="425" class="text-small">Dropout</text>

    <rect x="525" y="360" width="150" height="40" class="box" fill="#ffe599" />
    <text x="600" y="380" class="text-main">Add &amp; Norm</text>

    <rect x="525" y="280" width="150" height="40" class="box" fill="#9fc5e8" />
    <text x="600" y="300" class="text-main">Feed Forward</text>

    <rect x="565" y="235" width="70" height="20" class="box-dropout" />
    <text x="600" y="245" class="text-small">Dropout</text>

    <rect x="525" y="180" width="150" height="40" class="box" fill="#ffe599" />
    <text x="600" y="200" class="text-main">Add &amp; Norm</text>

    <polyline points="600,900 600,875" class="line" marker-end="url(#arrow)" />
    <polyline points="600,830 600,780" class="line" marker-end="url(#arrow)" />
    <polyline points="600,745 600,735" class="line" marker-end="url(#arrow)" />
    <polyline points="600,715 600,700" class="line" />
    
    <polyline points="600,700 570,700 570,680" class="line" marker-end="url(#arrow)" />
    <polyline points="600,700 600,680" class="line" marker-end="url(#arrow)" />
    <polyline points="600,700 630,700 630,680" class="line" marker-end="url(#arrow)" />
    <text x="560" y="688" class="text-small" font-style="italic">V</text>
    <text x="590" y="688" class="text-small" font-style="italic">K</text>
    <text x="640" y="688" class="text-small" font-style="italic">Q</text>

    <polyline points="600,630 600,610" class="line" marker-end="url(#arrow)" />
    <polyline points="600,590 600,575" class="line" marker-end="url(#arrow)" />
    
    <polyline points="600,535 600,505" class="line" marker-end="url(#arrow)" />
    <text x="615" y="520" class="text-small" font-style="italic">Q</text>

    <polyline points="600,460 600,435" class="line" marker-end="url(#arrow)" />
    <polyline points="600,415 600,405" class="line" marker-end="url(#arrow)" />
    <polyline points="600,360 600,325" class="line" marker-end="url(#arrow)" />
    <polyline points="600,280 600,255" class="line" marker-end="url(#arrow)" />
    <polyline points="600,235 600,225" class="line" marker-end="url(#arrow)" />
    <polyline points="600,180 600,145" class="line" marker-end="url(#arrow)" />

    <rect x="525" y="100" width="150" height="40" class="box" fill="#b4a7d6" />
    <text x="600" y="120" class="text-main">Linear</text>
    <rect x="525" y="40" width="150" height="35" class="box" fill="#d9d2e9" />
    <text x="600" y="57" class="text-main">Softmax</text>
    <polyline points="600,100 600,80" class="line" marker-end="url(#arrow)" />

    <polyline points="600,705 730,705 730,555 680,555" class="line" marker-end="url(#arrow)" />
    <polyline points="600,520 730,520 730,380 680,380" class="line" marker-end="url(#arrow)" />
    <polyline points="600,340 730,340 730,200 680,200" class="line" marker-end="url(#arrow)" />

    <polyline points="250,360 250,300 480,300 480,480" class="line" />
    <polyline points="480,470 520,470" class="line" marker-end="url(#arrow)" />
    <polyline points="480,490 520,490" class="line" marker-end="url(#arrow)" />
    <text x="495" y="460" class="text-small" font-style="italic">V</text>
    <text x="495" y="505" class="text-small" font-style="italic">K</text>

    <rect x="830" y="320" width="320" height="500" class="bg-nx" fill="none"/>
    <text x="880" y="800" class="text-main" font-style="italic" font-size="16px">V</text>
    <text x="980" y="800" class="text-main" font-style="italic" font-size="16px">K</text>
    <text x="1080" y="800" class="text-main" font-style="italic" font-size="16px">Q</text>

    <rect x="850" y="710" width="60" height="35" class="box" fill="#b4a7d6" />
    <text x="880" y="727" class="text-main">Linear</text>
    <rect x="950" y="710" width="60" height="35" class="box" fill="#b4a7d6" />
    <text x="980" y="727" class="text-main">Linear</text>
    <rect x="1050" y="710" width="60" height="35" class="box" fill="#b4a7d6" />
    <text x="1080" y="727" class="text-main">Linear</text>

    <rect x="860" y="585" width="240" height="50" class="box" fill="#f6b26b" stroke-dasharray="2,2"/>
    <rect x="855" y="595" width="240" height="50" class="box" fill="#f6b26b" />
    <rect x="850" y="605" width="240" height="50" class="box" fill="#f6b26b" />
    <text x="970" y="630" class="text-main">Scaled Dot-Product Attention</text>
    <text x="1140" y="615" class="text-small" font-style="italic">h heads</text>

    <rect x="850" y="500" width="260" height="35" class="box" fill="#d9d2e9" />
    <text x="980" y="517" class="text-main" font-weight="bold">Concat</text>

    <rect x="850" y="410" width="260" height="35" class="box" fill="#b4a7d6" />
    <text x="980" y="427" class="text-main">Linear</text>

    <polyline points="880,780 880,750" class="line" marker-end="url(#arrow)" />
    <polyline points="980,780 980,750" class="line" marker-end="url(#arrow)" />
    <polyline points="1080,780 1080,750" class="line" marker-end="url(#arrow)" />
    <polyline points="880,710 880,660" class="line" marker-end="url(#arrow)" />
    <polyline points="980,710 980,660" class="line" marker-end="url(#arrow)" />
    <polyline points="1080,710 1080,660" class="line" marker-end="url(#arrow)" />
    <polyline points="880,580 880,540" class="line" marker-end="url(#arrow)" />
    <polyline points="980,580 980,540" class="line" marker-end="url(#arrow)" />
    <polyline points="1080,580 1080,540" class="line" marker-end="url(#arrow)" />
    <polyline points="980,500 980,450" class="line" marker-end="url(#arrow)" />
    <polyline points="980,410 980,365" class="line" marker-end="url(#arrow)" />

    <path d="M 330 650 Q 580 650 820 570" class="line-dashed" marker-end="url(#arrow)" />
    
</svg>
