<svg width="900" height="540" xmlns="http://www.w3.org/2000/svg">

 <g>
  <title>Layer 1</title>
  <text font-weight="bold" xml:space="preserve" text-anchor="start" font-family="Noto Sans JP" font-size="24" id="svg_1" y="31.05259" x="8.94734" stroke-width="0" stroke="#000" fill="#000000">拦截器 HandlerInterceptor</text>
  <text style="cursor: move;" xml:space="preserve" text-anchor="start" font-family="Noto Sans JP" font-size="16" id="svg_2" y="66.84206" x="10.52628" stroke-width="0" stroke="#000" fill="#000000">拦截器执行顺序：顺序 preHandle → 目标方法 → 倒序 postHandle → 渲染 → 倒序 afterCompletion</text>
  <text style="cursor: move;" xml:space="preserve" text-anchor="start" font-family="Noto Sans JP" font-size="16" id="svg_3" y="102.63153" x="24.73681" stroke-width="0" stroke="#000" fill="#000000">只有 preHandle 方法执行成功的拦截器的 postHandle 方法与 afterCompletion 方法才会被执行</text>
  <text style="cursor: move;" xml:space="preserve" text-anchor="start" font-family="Noto Sans JP" font-size="16" id="svg_6" y="125.78942" x="24.2105" stroke-width="0" stroke="#000" fill="#000000">如果某拦截器的 postHandle 或 afterCompletion 执行失败，则相应 postHandle 或 afterCompletion 倒序执行链路终止</text>
  <text xml:space="preserve" text-anchor="start" font-family="Noto Sans JP" font-size="16" id="svg_7" y="148.94732" x="24.21049" stroke-width="0" stroke="#000" fill="#000000">postHandle 与 afterCompletion 倒序执行链路间互不影响，但某个 postHandle 执行失败将导致跳过渲染</text>
  <rect id="svg_22" height="32.04633" width="61.00386" y="188.41699" x="29.53668" stroke="#000" fill="none"/>
  <path id="svg_24" d="m107.89478,165.13585l783.72565,0l0,373.21646l-783.72565,0l0,-373.21646z" opacity="undefined" stroke="#000" fill="none"/>
  <path id="svg_25" d="m159.8214,189.7321l144.64285,0l0,30.35714l-144.64285,0l0,-30.35714z" opacity="undefined" stroke="#000" fill="none"/>
  <text xml:space="preserve" text-anchor="start" font-family="Noto Sans JP" font-size="16" stroke-width="0" id="svg_26" y="210.26781" x="44.1964" stroke="#000" fill="#000000">请求</text>
  <text xml:space="preserve" text-anchor="start" font-family="Noto Sans JP" font-size="16" stroke-width="0" id="svg_27" y="211.60709" x="164.73211" stroke="#000" fill="#000000">DispatcherServlet</text>
  <text xml:space="preserve" text-anchor="start" font-family="Noto Sans JP" font-size="16" stroke-width="0" id="svg_28" y="191.07138" x="434.37495" stroke="#000" fill="#000000">Spring MVC</text>
  <rect id="svg_29" height="260.71427" width="163.83928" y="266.07138" x="142.85711" stroke="#000" fill="none"/>
  <rect id="svg_32" height="28.125" width="133.03571" y="287.49995" x="158.48211" stroke="#000" fill="none"/>
  <text xml:space="preserve" text-anchor="start" font-family="Noto Sans JP" font-size="16" stroke-width="0" id="svg_33" y="308.03566" x="186.16068" stroke="#000" fill="#000000">preHandle</text>
  <rect id="svg_34" height="28.125" width="133.03571" y="350" x="158.48211" stroke="#000" fill="none"/>
  <text xml:space="preserve" text-anchor="start" font-family="Noto Sans JP" font-size="16" stroke-width="0" id="svg_35" y="370.98208" x="181.24996" stroke="#000" fill="#000000">postHandle</text>
  <rect id="svg_36" height="28.125" width="133.03571" y="415" x="158.48211" stroke="#000" fill="none"/>
  <text xml:space="preserve" text-anchor="start" font-family="Noto Sans JP" font-size="16" stroke-width="0" id="svg_37" y="435.71422" x="162.49996" stroke="#000" fill="#000000">afterCompletion</text>
  <text xml:space="preserve" text-anchor="start" font-family="Noto Sans JP" font-size="16" stroke-width="0" id="svg_38" y="500.44636" x="191.51782" stroke="#000" fill="#000000">拦截器 1</text>
  <rect id="svg_41" height="260.71427" width="163.83928" y="266.07138" x="353" stroke="#000" fill="none"/>
  <rect id="svg_42" height="28.125" width="133.03571" y="287.49995" x="369" stroke="#000" fill="none"/>
  <rect id="svg_43" height="28.125" width="133.03571" y="350" x="368" stroke="#000" fill="none"/>
  <rect id="svg_44" height="28.125" width="133.03571" y="415" x="368" stroke="#000" fill="none"/>
  <text xml:space="preserve" text-anchor="start" font-family="Noto Sans JP" font-size="16" stroke-width="0" id="svg_45" y="308.03566" x="396" stroke="#000" fill="#000000">preHandle</text>
  <text xml:space="preserve" text-anchor="start" font-family="Noto Sans JP" font-size="16" stroke-width="0" id="svg_46" y="370.98208" x="601" stroke="#000" fill="#000000">postHandle</text>
  <text xml:space="preserve" text-anchor="start" font-family="Noto Sans JP" font-size="16" stroke-width="0" id="svg_47" y="370.98208" x="391" stroke="#000" fill="#000000">postHandle</text>
  <text xml:space="preserve" text-anchor="start" font-family="Noto Sans JP" font-size="16" stroke-width="0" id="svg_48" y="435.71422" x="372" stroke="#000" fill="#000000">afterCompletion</text>
  <text style="cursor: move;" xml:space="preserve" text-anchor="start" font-family="Noto Sans JP" font-size="16" stroke-width="0" id="svg_49" y="500.44636" x="402" stroke="#000" fill="#000000">拦截器 2</text>
  <rect id="svg_50" height="260.71427" width="163.83928" y="266.07138" x="563" stroke="#000" fill="none"/>
  <rect id="svg_51" height="28.125" width="133.03571" y="287.49995" x="578" stroke="#000" fill="none"/>
  <rect id="svg_52" height="28.125" width="133.03571" y="350" x="578" stroke="#000" fill="none"/>
  <rect id="svg_53" height="28.125" width="133.03571" y="415" x="578" stroke="#000" fill="none"/>
  <text style="cursor: move;" xml:space="preserve" text-anchor="start" font-family="Noto Sans JP" font-size="16" stroke-width="0" id="svg_54" y="500.44636" x="612" stroke="#000" fill="#000000">拦截器 3</text>
  <text xml:space="preserve" text-anchor="start" font-family="Noto Sans JP" font-size="16" stroke-width="0" id="svg_55" y="308.03566" x="606" stroke="#000" fill="#000000">preHandle</text>
  <text xml:space="preserve" text-anchor="start" font-family="Noto Sans JP" font-size="16" stroke-width="0" id="svg_56" y="435.71422" x="582" stroke="#000" fill="#000000">afterCompletion</text>
  <path id="svg_57" d="m780.99997,287.94637l76.33928,0l0,28.125l-76.33928,0l0,-28.125z" opacity="undefined" stroke="#000" fill="none"/>
  <text xml:space="preserve" text-anchor="start" font-family="Noto Sans JP" font-size="16" id="svg_58" y="308.48209" x="787" stroke="#000" fill="none">目标方法</text>
  <path transform="rotate(90 228.576 253.603)" id="svg_65" d="m244.64056,258.81457c1.27693,-0.93393 2.49817,-2.01064 3.574,-2.97716l-32.23559,-0.44349l-4.42161,3.81933l-14.00776,-0.32803c1.75519,-1.7389 3.67794,-3.78163 5.10348,-5.31592l-5.07093,-5.15798l14.94597,0l3.04103,3.22274l32.91175,0l-4.08245,-3.21553c1.2599,-1.01334 3.12448,-2.36565 4.13594,-3.07469l11.06877,8.19536l-11.09395,8.32249l-3.86866,-3.04712l0,0z" stroke="#000" fill="none"/>
  <path id="svg_66" d="m346.52469,306.74257c1.31368,-0.88345 2.57006,-1.90195 3.67685,-2.81623l-33.16324,-0.41952l-4.54885,3.61288l-14.41086,-0.3103c1.8057,-1.6449 3.78378,-3.57721 5.25035,-5.02857l-5.21686,-4.87916l15.37607,0l3.12854,3.04853l33.85885,0l-4.19993,-3.04171c1.29615,-0.95856 3.21439,-2.23777 4.25496,-2.90849l11.3873,7.75235l-11.4132,7.87261l-3.97999,-2.88241l0,0z" stroke="#000" fill="none"/>
  <path id="svg_70" d="m557.24968,306.81407c1.31368,-0.88345 2.57006,-1.90195 3.67685,-2.81623l-33.16324,-0.41952l-4.54885,3.61288l-14.41087,-0.3103c1.8057,-1.6449 3.78378,-3.57721 5.25035,-5.02857l-5.21686,-4.87916l15.37607,0l3.12855,3.04853l33.85885,0l-4.19993,-3.04171c1.29615,-0.95856 3.21439,-2.23777 4.25496,-2.90848l11.3873,7.75235l-11.4132,7.87261l-3.97999,-2.8824l0.00001,0z" stroke="#000" fill="none"/>
  <path id="svg_71" d="m141.70751,211.16727c1.27693,-0.93393 2.49817,-2.01064 3.574,-2.97716l-32.23559,-0.44349l-4.42161,3.81933l-14.00776,-0.32803c1.75519,-1.7389 3.67794,-3.78163 5.10348,-5.31592l-5.07093,-5.15798l14.94597,0l3.04103,3.22274l32.91175,0l-4.08245,-3.21553c1.2599,-1.01334 3.12448,-2.36565 4.13594,-3.07469l11.06877,8.19536l-11.09395,8.32249l-3.86866,-3.04712l0,0z" stroke="#000" fill="none"/>
  <path transform="rotate(180 329.998 364.813)" id="svg_77" d="m346.52469,369.74257c1.31368,-0.88345 2.57006,-1.90196 3.67685,-2.81623l-33.16324,-0.41952l-4.54885,3.61288l-14.41087,-0.31031c1.8057,-1.64489 3.78378,-3.57721 5.25035,-5.02856l-5.21686,-4.87916l15.37607,0l3.12855,3.04853l33.85885,0l-4.19993,-3.04171c1.29615,-0.95856 3.21439,-2.23778 4.25496,-2.90849l11.3873,7.75236l-11.4132,7.87261l-3.97999,-2.8824l0.00001,0z" stroke="#000" fill="none"/>
  <path transform="rotate(180 540.919 364.813)" id="svg_79" d="m557.44611,369.74257c1.31368,-0.88345 2.57006,-1.90196 3.67685,-2.81623l-33.16324,-0.41952l-4.54885,3.61288l-14.41087,-0.31031c1.8057,-1.64489 3.78378,-3.57721 5.25035,-5.02856l-5.21686,-4.87916l15.37607,0l3.12855,3.04853l33.85885,0l-4.19993,-3.04171c1.29615,-0.95856 3.21439,-2.23778 4.25496,-2.90849l11.3873,7.75236l-11.4132,7.87261l-3.97999,-2.8824l0.00001,0z" stroke="#000" fill="none"/>
  <path transform="rotate(180 329.998 429.813)" id="svg_80" d="m346.52469,434.74257c1.31368,-0.88345 2.57006,-1.90196 3.67685,-2.81623l-33.16324,-0.41952l-4.54885,3.61288l-14.41087,-0.31031c1.8057,-1.64489 3.78378,-3.57721 5.25035,-5.02856l-5.21686,-4.87916l15.37607,0l3.12855,3.04853l33.85885,0l-4.19993,-3.04171c1.29615,-0.95856 3.21439,-2.23778 4.25496,-2.90849l11.3873,7.75236l-11.4132,7.87261l-3.97999,-2.8824l0.00001,0z" stroke="#000" fill="none"/>
  <path transform="rotate(180 540.919 429.813)" id="svg_81" d="m557.44611,434.74257c1.31368,-0.88345 2.57006,-1.90196 3.67685,-2.81623l-33.16324,-0.41952l-4.54885,3.61288l-14.41087,-0.31031c1.8057,-1.64489 3.78378,-3.57721 5.25035,-5.02856l-5.21686,-4.87916l15.37607,0l3.12855,3.04853l33.85885,0l-4.19993,-3.04171c1.29615,-0.95856 3.21439,-2.23778 4.25496,-2.90849l11.3873,7.75236l-11.4132,7.87261l-3.97999,-2.8824l0.00001,0z" stroke="#000" fill="none"/>
  <path id="svg_82" d="m763.32112,306.81407c1.31368,-0.88345 2.57006,-1.90195 3.67685,-2.81623l-33.16324,-0.41952l-4.54885,3.61288l-14.41087,-0.3103c1.8057,-1.6449 3.78378,-3.57721 5.25035,-5.02857l-5.21686,-4.87916l15.37607,0l3.12855,3.04853l33.85885,0l-4.19993,-3.04171c1.29615,-0.95856 3.21439,-2.23777 4.25496,-2.90848l11.3873,7.75235l-11.4132,7.87261l-3.97999,-2.8824l0.00001,0z" stroke="#000" fill="none"/>
  <path transform="rotate(150 755.828 346.71)" id="svg_93" d="m779.05805,353.61202c1.8465,-1.23683 3.61247,-2.66274 5.16816,-3.94272l-46.61404,-0.58733l-6.39384,5.05803l-20.25582,-0.43442c2.53808,-2.30286 5.31845,-5.0081 7.37985,-7.04l-7.33278,-6.83083l21.61251,0l4.39746,4.26795l47.59179,0l-5.90339,-4.2584c1.82187,-1.34198 4.51813,-3.13289 5.98075,-4.07188l16.00591,10.85331l-16.04232,11.02167l-5.59425,-4.03537l0.00001,0z" stroke="#000" fill="none"/>
  <path transform="rotate(150 787.146 390.049)" stroke="#000" id="svg_94" d="m829.79484,399.35195c3.39017,-1.66702 6.63249,-3.58888 9.48874,-5.31406l-85.58339,-0.79161l-11.73909,6.8173l-37.18969,-0.58552c4.65991,-3.10383 9.76468,-6.75 13.54941,-9.48863l-13.46299,-9.2067l39.68057,0l8.07374,5.75241l87.37854,0l-10.83863,-5.73954c3.34495,-1.80875 8.29528,-4.22256 10.98066,-5.48815l29.38686,14.62826l-29.4537,14.85519l-10.27104,-5.43894l0.00001,0z" fill="none"/>
  <text xml:space="preserve" text-anchor="start" font-family="'Faustina'" font-size="16" id="svg_96" y="361.60708" x="754.01779" stroke="#000" fill="none">First</text>
  <text xml:space="preserve" text-anchor="start" font-family="'Faustina'" font-size="16" id="svg_97" y="402.23208" x="797.32135" stroke="#000" fill="none">Second</text>
 </g>
</svg>